<?xml version="1.0" encoding="UTF-8"?>
<!DOCTYPE svg PUBLIC "-//W3C//DTD SVG 1.1//EN" "http://www.w3.org/Graphics/SVG/1.1/DTD/svg11.dtd">
<!-- Creator: CorelDRAW 2021 (64-Bit) -->
<svg xmlns="http://www.w3.org/2000/svg" xml:space="preserve" width="297mm" height="210mm" version="1.1" style="shape-rendering:geometricPrecision; text-rendering:geometricPrecision; image-rendering:optimizeQuality; fill-rule:evenodd; clip-rule:evenodd"
viewBox="0 0 29700 21000"
 xmlns:xlink="http://www.w3.org/1999/xlink"
 xmlns:xodm="http://www.corel.com/coreldraw/odm/2003">
 <defs>
  <style type="text/css">
   <![CDATA[
    .str0 {stroke:black;stroke-width:20;stroke-linecap:round;stroke-linejoin:round;stroke-miterlimit:22.9256}
    .fil13 {fill:none}
    .fil0 {fill:#FEFEFE}
    .fil14 {fill:#898989}
    .fil9 {fill:#74B8FC}
    .fil12 {fill:#9DB9D4}
    .fil35 {fill:url(#id0)}
    .fil29 {fill:url(#id1)}
    .fil21 {fill:url(#id2)}
    .fil36 {fill:url(#id3)}
    .fil7 {fill:url(#id4)}
    .fil6 {fill:url(#id5)}
    .fil32 {fill:url(#id6)}
    .fil22 {fill:url(#id7)}
    .fil33 {fill:url(#id8)}
    .fil23 {fill:url(#id9)}
    .fil10 {fill:url(#id10)}
    .fil31 {fill:url(#id11)}
    .fil2 {fill:url(#id12)}
    .fil15 {fill:url(#id13)}
    .fil1 {fill:url(#id14)}
    .fil34 {fill:url(#id15)}
    .fil3 {fill:url(#id16)}
    .fil18 {fill:url(#id17)}
    .fil27 {fill:url(#id18)}
    .fil25 {fill:url(#id19)}
    .fil4 {fill:url(#id20)}
    .fil19 {fill:url(#id21)}
    .fil37 {fill:url(#id22)}
    .fil17 {fill:url(#id23)}
    .fil5 {fill:url(#id24)}
    .fil28 {fill:url(#id25)}
    .fil30 {fill:url(#id26)}
    .fil16 {fill:url(#id27)}
    .fil20 {fill:url(#id28)}
    .fil11 {fill:url(#id29)}
    .fil24 {fill:url(#id30)}
    .fil26 {fill:url(#id31)}
    .fil8 {fill:url(#id32)}
    .fil38 {fill:url(#id33)}
   ]]>
  </style>
  <linearGradient id="id0" gradientUnits="userSpaceOnUse" x1="5194.91" y1="16063.76" x2="8765.28" y2="13823.13">
   <stop offset="0" style="stop-opacity:1; stop-color:#2C458E"/>
   <stop offset="0.6" style="stop-opacity:1; stop-color:#162347"/>
   <stop offset="1" style="stop-opacity:1; stop-color:black"/>
  </linearGradient>
  <linearGradient id="id1" gradientUnits="userSpaceOnUse" xlink:href="#id0" x1="17485.76" y1="19017.23" x2="5895.34" y2="12068.94">
  </linearGradient>
  <linearGradient id="id2" gradientUnits="userSpaceOnUse" x1="18803.84" y1="17632.57" x2="19236.13" y2="7550.44">
   <stop offset="0" style="stop-opacity:1; stop-color:#2C458E"/>
   <stop offset="0.709804" style="stop-opacity:1; stop-color:#162347"/>
   <stop offset="1" style="stop-opacity:1; stop-color:black"/>
  </linearGradient>
  <linearGradient id="id3" gradientUnits="userSpaceOnUse" xlink:href="#id0" x1="12696.49" y1="8036.72" x2="16248.37" y2="10306.55">
  </linearGradient>
  <linearGradient id="id4" gradientUnits="userSpaceOnUse" xlink:href="#id0" x1="9181.19" y1="11700.93" x2="9346.12" y2="16741.05">
  </linearGradient>
  <linearGradient id="id5" gradientUnits="userSpaceOnUse" xlink:href="#id0" x1="12031.42" y1="4625.71" x2="17091.53" y2="7820.58">
  </linearGradient>
  <linearGradient id="id6" gradientUnits="userSpaceOnUse" xlink:href="#id0" x1="19661.08" y1="15858.73" x2="19850.9" y2="11647.8">
  </linearGradient>
  <linearGradient id="id7" gradientUnits="userSpaceOnUse" x1="14469.56" y1="17547.64" x2="17611.14" y2="7578.78">
   <stop offset="0" style="stop-opacity:1; stop-color:#2C458E"/>
   <stop offset="0.65098" style="stop-opacity:1; stop-color:#162347"/>
   <stop offset="1" style="stop-opacity:1; stop-color:black"/>
  </linearGradient>
  <linearGradient id="id8" gradientUnits="userSpaceOnUse" xlink:href="#id0" x1="15403.28" y1="18312.19" x2="11687.65" y2="16307.63">
  </linearGradient>
  <linearGradient id="id9" gradientUnits="userSpaceOnUse" xlink:href="#id0" x1="4050.16" y1="17685.16" x2="12609.53" y2="12339.77">
  </linearGradient>
  <linearGradient id="id10" gradientUnits="userSpaceOnUse" xlink:href="#id0" x1="9664.81" y1="17002.02" x2="13931.73" y2="14348.93">
  </linearGradient>
  <linearGradient id="id11" gradientUnits="userSpaceOnUse" xlink:href="#id0" x1="12223.39" y1="8299.11" x2="12378.67" y2="12511.45">
  </linearGradient>
  <linearGradient id="id12" gradientUnits="userSpaceOnUse" xlink:href="#id0" x1="17039.58" y1="18140.19" x2="17276.4" y2="12160.58">
  </linearGradient>
  <linearGradient id="id13" gradientUnits="userSpaceOnUse" xlink:href="#id0" x1="13937.03" y1="14026.04" x2="9434.87" y2="11475.43">
  </linearGradient>
  <linearGradient id="id14" gradientUnits="userSpaceOnUse" xlink:href="#id0" x1="9620.67" y1="5996.24" x2="9808.47" y2="11977.59">
  </linearGradient>
  <linearGradient id="id15" gradientUnits="userSpaceOnUse" xlink:href="#id0" x1="22922.96" y1="5872.06" x2="19191.01" y2="7846.09">
  </linearGradient>
  <linearGradient id="id16" gradientUnits="userSpaceOnUse" xlink:href="#id0" x1="18704.8" y1="17229.33" x2="13454.25" y2="14358.18">
  </linearGradient>
  <linearGradient id="id17" gradientUnits="userSpaceOnUse" xlink:href="#id2" x1="11380.72" y1="6518.3" x2="11730.35" y2="16603.64">
  </linearGradient>
  <linearGradient id="id18" gradientUnits="userSpaceOnUse" xlink:href="#id0" x1="11565.07" y1="6405.99" x2="20080.33" y2="11821.37">
  </linearGradient>
  <linearGradient id="id19" gradientUnits="userSpaceOnUse" xlink:href="#id0" x1="4050.16" y1="17685.16" x2="12609.53" y2="12339.77">
  </linearGradient>
  <linearGradient id="id20" gradientUnits="userSpaceOnUse" xlink:href="#id0" x1="26215.48" y1="6981.95" x2="20941.57" y2="9809.96">
  </linearGradient>
  <linearGradient id="id21" gradientUnits="userSpaceOnUse" xlink:href="#id7" x1="7045.89" y1="6567.7" x2="10105.65" y2="16561.97">
  </linearGradient>
  <linearGradient id="id22" gradientUnits="userSpaceOnUse" xlink:href="#id0" x1="17629.63" y1="19000.55" x2="7481.66" y2="13361.64">
  </linearGradient>
  <linearGradient id="id23" gradientUnits="userSpaceOnUse" x1="12994.33" y1="6014.87" x2="13240.42" y2="13340.18">
   <stop offset="0" style="stop-opacity:1; stop-color:#2C458E"/>
   <stop offset="0.729412" style="stop-opacity:1; stop-color:#162347"/>
   <stop offset="1" style="stop-opacity:1; stop-color:black"/>
  </linearGradient>
  <linearGradient id="id24" gradientUnits="userSpaceOnUse" xlink:href="#id0" x1="4501.9" y1="19469.21" x2="9588.02" y2="16315.93">
  </linearGradient>
  <linearGradient id="id25" gradientUnits="userSpaceOnUse" xlink:href="#id0" x1="11565.07" y1="6405.99" x2="20080.33" y2="11821.37">
  </linearGradient>
  <linearGradient id="id26" gradientUnits="userSpaceOnUse" xlink:href="#id0" x1="25011.14" y1="5184.11" x2="13364.15" y2="12037.15">
  </linearGradient>
  <linearGradient id="id27" gradientUnits="userSpaceOnUse" xlink:href="#id0" x1="21421.61" y1="10146.04" x2="16898.69" y2="12659.66">
  </linearGradient>
  <linearGradient id="id28" gradientUnits="userSpaceOnUse" xlink:href="#id23" x1="20413.27" y1="18149.21" x2="20719.4" y2="10826.17">
  </linearGradient>
  <linearGradient id="id29" gradientUnits="userSpaceOnUse" xlink:href="#id0" x1="17173.94" y1="7135.14" x2="21418.97" y2="9823.12">
  </linearGradient>
  <linearGradient id="id30" gradientUnits="userSpaceOnUse" xlink:href="#id0" x1="4050.16" y1="17685.16" x2="12609.53" y2="12339.77">
  </linearGradient>
  <linearGradient id="id31" gradientUnits="userSpaceOnUse" xlink:href="#id0" x1="11565.07" y1="6405.99" x2="20080.33" y2="11821.37">
  </linearGradient>
  <linearGradient id="id32" gradientUnits="userSpaceOnUse" xlink:href="#id0" x1="16646.88" y1="12432.08" x2="16853.12" y2="7393.49">
  </linearGradient>
  <linearGradient id="id33" gradientUnits="userSpaceOnUse" xlink:href="#id0" x1="25154.87" y1="5201.97" x2="14961.02" y2="10757.49">
  </linearGradient>
 </defs>
 <g id="Layer_x0020_1">
  <metadata id="CorelCorpID_0Corel-Layer"/>
  <rect class="fil0" x="-97.67" y="54.47" width="29819.35" height="21071.61"/>
  <g id="_2775066681840">
   <polygon class="fil1" points="7968.94,11733.31 8953.59,10038.89 9684.06,8781.88 10974.55,6561.17 11280.36,6034.92 10670.72,6034.92 7359.29,11733.31 "/>
   <polygon class="fil2" points="15434.93,12389.77 16405.66,14092.21 17125.8,15355.16 18398.04,17586.37 18699.53,18115.12 18089.9,18110.12 14825.3,12384.77 "/>
   <polygon class="fil3" points="14597.57,12896.55 15558.7,14604.44 16271.71,15871.43 17531.36,18109.77 17829.87,18640.2 18139.01,18114.75 14906.71,12371.1 "/>
   <polygon class="fil4" points="22072.88,11280.91 23047.97,9580.96 23771.35,8319.86 25049.3,6091.91 25352.15,5563.95 25656.97,6091.92 22377.7,11808.88 "/>
   <polygon class="fil5" points="10296.23,18031.15 8336.48,18025.62 6882.65,18021.51 4314.21,18014.25 3705.56,18012.53 4010.38,18540.5 10601.05,18559.12 "/>
   <polygon class="fil6" points="17813.77,6111.22 15854.04,6100.69 14400.22,6092.88 11831.82,6079.08 11223.17,6075.81 11532.31,5550.35 18122.91,5585.76 "/>
   <path class="fil7" d="M8490.76 13693.08l1648.4 2842.33c138.33,-105.84 263.71,-223.28 390.52,-341.22l-164.79 -283.7 -259.95 -453.72 -8.73 -15.24 -779.4 -1360.88c-34.78,-60.73 -68.52,-122.71 -100.57,-186.15l-216.1 -377.2 -69.19 -120.76 0.38 0 -249.21 -423.95 -61.46 -107.3 -21.08 -36.81 -207.77 -362.73 -73.96 -128.11 -23.1 -40.01 -325.81 -564.32 -609.65 0 321.51 556.86 306.49 530.88 25.71 43.87 46.87 81.84 125.81 217.89 305.08 528.43z"/>
   <path class="fil8" d="M15972.8 10434.34l1671.64 -2828.72c137.46,106.98 261.87,225.44 387.71,344.41l-167.11 282.34 -263.66 451.57 -8.86 15.17 -790.52 1354.45c-35.27,60.44 -69.52,122.14 -102.09,185.32l-219.19 375.41 -70.18 120.19 0.38 0 -252.68 421.9 -62.33 106.79 -21.39 36.63 -210.73 361.02 -75.01 127.5 -23.43 39.81 -330.42 561.64 -609.63 -5 326.06 -554.21 310.84 -528.34 26.06 -43.66 47.55 -81.45 127.58 -216.86 309.41 -525.91z"/>
   <path class="fil9 str0" d="M11732.53 16599.36l1630.97 -2824.87c-160.83,-66.88 -324.9,-126.22 -490.44,-177.07l-157.24 270.21 -262.96 451.98 -8.83 15.18 -794.34 1375.81c-34.99,60.61 -72.01,120.69 -110.93,180.17l-218.61 375.74 -69.99 120.31 -0.19 -0.33 -237.08 407.39 -62.2 106.88 -21.33 36.66 -210.25 361.3 -73.97 128.1 -23.1 40.01 -325.81 564.32 304.82 527.97 321.5 -556.86 306.51 -530.87 -24.82 -44.22 49.96 0.03 47.44 -81.52 125.8 -217.9 305.09 -528.42z"/>
   <path class="fil9 str0" d="M19238.29 7554.74l1607.75 2838.14c-161.38,65.56 -325.92,123.56 -491.87,173.05l-155.02 -271.49 -259.25 -454.12 -8.71 -15.25 -783.03 -1382.28c-34.49,-60.9 -71.02,-121.28 -109.45,-181.07l-215.52 -377.53 -69 -120.87 -0.19 0.32 -233.73 -409.32 -61.32 -107.38 -21.04 -36.84 -207.28 -363 -72.92 -128.71 -22.76 -40.2 -321.18 -566.97 309.14 -525.46 316.93 559.48 302.14 533.36 -25.18 44.02 49.96 0.39 46.77 81.89 124.01 218.93 300.75 530.91z"/>
   <path class="fil10 str0" d="M11229.06 17471.39l72.32 -125.27 0.26 -0.44 112.33 -219.18 318.56 -527.14 1630.97 -2824.87c-160.83,-66.88 -324.9,-126.22 -490.44,-177.07l-157.24 270.2 -262.96 451.99 -8.83 15.18 -794.34 1375.81c-34.99,60.61 -72.01,120.69 -110.93,180.17l-218.61 375.74 -69.99 120.31 -0.19 -0.32 -237.08 407.38 -62.2 106.88 -21.33 36.66 -210.25 361.3 -73.97 128.1 -23.1 40.01 -325.81 564.32 304.82 527.97 321.5 -556.86 306.51 -530.87zm25.14 -44.19l47.44 -81.52 -47.44 81.52z"/>
   <path class="fil11 str0" d="M18741.98 6678.6l71.29 125.86 0.25 0.45 110.54 220.09 314.23 529.74 1607.75 2838.14c-161.38,65.56 -325.92,123.56 -491.87,173.05l-155.02 -271.49 -259.25 -454.12 -8.71 -15.25 -783.03 -1382.28c-34.49,-60.9 -71.01,-121.28 -109.45,-181.07l-215.52 -377.53 -69 -120.87 -0.19 0.32 -233.73 -409.32 -61.32 -107.38 -21.04 -36.84 -207.28 -363 -72.92 -128.71 -22.76 -40.2 -321.18 -566.97 309.14 -525.46 316.93 559.48 302.14 533.36zm24.78 44.41l46.76 81.9 -46.76 -81.9z"/>
   <path class="fil12 str0" d="M13290.52 12885.84c0.83,-0.62 81.5,0.67 0,0zm-1458.02 511.11l-3.15 -0.04c118.35,8.06 237.8,21.51 357.71,40.02 -57.76,-10.11 -204.02,-22.14 -354.56,-39.98zm552.54 6.02l-77.57 21.69 62.59 3.66 14.98 -25.35zm499.15 195.88l112.64 -191.19 -13.65 -0.15 -110.63 187.77c3.88,1.19 7.76,2.37 11.64,3.57z"/>
   <path class="fil12 str0" d="M20765.78 11280.9c0.83,0.63 81.5,0 0,0zm-1453.78 -523.04l-3.16 0.01c118.42,-7.09 237.98,-19.56 358.03,-37.08 -57.84,9.63 -204.19,20.47 -354.87,37.07zm552.57 -1.49l-77.39 -22.33 62.62 -3.14 14.77 25.47zm500.73 -191.79l111.07 192.11 -13.65 0.04 -109.08 -188.67c3.89,-1.15 7.78,-2.31 11.66,-3.48z"/>
   <path class="fil12 str0" d="M10949.79 16899.18c0.13,1.03 -40.76,70.58 0,0zm273.94 -1520.53l1.58 -2.73c-65.34,99.01 -135.93,196.32 -211.13,291.52 37.26,-45.28 119.82,-166.59 209.55,-288.79zm-277.58 477.79l19.35 -78.19 -34.03 52.67 14.68 25.52zm-416.47 337.75l110.83 192.25 6.87 -11.8 -108.86 -188.81c-2.94,2.79 -5.88,5.58 -8.84,8.36z"/>
   <path class="fil12 str0" d="M18458.03 7248.51c0.13,-1.03 -40.18,-70.91 0,0zm261.46 1522.72l1.56 2.74c-64.53,-99.54 -134.31,-197.42 -208.73,-293.24 36.89,45.59 118.45,167.58 207.17,290.5zm-273.65 -480.05l18.71 78.35 -33.6 -52.94 14.89 -25.41zm-413.69 -341.15l112.41 -191.33 6.77 11.85 -110.4 187.91c-2.92,-2.81 -5.84,-5.63 -8.78,-8.43z"/>
   <path class="fil13 str0" d="M12870.25 13596.55l-417.44 723.03 -8.83 15.18 -907.92 1560.13c-15.1,23.02 -30.49,45.95 -46.16,68.78l-173.08 299.8 -68.94 119.4 -236.51 409.63c-173.7,3.45 -322.26,-76.97 -421.65,-181.02 -127.69,-133.68 -174.27,-306.36 -88.81,-390.35l408.31 -425.68c6.87,-8.09 -2.71,2.82 1.11,-1.31 30.37,-35.74 60.1,-71.81 89.16,-108.2 25.21,-30.79 73.87,-95.66 158.33,-215.92 -248.48,342.65 -91.29,130.77 65.92,-91.38l13.39 -20.73c5.99,-9.18 11.93,-18.37 17.83,-27.59 31.27,-48.83 61.27,-98.08 89.91,-147.69l517.87 -896.96 477.63 -820.96 23.36 -40.16c2.73,-6.88 5.44,-13.78 8.13,-20.7l9.13 -15.81 605.1 4.3"/>
   <path class="fil13 str0" d="M20351.35 10566.77l-411.5 -726.42 -8.71 -15.25 -895.1 -1567.53c-14.91,-23.14 -30.11,-46.2 -45.58,-69.16l-170.63 -301.2 -67.96 -119.96 -233.14 -411.56c-173.66,-4.87 -322.87,74.33 -423.12,177.56 -128.78,132.63 -176.77,304.92 -92,389.61l404.8 429.01c6.8,8.14 -2.68,-2.84 1.1,1.31 30.08,35.99 59.51,72.31 88.27,108.94 24.96,30.99 73.08,96.26 156.55,217.21 -245.65,-344.68 -90.21,-131.52 65.17,91.92l13.22 20.83c5.91,9.23 11.78,18.47 17.61,27.73 30.86,49.1 60.46,98.59 88.69,148.43l510.5 901.18 470.88 824.84 23.04 40.36c2.67,6.9 5.32,13.82 7.95,20.76l9.01 15.89 605.11 0.65"/>
   <path class="fil14 str0" d="M10521.63 16178.65c131.17,-122.68 264.88,-258.47 379.91,-391.86 -115.03,133.39 -239.06,262 -370.23,384.68 -2.95,2.77 -5.91,5.54 -8.88,8.3l111.7 193.46c2.99,3.73 6,7.46 9.02,11.18l-4.11 -2.4 -117.41 -203.36z"/>
   <path class="fil14 str0" d="M18023.98 7965.51c130.16,123.75 262.75,260.63 376.69,394.96 -113.94,-134.33 -236.92,-263.95 -367.07,-387.71 -2.93,-2.79 -5.87,-5.58 -8.82,-8.37l113.29 -192.54c3.02,-3.7 6.06,-7.4 9.11,-11.1l-4.13 2.37 -119.07 202.39z"/>
   <path class="fil14 str0" d="M9471.72 12842.59c39.23,175.26 88.46,359.36 145.1,526.15 -56.64,-166.78 -104.59,-338.9 -143.82,-514.17 -0.89,-3.95 -1.77,-7.9 -2.65,-11.86l-223.38 -1.83c-4.74,0.69 -9.47,1.4 -14.21,2.11l4.15 -2.33 234.81 1.93z"/>
   <path class="fil14 str0" d="M16946.75 11292.84c40.67,-174.93 91.41,-358.62 149.41,-524.94 -58,166.32 -107.36,338.04 -148.03,512.97 -0.92,3.95 -1.84,7.89 -2.75,11.84l-223.39 0c-4.72,-0.73 -9.46,-1.47 -14.19,-2.23l4.14 2.37 234.81 -0.01z"/>
   <path class="fil14 str0" d="M12869.68 13597.8c-171.83,-52.25 -356.28,-100.16 -529.31,-133.09 173.03,32.93 346.42,76.04 518.26,128.29 3.87,1.18 7.75,2.36 11.62,3.55l111.7 -193.46c1.73,-4.46 3.45,-8.93 5.16,-13.41l-0.02 4.77 -117.41 203.35z"/>
   <path class="fil14 str0" d="M20350.79 10565.52c-172.25,50.84 -357.09,97.23 -530.39,128.74 173.3,-31.51 347.04,-73.2 519.3,-124.04 3.88,-1.14 7.77,-2.29 11.65,-3.45l110.11 194.38c1.69,4.47 3.38,8.95 5.05,13.44l0.02 -4.76 -115.74 -204.31z"/>
   <path class="fil14 str0" d="M10505.51 16175.06c132.17,-121.6 266.99,-256.29 383.11,-388.73 -116.12,132.44 -241.2,260.03 -373.37,381.64 -2.98,2.74 -5.96,5.48 -8.95,8.22l110.11 194.37c2.96,3.76 5.94,7.51 8.93,11.25l-4.09 -2.43 -115.74 -204.32z"/>
   <path class="fil14 str0" d="M18007.83 7968.96c131.16,122.68 264.87,258.47 379.91,391.86 -115.03,-133.39 -239.07,-262 -370.23,-384.69 -2.96,-2.76 -5.92,-5.53 -8.89,-8.29l111.7 -193.47c3,-3.72 6.01,-7.45 9.03,-11.17l-4.12 2.4 -117.4 203.36z"/>
   <path class="fil15" d="M12566.04 12341.56l-3400.8 -15.72c21.91,172.9 52.29,344.9 91.1,514l324.88 3.63 543.4 6.02 18.25 0.2 1650.95 13.01c72.73,0.58 146.02,3.17 219.74,7.72l451.74 5.01 144.64 1.6 -0.2 0.33 489.81 5.47 128.5 1.44 44.08 0.49 434.39 4.86 153.74 1.22 48.01 0.37 677.17 5.34 321.27 -525.46 -693.29 -30.33c-289.02,-2.28 -531.64,2.12 -762.82,-0.47l-261.47 -0.16 -623.09 1.43z"/>
   <path class="fil16" d="M20036.86 11819.23l-3400.81 -12.16c23.32,-172.72 55.11,-344.46 95.31,-513.24l324.89 -0.96 543.43 -1.57 18.26 -0.05 1651 0.52c72.73,0.02 146.04,-1.97 219.79,-5.92l451.77 -1.3 144.64 -0.42 -0.19 -0.32 489.85 -1.47 128.5 -0.38 44.08 -0.13 434.42 -1.3 153.74 0.05 48.01 0.01 677.19 0.22 316.96 528.07 -693.52 24.66c-289.03,-0.1 -531.6,-6.49 -762.8,-5.79l-261.46 -1.99 -623.06 -6.53z"/>
   <g>
    <path class="fil17" d="M12753.44 9682.38l1193.68 2067.52 -355.5 611.76 609.43 0.38 355.72 -612.14 -3287.26 -5693.7 -305.82 526.25 1497.5 2593.75c52.56,75.38 103.64,155.82 152.99,241.3 49.34,85.47 95.77,173.91 139.26,264.88z"/>
    <g>
     <path class="fil18" d="M8978.66 13522.28c0.95,2.49 112.57,199.55 173.09,299.8l1368.71 2370.67c131.16,-122.68 255.19,-251.29 370.23,-384.68l-472.16 -824.11 -517.86 -896.97c-28.64,-49.61 -56.3,-100.21 -82.97,-151.73 -308.53,-602.17 -157.26,-621.1 -799.99,-425.11 -104.48,-101.19 -99.71,-79.16 -112.55,-115.17l4.56 7.9 68.94 119.4c198.98,344.64 186.91,323.75 0,0zm3774.78 -3839.9c381.45,797.94 537,1790.61 454.84,2679.04l383.34 0.24 355.5 -611.76 -1193.68 -2067.52zm-3811.64 380.19l0.94 -2.4 -984.66 1694.42 325.81 564.32 23.1 40.01 0.3 -0.51 73.66 128.62 230.68 399.54 0 0 61.59 106.68c301.02,91.93 511.72,-5.02 755.41,-133.24 -38.52,-164.83 -69.34,-332.43 -92.4,-500.96 -1.25,-9.13 -2.47,-18.26 -3.67,-27.4 -126.97,-963.72 -0.2,-1954.97 393.85,-2633.05l346.46 -596.19c222.26,-382.48 501.95,-617.82 803.67,-710.44 523.55,-160.71 1113.43,108.34 1584.65,784.23l-1497.5 -2593.75 -1290.48 2220.71 -730.47 1257.01 0 0 0 0m492.29 2826.91l147.68 501.97c17.05,-2.65 -16.98,2.34 0,0 -57.49,-162.86 -106.74,-330.86 -147.68,-501.97zm153.32 517.84c114.83,303.24 65.31,176.03 0,0z"/>
     <path class="fil19" d="M10511.38 16199.36c2.79,-2.6 5.58,-5.21 8.36,-7.84 -2.78,2.62 -5.57,5.23 -8.36,7.84zm-0.5 0.48c0.17,-0.16 0.33,-0.32 0.5,-0.48 -0.17,0.16 -0.34,0.32 -0.5,0.48zm112.39 194.67c2.4,2.99 4.81,5.97 7.23,8.96 -2.41,-2.99 -4.83,-5.97 -7.23,-8.96zm254.25 -571.24c-108.47,124.52 -235.46,253.51 -357.78,368.25 123.3,-115.78 248.42,-242.82 357.78,-368.25zm1.18 -1.36c-0.39,0.46 -0.78,0.91 -1.18,1.35 0.39,-0.45 0.78,-0.9 1.18,-1.35zm11.99 -13.84c-1.49,1.73 -2.99,3.46 -4.49,5.2 -2.49,2.87 -5,5.75 -7.5,8.64 4.03,-4.62 8.02,-9.23 11.99,-13.84zm-1253.27 -2272c-16.96,-43.3 -33.32,-87.04 -49.07,-131.15 -0.2,-0.54 -0.39,-1.08 -0.58,-1.62l-4.14 -14.24 -0.04 -0.15 -0.03 -0.1 -145.7 -501.73 -3.44 -11.84 -4.42 -15.22 -6.73 -23.17c-30.01,-116 -202.84,-162 -382.45,-118.26 -67.84,16.52 -136.64,45.85 -199.08,89.05 -10.15,7.03 -20.06,14.39 -29.73,22.07 -9.07,7.2 -17.92,14.68 -26.54,22.44 -12.17,10.96 -23.87,22.47 -35.06,34.5 -29.64,31.91 -55.66,67.54 -77.19,106.6l231.95 401.73 4.55 7.9 11.61 20.11 57.33 99.29 173.09 299.8c11.94,24.98 24.1,49.77 36.49,74.36l897.16 1566.34 0.44 0.76 8.34 14.45 0.45 0.78 416.25 721.07 0.69 1.21 111.7 193.46 5.15 8.91 3.88 2.27c-0.6,-0.74 -1.2,-1.48 -1.8,-2.22l5.86 -9.97 300.42 -511.91 -9.12 -15.81c-4.65,-5.79 -9.28,-11.59 -13.87,-17.39l-23.1 -40.32 -472.16 -824.11 -517.86 -896.97c-28.64,-49.61 -56.3,-100.21 -82.95,-151.71 -5.04,-9.71 -10.03,-19.46 -14.98,-29.24 -0.03,-0.05 -0.07,-0.11 -0.09,-0.17l-0.04 -0.08 -0.11 -0.22 -11.03 -21.5c-0.02,-0.06 -0.05,-0.12 -0.07,-0.17 -0.5,-1.09 -0.99,-2.17 -1.5,-3.25 -0.27,-0.61 -0.55,-1.21 -0.83,-1.81 -0.82,-1.79 -1.64,-3.58 -2.46,-5.36 -55.58,-120.94 -108.1,-238.51 -126.03,-279.46 -0.01,-0.04 -0.03,-0.07 -0.04,-0.11 -6.06,-13.84 -8.14,-18.87 -5,-12.25 -2.69,-6.44 -5.09,-12.33 -7.16,-17.64 -0.52,-1.32 -1.01,-2.6 -1.49,-3.85 -0.04,-0.11 -0.08,-0.23 -0.12,-0.34 -0.23,-0.54 -0.44,-1.08 -0.66,-1.61 -3.09,-7.65 -5.73,-14.36 -7.95,-20.19 -0.23,-0.61 -0.46,-1.21 -0.68,-1.8 -0.03,-0.05 -0.04,-0.1 -0.06,-0.16z"/>
    </g>
   </g>
   <g>
    <path class="fil20" d="M20202.45 14479.85l1210.6 -2057.66 -350.48 -614.65 609.41 4.61 350.69 615.04 -3333.83 5666.56 -301.48 -528.74 1518.71 -2581.38c53.17,-74.96 104.91,-154.98 154.96,-240.04 50.04,-85.07 97.19,-173.12 141.42,-263.74z"/>
    <g>
     <path class="fil21" d="M16459.28 10609.13c0.97,-2.47 114.2,-198.61 175.54,-298.36l1388.1 -2359.38c130.15,123.76 253.13,253.38 367.07,387.71l-478.9 820.21 -525.2 892.69c-29.05,49.37 -57.12,99.75 -84.21,151.05 -313.46,599.62 -162.35,619.78 -803.45,418.53 -105.3,100.33 -100.36,78.35 -113.49,114.24l4.63 -7.85 69.91 -118.84c201.8,-342.99 189.56,-322.2 0,0zm3743.17 3870.72c387.99,-794.79 551.67,-1786.14 476.79,-2675.22l383.33 2.91 350.48 614.65 -1210.6 2057.66zm-3808.39 -411.42l0.92 2.4 -970.73 -1702.43 330.42 -561.63 23.43 -39.82 0.29 0.51 74.72 -128.01 233.94 -397.64 0.01 0 62.46 -106.16c301.76,-89.47 511.65,9.21 754.29,139.43 -39.87,164.5 -72.07,331.84 -96.5,500.18 -1.33,9.12 -2.63,18.24 -3.9,27.37 -134.87,962.64 -16.23,1954.9 372.25,2636.19l341.56 599.01c219.12,384.28 496.87,621.91 797.82,717 522.21,165 1114.28,-99.21 1591.03,-771.2l-1518.71 2581.38 -1272.24 -2231.21 -720.14 -1262.96 0 -0.01 0 0.01m515.45 -2822.78l151.79 -500.74c17.03,2.79 -16.96,-2.48 0,0 -58.83,162.38 -109.45,329.97 -151.79,500.74zm157.55 -516.56c117.32,-302.29 66.76,-175.49 0,0z"/>
     <path class="fil22" d="M18013.9 7944.71c2.76,2.62 5.53,5.26 8.3,7.91 -2.77,-2.64 -5.54,-5.28 -8.3,-7.91zm-0.5 -0.48c0.17,0.16 0.33,0.32 0.5,0.48 -0.17,-0.16 -0.34,-0.32 -0.5,-0.48zm113.98 -193.74c2.43,-2.97 4.86,-5.94 7.31,-8.9 -2.44,2.96 -4.88,5.93 -7.31,8.9zm249.56 573.3c-107.45,-125.41 -233.37,-255.43 -354.74,-371.17 122.34,116.79 246.42,244.85 354.74,371.17zm1.17 1.37c-0.38,-0.46 -0.78,-0.91 -1.17,-1.36 0.38,0.45 0.77,0.91 1.17,1.36zm11.88 13.94c-1.48,-1.74 -2.97,-3.49 -4.45,-5.23 -2.47,-2.9 -4.95,-5.8 -7.43,-8.71 3.99,4.65 7.95,9.3 11.88,13.94zm-1271.86 2261.64c-17.31,43.17 -34.03,86.77 -50.15,130.76 -0.19,0.53 -0.39,1.07 -0.59,1.61l-4.25 14.21 -0.04 0.14 -0.03 0.1 -149.81 500.52 -3.54 11.81 -4.54 15.18 -6.92 23.11c-30.96,115.76 -204.16,160.34 -383.41,115.13 -67.7,-17.08 -136.26,-46.97 -198.35,-90.68 -10.08,-7.11 -19.93,-14.55 -29.54,-22.31 -9.01,-7.28 -17.8,-14.83 -26.36,-22.66 -12.08,-11.06 -23.68,-22.66 -34.77,-34.79 -29.38,-32.15 -55.11,-67.99 -76.31,-107.22l235.23 -399.83 4.62 -7.85 11.77 -20.02 58.14 -98.81 175.54 -298.37c12.15,-24.89 24.51,-49.57 37.1,-74.06l909.97 -1558.94 0.44 -0.75 8.47 -14.39 0.45 -0.77 422.15 -717.63 0.7 -1.2 113.28 -192.54 5.22 -8.87 3.9 -2.24c-0.6,0.74 -1.21,1.47 -1.81,2.21l5.77 10.01 296.22 514.36 -9.26 15.74c-4.69,5.74 -9.36,11.5 -14,17.27l-23.43 40.13 -478.9 820.21 -525.2 892.69c-29.05,49.37 -57.12,99.75 -84.2,151.03 -5.11,9.67 -10.18,19.38 -15.21,29.11 -0.03,0.06 -0.07,0.12 -0.1,0.18l-0.04 0.07 -0.11 0.22 -11.19 21.42c-0.03,0.05 -0.06,0.11 -0.08,0.16 -0.51,1.08 -1.01,2.17 -1.53,3.24 -0.27,0.61 -0.56,1.21 -0.84,1.81 -0.84,1.78 -1.67,3.56 -2.51,5.33 -56.57,120.49 -110.05,237.62 -128.31,278.42 -0.02,0.04 -0.03,0.07 -0.05,0.11 -6.17,13.79 -8.29,18.8 -5.09,12.21 -2.75,6.41 -5.19,12.29 -7.31,17.58 -0.53,1.32 -1.03,2.59 -1.52,3.83 -0.04,0.12 -0.09,0.23 -0.13,0.35 -0.22,0.54 -0.45,1.07 -0.67,1.6 -3.15,7.63 -5.84,14.31 -8.11,20.12 -0.24,0.61 -0.47,1.21 -0.7,1.8 -0.02,0.05 -0.04,0.1 -0.06,0.15z"/>
    </g>
   </g>
   <g>
    <path class="fil23" d="M6103.98 14914.33l1193.69 -2067.51 707.56 2 -304.39 -527.97 -707.99 -2 -3287.29 5693.68 608.65 1.72 1497.52 -2593.74c39.01,-83.2 83.13,-167.66 132.48,-253.14 49.35,-85.46 102.73,-169.89 159.77,-253.04z"/>
    <g>
     <path class="fil24" d="M11316.82 16263.47c1.67,-2.07 116.53,-197.26 173.08,-299.8l1368.73 -2370.67c-171.83,-52.25 -345.23,-95.36 -518.26,-128.29l-477.63 820.96 -517.87 896.96c-28.64,49.61 -58.64,98.86 -89.93,147.71 -367.22,568.28 -459.25,446.75 31.85,905.37 -35.4,141.08 -18.71,125.94 -43.47,155.06l4.56 -7.9 68.94 -119.4c198.97,-344.64 186.91,-323.75 0,0zm-5212.84 -1349.14c500.32,-729.32 1282.22,-1360.35 2092.71,-1733.41l-191.46 -332.1 -707.56 -2 -1193.69 2067.51zm2235.05 3110.9l-2.54 0.38 1959.74 5.54 325.81 -564.32 23.1 -40.01 -0.59 0 74.56 -128.1 230.68 -399.54 -0.01 -0.01 61.59 -106.67c-70.89,-306.66 -260.2,-440.65 -493.09,-587.59 -123.48,115.77 -253.22,226.27 -387.65,330.5 -7.28,5.65 -14.57,11.27 -21.88,16.88 -771.12,591.81 -1692.97,977.64 -2477.23,975.43l-689.54 -1.96c-442.36,-1.24 -786.02,-125.79 -1017.09,-340.78 -400.95,-373.06 -462.89,-1018.44 -113.16,-1764.47l-1497.52 2593.74 2568.44 7.26 1453.83 4.11 0.01 -0.01 -0.01 0.01m2202.04 -1839.79l360.89 -378.87c-10.82,-13.44 10.51,13.53 0,0 -112.3,131.21 -233.17,257.87 -360.89,378.87zm371.81 -391.69c205.2,-251.06 119.79,-144.57 0,0z"/>
     <path class="fil25" d="M12868.89 13597.56c-3.65,-1.11 -7.31,-2.22 -10.97,-3.32 3.66,1.1 7.32,2.21 10.97,3.32zm0.66 0.2c-0.22,-0.07 -0.44,-0.13 -0.66,-0.2 0.22,0.07 0.44,0.13 0.66,0.2zm112.4 -194.67c1.39,-3.58 2.77,-7.15 4.14,-10.75 -1.38,3.59 -2.75,7.17 -4.14,10.75zm-621.84 65.42c162.08,31.69 337.28,77.16 497.81,125.73 -161.92,-48.89 -334.5,-93.73 -497.81,-125.73zm-1.76 -0.34c0.59,0.11 1.18,0.23 1.76,0.35 -0.58,-0.11 -1.17,-0.22 -1.76,-0.35zm-17.98 -3.46c2.24,0.43 4.49,0.86 6.74,1.29 3.74,0.72 7.48,1.45 11.24,2.17 -6.02,-1.17 -12.01,-2.32 -17.98,-3.46zm-1340.99 2221.36c-29.02,36.34 -58.72,72.38 -89.05,108.07 -0.37,0.44 -0.74,0.87 -1.11,1.31l-10.27 10.7 -0.1 0.12 -0.07 0.07 -361.67 377.05 -8.53 8.89 -10.97 11.44 -16.7 17.41c-85.46,83.99 -38.88,256.67 88.81,390.35 48.22,50.48 108.02,95.41 176.65,127.88 11.17,5.27 22.49,10.18 33.98,14.71 10.77,4.26 21.68,8.18 32.71,11.76 15.57,5.07 31.39,9.44 47.4,13.11 42.46,9.73 86.33,14.44 130.91,13.56l231.95 -401.74 4.56 -7.89 11.61 -20.11 57.32 -99.29 173.09 -299.8c15.67,-22.83 31.05,-45.76 46.16,-68.78l907.92 -1560.13 0.43 -0.76 8.35 -14.45 0.45 -0.78 416.34 -721.01 0.7 -1.21 111.7 -193.46 5.14 -8.92 0.02 -4.49c-0.33,0.89 -0.67,1.78 -1.02,2.66l-11.56 -0.08 -593.54 -4.22 -9.13 15.81c-2.69,6.91 -5.4,13.82 -8.13,20.7l-23.36 40.16 -477.63 820.96 -517.87 896.96c-28.64,49.61 -58.64,98.86 -89.91,147.69 -5.9,9.22 -11.84,18.41 -17.83,27.59 -0.04,0.06 -0.07,0.12 -0.11,0.17l-0.04 0.07 -0.14 0.21 -13.11 20.29c-0.04,0.05 -0.08,0.11 -0.11,0.15 -0.69,0.98 -1.38,1.95 -2.07,2.93 -0.39,0.54 -0.77,1.08 -1.15,1.62 -1.14,1.61 -2.27,3.21 -3.41,4.81 -76.95,108.61 -152.5,212.87 -179.01,248.88 -0.02,0.03 -0.04,0.06 -0.07,0.08 -8.95,12.17 -12.27,16.49 -8.11,10.46 -4.23,5.55 -8.13,10.57 -11.7,15.02 -0.88,1.11 -1.74,2.18 -2.59,3.21 -0.07,0.09 -0.15,0.19 -0.23,0.28 -0.36,0.47 -0.72,0.93 -1.07,1.38 -5.08,6.5 -9.57,12.14 -13.5,16.98 -0.42,0.5 -0.82,1 -1.22,1.49 -0.04,0.04 -0.07,0.08 -0.11,0.13z"/>
    </g>
   </g>
   <g>
    <path class="fil26" d="M13596.11 9193.57l1176.7 2077.22 707.55 3.8 -308.7 525.46 -707.98 -3.8 -3240.51 -5720.44 608.65 3.27 1476.2 2605.92c38.32,83.53 81.76,168.35 130.4,254.22 48.65,85.87 101.33,170.73 157.69,254.35z"/>
    <g>
     <path class="fil27" d="M18819.83 7887.21c1.66,2.08 114.91,198.21 170.63,301.2l1349.24 2381.81c-172.25,50.84 -346,92.53 -519.3,124.04l-470.88 -824.84 -510.5 -901.18c-28.23,-49.84 -57.83,-99.33 -88.71,-148.45 -362.55,-571.27 -455.57,-450.49 39.26,-905.07 -34.23,-141.36 -17.66,-126.09 -42.19,-155.41l4.49 7.94 67.96 119.96c196.15,346.26 184.26,325.27 0,0zm-5223.72 1306.36c494.32,733.39 1271.03,1370.82 2078.43,1750.51l-194.18 330.51 -707.55 -3.8 -1176.7 -2077.22zm2260.48 -3092.47l-2.54 -0.41 1959.72 10.53 321.18 566.97 22.76 40.2 -0.58 -0.01 73.5 128.72 227.4 401.41 -0.01 0.01 60.71 107.17c-73.4,306.07 -263.8,438.51 -497.89,583.53 -122.53,-116.78 -251.35,-228.33 -384.92,-333.67 -7.24,-5.71 -14.48,-11.39 -21.75,-17.06 -766.24,-598.11 -1684.89,-991.49 -2469.15,-995.7l-689.53 -3.7c-442.36,-2.38 -787.03,119.35 -1019.85,332.44 -404,369.75 -471.22,1014.6 -127.62,1763.47l-1476.2 -2605.92 2568.4 13.8 1453.82 7.81 0.01 0 -0.01 0m2186.89 1857.77l357.76 381.82c-10.93,13.36 10.63,-13.44 0,0 -111.21,-132.13 -231.04,-259.77 -357.76,-381.82zm368.58 394.72c203.14,252.74 118.61,145.56 0,0z"/>
     <path class="fil28" d="M20349.99 10565.75c-3.65,1.08 -7.32,2.16 -10.99,3.23 3.67,-1.07 7.34,-2.15 10.99,-3.23zm0.67 -0.19c-0.22,0.06 -0.44,0.13 -0.67,0.19 0.23,-0.06 0.45,-0.13 0.67,-0.19zm110.8 195.59c1.36,3.58 2.71,7.17 4.05,10.77 -1.34,-3.6 -2.69,-7.19 -4.05,-10.77zm-621.28 -70.53c162.33,-30.35 337.9,-74.39 498.82,-121.64 -162.32,47.56 -335.26,90.99 -498.82,121.64zm-1.76 0.33c0.58,-0.11 1.17,-0.22 1.76,-0.34 -0.59,0.11 -1.18,0.22 -1.76,0.34zm-18.02 3.31c2.25,-0.41 4.5,-0.82 6.76,-1.23 3.74,-0.69 7.49,-1.39 11.26,-2.08 -6.03,1.12 -12.03,2.23 -18.02,3.31zm-1322.73 -2232.27c-28.72,-36.58 -58.12,-72.86 -88.16,-108.81 -0.36,-0.44 -0.73,-0.87 -1.1,-1.31l-10.18 -10.79 -0.1 -0.11 -0.07 -0.08 -358.56 -380 -8.46 -8.96 -10.88 -11.52 -16.55 -17.55c-84.77,-84.69 -36.78,-256.98 92,-389.61 48.64,-50.09 108.81,-94.52 177.7,-126.43 11.2,-5.18 22.57,-9.99 34.09,-14.43 10.81,-4.17 21.75,-8 32.81,-11.5 15.61,-4.93 31.46,-9.18 47.51,-12.72 42.53,-9.37 86.44,-13.73 131.01,-12.48l228.65 403.63 4.49 7.93 11.45 20.2 56.51 99.76 170.63 301.2c15.47,22.96 30.67,46.02 45.58,69.16l895.1 1567.53 0.43 0.75 8.23 14.53 0.44 0.78 410.42 724.4 0.69 1.21 110.11 194.38 5.07 8.95 -0.02 4.49c-0.33,-0.89 -0.66,-1.78 -1,-2.67l-11.56 -0.01 -593.55 -0.64 -9 -15.89c-2.63,-6.94 -5.29,-13.86 -7.96,-20.76l-23.04 -40.36 -470.88 -824.84 -510.5 -901.18c-28.23,-49.84 -57.83,-99.33 -88.69,-148.43 -5.83,-9.26 -11.7,-18.5 -17.61,-27.73 -0.03,-0.05 -0.07,-0.11 -0.11,-0.17l-0.04 -0.07 -0.13 -0.2 -12.95 -20.41c-0.04,-0.05 -0.07,-0.1 -0.1,-0.15 -0.69,-0.98 -1.37,-1.96 -2.05,-2.94 -0.38,-0.54 -0.76,-1.09 -1.14,-1.64 -1.12,-1.61 -2.24,-3.22 -3.37,-4.83 -76.05,-109.24 -150.75,-214.12 -176.96,-250.34 -0.02,-0.03 -0.04,-0.06 -0.07,-0.09 -8.85,-12.24 -12.14,-16.58 -8.02,-10.51 -4.19,-5.59 -8.05,-10.64 -11.58,-15.12 -0.87,-1.12 -1.73,-2.2 -2.56,-3.24 -0.08,-0.09 -0.15,-0.19 -0.23,-0.28 -0.36,-0.47 -0.71,-0.93 -1.06,-1.38 -5.02,-6.55 -9.47,-12.22 -13.36,-17.09 -0.42,-0.51 -0.82,-1.01 -1.21,-1.5 -0.03,-0.05 -0.07,-0.09 -0.11,-0.13z"/>
    </g>
   </g>
   <path class="fil29" d="M13951.99 18080.45l-2387.28 -19.56 -347.01 -616.62 -309.35 525.08 347.22 617 6574.3 53.85 -298.51 -530.43 -2994.89 -24.53c-91.63,7.07 -186.86,10.3 -285.56,9.49 -98.69,-0.8 -198.45,-5.63 -298.92,-14.28zm-1739.47 -4639.52l0.19 0.04 1.93 0.3 0.22 0.04 1.9 0.31 0.1 0.01 -2 -0.32 -0.16 -0.02 -1.99 -0.32 -0.16 -0.03m6.33 1.02l0.29 0.05 1.83 0.29 0.17 0.03 -2 -0.32 -0.15 -0.03 -2.01 -0.32 1.87 0.3zm4.24 0.69l0.35 0.06 1.77 0.28 0.39 0.07 1.73 0.28 0.42 0.07 1.7 0.28 0.45 0.07m1.67 0.28l0.49 0.08 1.64 0.26 0.51 0.09 1.61 0.26 0.55 0.1 1.57 0.26 0.58 0.1 1.54 0.25 0.62 0.11 1.5 0.24 0.65 0.12 1.48 0.24 0.67 0.12 1.45 0.24 0.71 0.12 1.41 0.23 0.74 0.13 1.38 0.23 0.78 0.14 1.34 0.22 0.7 0.12 -2.04 -0.34 -0.12 -0.03 -2.04 -0.34 -0.11 -0.02 -2.04 -0.34 -0.12 -0.03 -0.59 -0.09m19.1 3.25l1 0.17 1.12 0.19 1.03 0.19 1.09 0.18 1.07 0.19 3.18 0.55 1.13 0.2 0.99 0.17 1.16 0.21 0.96 0.16 1.2 0.21 0.93 0.16 1.14 0.21 -2.07 -0.37 -0.08 -0.01 -1.12 -0.2m6.37 1.12l1.3 0.24 0.82 0.14 1.26 0.22 -2.08 -0.36 -0.08 -0.02 -2.08 -0.37 0.86 0.15zm4.25 0.76l1.36 0.24 0.76 0.13 1.4 0.26 0.72 0.12 1.36 0.25 -2.08 -0.37 -0.07 -0.02 -2.09 -0.37 -0.07 -0.01 -1.29 -0.23zm6.36 1.13l1.47 0.27 0.66 0.11 1.49 0.27 0.63 0.11 1.53 0.28 0.59 0.11 1.56 0.28 0.57 0.1 1.59 0.29 0.53 0.09 1.58 0.3 -2.11 -0.39 -0.05 -0.01 -2.11 -0.38 -0.05 -0.01 -1.51 -0.27m6.38 1.15l1.65 0.31 0.47 0.08 1.69 0.31 0.44 0.08 1.67 0.31 -2.11 -0.39 -0.05 -0.01 -1.64 -0.3m6.37 1.17l1.79 0.33 0.33 0.06 1.79 0.33 -2.12 -0.39 -0.04 -0.01 -1.75 -0.32zm4.25 0.78l1.85 0.34 0.27 0.06m2.13 0.39l1.91 0.35 0.21 0.04 1.95 0.37 0.18 0.03 1.97 0.37 0.15 0.03 2.01 0.38 0.11 0.01 2.05 0.39 0.07 0.01 2.09 0.4 0.04 0 2.1 0.4 -2.14 -0.4 -0.02 -0.01 -2.14 -0.4 -0.02 0 -2.14 -0.4 -0.02 -0.01 -1.99 -0.37m10.62 2l0.02 0.01 2.1 0.39 0.05 0.01 -2.15 -0.4 -0.01 -0.01 -0.01 0zm6.24 1.19l0.06 0.01 0.06 0.01 0.06 0.01 0.07 0.01c0.56,0.11 1.12,0.22 1.68,0.33l14.38 3.66 0.14 0.03c-2.54,6.44 -1.34,3.56 0.1,0.03l506.33 128.83 11.95 3.05 15.35 3.9 0.04 0.01 23.27 5.92 0.07 0.02c115.21,32.95 242.49,-92.68 295.87,-269.67l0.94 -3.14 0.14 -0.51 0.78 -2.64 0.29 -1.01 0.62 -2.15 0.42 -1.53 0.46 -1.64 0.57 -2.05 0.31 -1.13 0.69 -2.57 0.16 -0.62 0.82 -3.1 0.03 -0.1 0.82 -3.21 0.11 -0.42 0.7 -2.8 0.24 -0.94 0.14 -0.58 0.77 -3.18 0.42 -1.77 0.47 -1.99 0.29 -1.26 0.12 -0.52 0.62 -2.73 0.69 -3.07 0.05 -0.2 0.71 -3.28 0.06 -0.32 0.63 -2.96 0.17 -0.86 0.5 -2.43 0.28 -1.4 0.38 -1.9 0.38 -1.94 0.26 -1.37 0.47 -2.48 0.15 -0.84 0.55 -3.02 0.06 -0.3 0.59 -3.33 0.04 -0.24 0.53 -3.11 0.12 -0.78c1.08,-6.43 2.05,-12.91 2.92,-19.42l0.02 -0.14 0.43 -3.26 0.08 -0.68 0.34 -2.71 0.15 -1.24 0.26 -2.17 0.2 -1.79 0.18 -1.62 0.26 -2.35 0.11 -1.07 0.3 -2.91 0.05 -0.52 0.33 -3.43 0 -0.03 0.35 -3.99 0.25 -2.86 0.09 -1.14 0.18 -2.31 0.13 -1.7 0.12 -1.75 0.16 -2.27 0.08 -1.19 0.17 -2.84 0.04 -0.63 0.19 -3.4 0 -0.07 0.17 -3.47 0.03 -0.49 0.13 -2.99 0.04 -1.05 0 -0.12 0.13 -3.71 0.01 -0.23 0.06 -1.87 0.05 -2.18 0.04 -1.31 0.06 -2.76 0.01 -0.74 0.05 -3.32 0 -0.18 0.03 -3.51 0 -0.39 0.01 -3.12 0 -0.95 -0.01 -2.56 -0.01 -1.53 -0.03 -1.99 -0.03 -2.1 -0.02 -1.42 -0.06 -2.67 -0.02 -0.86 -0.08 -3.24 -0.02 -0.29 -0.01 -0.6 -0.12 -3.22 -0.12 -3.24 -0.04 -0.86c-0.18,-4.06 -0.4,-8.12 -0.67,-12.18l-0.01 -0.16 -0.06 -0.97 -0.22 -3.16 -0.03 -0.39 -0.05 -0.58 -0.04 -0.57 -0.04 -0.58 -0.05 -0.58 -0.04 -0.57 -0.05 -0.58 -0.02 -0.27 -0.03 -0.31 -0.05 -0.57 -0.04 -0.58 -0.06 -0.58 -0.04 -0.58 -0.05 -0.57 -0.26 -2.88 -0.05 -0.58c-0.81,-8.81 -1.83,-17.62 -3.04,-26.43 -1.6,-11.44 -3.55,-22.9 -5.88,-34.34 -3.24,-15.94 -7.21,-31.86 -11.95,-47.72 -10.55,-35.24 -24.89,-70.16 -43.5,-104.18l-0.86 -1.58 -0.14 -0.25 -0.88 -1.59 -0.13 -0.23 -0.9 -1.62 -0.12 -0.19 -0.92 -1.66 -0.1 -0.16 -0.96 -1.68 -0.08 -0.13 -0.97 -1.71 -0.07 -0.1 -1 -1.74 -0.04 -0.07 -1.03 -1.76 -0.03 -0.04 -1.06 -1.8 -463.87 -3.8 -9.12 -0.07 9.12 0.06c-15.71,-3.01 -21.1,-3.52 -32.33,-0.26l-0.01 0 -114.64 -0.94 -346.16 -2.83 57.67 0.47 1.79 0.01 -0.08 0 -1.67 -0.01 -0.04 0m78.33 586.95l-2.15 -0.41 2.07 0.4 0.07 0.01 0.01 0zm-15.12 -2.86l-2.13 -0.39 -0.02 -0.01 -1.93 -0.36m-4.55 -0.84l-2.13 -0.4 0.31 0.06m-21.93 -4l-2.09 -0.37 -0.07 -0.02 -2.09 -0.37 0.69 0.12m-18.02 -3.19l-2.07 -0.36 -0.09 -0.02 -4.22 -0.73 -0.09 -0.02m-4.32 -0.75l-6.01 -1.03 0.86 0.15 0.94 0.16 1.18 0.2 0.97 0.17 1.16 0.2 0.9 0.15zm-6.47 -1.11l-2.05 -0.34 1.25 0.2 0.8 0.14zm-2.16 -0.37l-2.04 -0.35 1.28 0.22 0.76 0.13zm-2.15 -0.36l-2.05 -0.35 1.31 0.22 0.74 0.13zm-12.94 -2.19l-2.03 -0.33 -0.13 -0.03 -0.49 -0.08m-14.61 -2.41l-2.01 -0.32 -0.14 -0.03 -2.01 -0.32 1.8 0.29m-414.98 -47.13l24.36 1.43c0.07,0.01 0.13,0.01 0.19,0.02 1.18,0.12 2.37,0.24 3.56,0.35 0.66,0.08 1.32,0.14 1.98,0.2 1.96,0.21 3.92,0.4 5.87,0.6l0.47 0.05c-21.98,-1.6 -44.73,-3.13 -68.49,-4.52l-0.51 -0.03 -0.49 -0.02 -0.02 0 -2.69 -0.15 -0.03 0 -2.69 -0.15 -0.02 0 -2.7 -0.14 -0.01 0 -2.7 -0.14 -0.02 0 -2.69 -0.13 -0.02 0 -2.7 -0.14 -0.01 0 -2.7 -0.14 -0.01 0 -2.7 -0.13 -0.01 0 -2.7 -0.13 -0.01 0 -2.7 -0.13 -0.01 0 -2.7 -0.13 -0.02 0 -2.69 -0.12 -0.02 0 -2.69 -0.12 -0.01 0 -2.7 -0.12 -0.01 0 -2.7 -0.12 -0.01 0 -2.7 -0.12 -0.01 0 -2.7 -0.12 -0.01 0 -2.69 -0.11 -0.02 0 -2.69 -0.11 -0.01 0 -2.7 -0.11 -0.01 0 -2.7 -0.11 0 0 -2.7 -0.1 -0.01 0 -2.7 -0.1 0 0 -2.7 -0.11 -0.01 0 -2.7 -0.1 -2.7 -0.1 -2.7 -0.09 -0.01 0 -2.7 -0.1 0 0 -2.7 -0.09 -0.01 0 -2.7 -0.09 -2.69 -0.09 -0.01 0 -2.7 -0.08 -2.7 -0.09 0 0 -2.7 -0.08 0 0 -2.7 -0.08 -2.7 -0.08 -2.7 -0.07 -2.69 -0.08 -2.7 -0.07 -2.7 -0.07 -2.69 -0.07 -0.01 0 -2.69 -0.07 -2.7 -0.06 -2.69 -0.06 -2.7 -0.06 0 0 -2.69 -0.06 -2.7 -0.06 -2.69 -0.05 -2.69 -0.05 -2.7 -0.05 -2.69 -0.05 -2.69 -0.05 -2.69 -0.05 -2.69 -0.04 -2.69 -0.04 -2.69 -0.04 -2.69 -0.04 -2.69 -0.03 -2.69 -0.03 -2.68 -0.03 -2.69 -0.03 -2.69 -0.03 -2.68 -0.02 -2.69 -0.03 -1035.69 -8.49 -959.32 -10.46 0 0c-1.28,0.09 -2.23,-0.01 -2.43,-0.61 -54.42,-161.26 -110.71,-326.04 -148.98,-495.41 -0.7,-3.13 0.37,-6.01 3.03,-8.67 -1.83,-7.91 -3.63,-15.8 -5.39,-23.67l107.18 1.41c207.83,-17.01 658.97,6.42 743.67,7.28l0.9 0.01 17.56 0.2 1804.97 20.99c27.47,1.8 55.01,3.88 82.6,6.26 117.09,-1.33 343.53,2.39 346.15,2.83l-49.46 -0.4 -1.23 -0.01 -12.03 -0.1 -12.35 -0.1 24.38 0.2m-341.4 553.89l-2.79 -0.24 1.32 0.18 0.12 0.01 0.21 0.03 0.11 0.02 0.22 0.03 0.1 0.01 1.52 0.21 0.07 0.01 0.25 0.04 0.06 0 0.94 0.14 0.28 0.04 0.03 0 0.29 0.04 0.03 0 0.28 0.05 0.02 0 0.62 0.08 0 0.01 0.3 0.04 0.31 0.04 0.01 0 0.29 0.04 0.02 0.01 0.28 0.04 0.03 0.01 0.58 0.08 0.04 0 0.26 0.04 0.04 0.01 0.26 0.03 0.05 0.01 0.25 0.04 0.05 0.01 0.25 0.03 0.06 0.01 0.23 0.03 0.08 0.01 0.22 0.04 0.08 0.01 0.22 0.03 0.08 0.01 0.21 0.03 0.09 0.02 0.21 0.02 0.09 0.02 0.2 0.03 0.1 0.02 0.19 0.02 0.11 0.02 0.17 0.03 0.12 0.01 0.18 0.03 0.12 0.02 0.17 0.02 0.12 0.02 0.16 0.03 0.13 0.01 0.16 0.03 0.14 0.02 0.14 0.02 0.15 0.03 0.14 0.01 0.15 0.03 0.13 0.02 0.16 0.02 0.13 0.02 0.16 0.03 0.12 0.01 0.17 0.03 0.11 0.01 0.17 0.03 0.11 0.02 0.18 0.03 0.1 0.01 0.19 0.03 0.08 0.02 0.2 0.02 0.08 0.02 0.2 0.03 0.08 0.01 0.2 0.03 0.07 0.01 0.21 0.04 0.06 0.01 0.22 0.03 0.06 0.01 0.22 0.03 0.05 0.01 0.23 0.04 0.04 0 0.24 0.04 0.03 0 0.24 0.04 0.03 0.01 0.25 0.04 0.02 0 0.25 0.04 0.02 0.01 0.25 0.04 0.01 0 0.26 0.04 0.01 0 0.26 0.04 0.06 0.01 0.07 0.01 0.07 0.02 0 0c27.94,4.89 80.86,14.05 166.71,28.77l0.09 0.02 0.09 0.02 0.12 0.02 0.12 0.02m133.17 -585.57l-17.08 -0.14 -32.07 -0.26 4.9 0.04 -14.64 -0.12 -10.39 -0.09 -21.99 -0.18 16.28 0.13 -17.21 -0.14m75.12 0.62l-10.62 -0.09 27.7 0.23m-69.28 -0.57l-5.71 -0.05m-56.51 -0.46l-3.93 -0.03 -7.29 -0.06 -5.2 -0.05 -12.21 -0.09 -30.54 -0.25 -5.62 -0.05 -0.8 -0.01 -2.93 -0.02 -11.6 -0.1m-2721.66 -34.13c-30.74,2.91 -55.33,6.82 -71.4,11.99 -1.56,-1.14 -2.5,-1.58 -2.31,-0.76 -0.19,-0.82 0.75,-0.38 2.31,0.76 -0.71,0.23 -1.31,0.47 -1.98,0.7l-0.33 -1.46 0.33 1.46c-2.74,0.94 -5.19,1.93 -7.38,2.96 -2.95,-13.27 -2.4,-19.54 2.98,-16.29l1.4 0.01 76.38 0.63zm2884.13 35.47l-20.13 -0.17m-62.22 -0.51l-16.42 -0.14m-48.37 -0.39l-7.8 -0.06 -3.11 -0.03m1677.78 5202.93c-881.17,-75.85 -1815.62,-445.14 -2539.71,-966.46l-194.58 330.28 347.01 616.62 2387.28 19.56zm1605.12 -3478.04l1.58 2.02 -961.12 -1707.87 -651.6 -5.34 -46.19 -0.38 0.28 0.51 -148.21 -1.73 -461.34 -3.78 0 0.01 -123.17 -1.01m-245.61 725.75c153.92,48.75 306.4,104.76 456.03,167.29 8.51,3.55 17,7.12 25.48,10.72 895.01,379.25 1685.09,991.16 2069.72,1674.63l338.17 600.92c216.95,385.51 277.97,745.91 204.8,1052.93 -126.97,532.75 -657.98,904.73 -1479.46,968.16l2994.89 24.54 -1259.65 -2238.35 -713.01 -1267 -0.01 0 0.01 0m-3210.21 -1139.6l-0.07 -0.01 -0.06 -0.01 -0.06 -0.01 0.06 0.01 0.06 0.01 0.07 0.01zm-0.25 -0.04l-0.06 -0.01 0.06 0.01 -0.06 -0.01 -0.06 -0.01 -0.06 -0.02 -0.06 -0.01 -0.1 -0.01 -0.09 -0.02 -0.08 -0.02 -0.09 -0.02 -0.1 -0.01 -0.09 -0.02 -0.09 -0.02 -0.09 -0.01 -0.09 -0.02 -0.09 -0.02 -0.09 -0.02 -0.1 -0.01 -0.09 -0.03 -0.09 -0.01 -0.09 -0.02 -0.09 -0.02 -0.08 -0.01 -0.07 -0.02 -0.06 -0.01 0 0m-2874.58 -621.7c0.05,0.23 0.1,0.45 0.15,0.69 -0.05,-0.24 -0.1,-0.47 -0.15,-0.69zm2745.11 598.91l0.15 0.03m4.16 0.67l0.15 0.03m4.16 0.67l0.15 0.03m5.97 0.98l0.35 0.05 0.14 0.03m1.64 0.26l0.38 0.07 0.13 0.02m3.73 0.62l0.45 0.07 0.13 0.03m4.19 0.69l0.12 0.03m1.48 0.24l0.55 0.09 0.12 0.03m8.51 1.43l0.11 0.02m2.05 0.35l0.11 0.01m10.67 1.83l0.1 0.02m10.69 1.86l0.08 0.02m4.23 0.74l0.09 0.02 2.08 0.36 0.07 0.01m10.71 1.91l0.07 0.01m4.25 0.76l0.06 0.01m0.63 0.11l1.47 0.27 0.06 0.01m6.97 1.26l1.6 0.29 0.05 0.02m10.75 1.97l0.03 0m2.13 0.4l0.03 0m2.4 0.45l1.88 0.35 0.03 0m4.29 0.8l0.02 0.01m12.94 2.44l0.01 0m20.52 4.84l0.09 0.03m-556.65 -73.36l0.24 0.02 24.12 1.41m11.6 1.17c132.42,13.43 260.38,27.77 304.77,33.09 0.04,0 0.08,0 0.11,0.01l0.7 0.09 0.01 0 0.67 0.08 0.03 0.01 0.64 0.07 0.04 0.01 0.61 0.07 0.06 0.01 0.58 0.06 0.07 0.02 0.55 0.06 0.08 0.01 0.54 0.06 0.08 0.01 0.51 0.07 0.1 0.01 0.48 0.06 0.11 0.01 0.46 0.06 0.11 0.01 0.44 0.05 0.12 0.02 0.42 0.05 0.13 0.02 0.39 0.04 0.14 0.03 0.37 0.04 0.14 0.02 0.35 0.04 0.15 0.02 0.32 0.04 0.16 0.02 0.3 0.04 0.16 0.02 0.29 0.03 0.17 0.02 0.26 0.04 0.17 0.02 0.25 0.03 0.17 0.02 0.23 0.03 0.17 0.03 0.21 0.02 0.18 0.03 0.19 0.02 0.17 0.02 0.18 0.03 0.18 0.02 0.16 0.02 0.17 0.02 0.15 0.02 0.17 0.02 0.14 0.02 0.29 0.04 0.16 0.02 0.11 0.02 0.16 0.02 0.09 0.02 0.16 0.02 0.09 0.01 0.15 0.02 0.07 0.01 0.15 0.02 0.06 0.01 0.14 0.02 0.05 0.01 0.13 0.02 0.05 0.01 0.12 0.02 0.03 0 0.12 0.02 0.03 0.01 0.1 0.01 0.02 0.01 0.09 0.01 0.02 0.01 0.08 0.01 0.01 0 0.07 0.01 0.01 0.01 0.05 0.01 0.01 0 0.04 0.01 0.03 0.03 -0.03 0 -0.01 0 -0.18 0 -0.1 0 0 0 -0.12 0 0 -0.01 -0.13 0 -0.01 -0.01 -0.14 0 -0.02 -0.01 -0.15 0 -0.02 -0.01"/>
   <path class="fil30" d="M21469.81 6091.9l-2387.36 -0.02 -352.05 613.76 -305.04 -527.6 352.27 -614.13 6574.52 0.04 -302.85 527.96 -2994.99 -0.01c-91.57,-7.83 -186.77,-11.84 -285.47,-11.84 -98.69,0 -198.5,4.01 -299.03,11.84zm-1777.45 4625.09l0.2 -0.03 1.93 -0.29 0.22 -0.04 1.9 -0.29 0.1 -0.01 -2 0.3 -0.16 0.03 -1.99 0.3 -0.16 0.03m6.33 -0.97l0.29 -0.05 1.84 -0.28 0.17 -0.03 -2.01 0.31 -0.15 0.03 -2 0.3 1.86 -0.28zm4.25 -0.65l0.35 -0.06 1.77 -0.27 0.39 -0.07 1.74 -0.26 0.42 -0.07 1.7 -0.26 0.45 -0.07m1.68 -0.26l0.48 -0.08 1.64 -0.26 0.51 -0.08 1.61 -0.25 0.55 -0.09 1.58 -0.24 0.58 -0.1 1.54 -0.24 0.62 -0.1 1.5 -0.23 0.66 -0.11 1.47 -0.24 0.68 -0.1 1.45 -0.23 0.71 -0.12 1.41 -0.22 0.75 -0.12 1.38 -0.22 0.77 -0.13 1.35 -0.22 0.7 -0.11 -2.05 0.33 -0.11 0.02 -2.04 0.33 -0.12 0.02 -2.04 0.32 -0.12 0.03 -0.59 0.09m19.12 -3.1l1.01 -0.16 1.12 -0.19 1.03 -0.17 1.09 -0.18 1.07 -0.18 3.19 -0.52 1.13 -0.19 0.99 -0.16 1.17 -0.2 0.95 -0.16 1.21 -0.2 0.92 -0.15 1.15 -0.2 -2.07 0.35 -0.08 0.02 -1.13 0.18m6.38 -1.07l1.3 -0.22 0.83 -0.13 1.26 -0.22 -2.09 0.35 -0.07 0.02 -2.09 0.35 0.86 -0.15zm4.25 -0.71l1.37 -0.24 0.76 -0.12 1.4 -0.24 0.73 -0.12 1.36 -0.24 -2.09 0.36 -0.07 0.01 -2.09 0.35 -0.07 0.02 -1.3 0.22zm6.38 -1.08l1.47 -0.26 0.66 -0.11 1.5 -0.26 0.63 -0.11 1.53 -0.26 0.59 -0.1 1.56 -0.27 0.57 -0.1 1.59 -0.28 0.53 -0.08 1.58 -0.28 -2.11 0.36 -0.05 0.02 -2.11 0.36 -0.05 0.01 -1.51 0.26m6.38 -1.1l1.66 -0.29 0.47 -0.09 1.69 -0.29 0.44 -0.08 1.68 -0.29 -2.12 0.37 -0.04 0.01 -1.65 0.28m6.38 -1.11l1.79 -0.32 0.34 -0.05 1.78 -0.32 -2.12 0.37 -0.04 0.01 -1.75 0.31zm4.26 -0.75l1.85 -0.33 0.27 -0.04m2.13 -0.38l1.92 -0.34 0.2 -0.04 1.96 -0.35 0.17 -0.03 1.99 -0.35 0.14 -0.03 2.01 -0.36 0.12 -0.02 2.05 -0.37 0.07 -0.01 2.09 -0.38 0.04 0 2.1 -0.38 -2.14 0.38 -0.02 0.01 -2.14 0.38 -0.02 0.01 -2.15 0.38 -0.01 0.01 -2 0.35m10.64 -1.91l0.01 -0.01 2.11 -0.38 0.05 -0.01 -2.16 0.39 0 0.01 -0.01 0zm6.24 -1.14l0.07 -0.01 0.06 -0.01 0.06 -0.01 0.07 -0.01c0.56,-0.11 1.12,-0.21 1.68,-0.32l14.41 -3.54 0.14 -0.03c-2.49,-6.45 -1.31,-3.57 0.1,-0.02l507.37 -124.68 11.97 -2.95 15.39 -3.78 0.04 -0.01 23.31 -5.73 0.08 -0.02c115.47,-32 241.72,94.67 293.64,272.09l0.91 3.15 0.15 0.51 0.75 2.64 0.29 1.02 0.59 2.15 0.42 1.54 0.44 1.64 0.55 2.06 0.3 1.13 0.68 2.58 0.15 0.62 0.79 3.1 0.03 0.1 0.8 3.22 0.1 0.42 0.68 2.8 0.23 0.95 0.14 0.58 0.74 3.18 0.41 1.78 0.45 2 0.28 1.25 0.12 0.52 0.6 2.74 0.66 3.07 0.04 0.21 0.68 3.28 0.07 0.32 0.6 2.96 0.17 0.87 0.48 2.43 0.26 1.41 0.37 1.9 0.36 1.94 0.25 1.37 0.45 2.49 0.14 0.84 0.53 3.02 0.05 0.3 0.56 3.34 0.04 0.24 0.51 3.11 0.12 0.78c1.02,6.44 1.94,12.92 2.75,19.45l0.02 0.14 0.4 3.26 0.08 0.68 0.32 2.72 0.14 1.23 0.24 2.18 0.19 1.79 0.17 1.62 0.23 2.35 0.1 1.08 0.28 2.9 0.05 0.52 0.3 3.44 0 0.03 0.32 3.99 0.22 2.86 0.08 1.15 0.16 2.3 0.11 1.71 0.12 1.75 0.13 2.27 0.07 1.19 0.15 2.84 0.04 0.63 0.16 3.4 0 0.07 0.14 3.47 0.02 0.5 0.11 2.99 0.03 1.05 0.01 0.11 0.1 3.71 0 0.23 0.04 1.87 0.04 2.19 0.03 1.31 0.03 2.75 0.01 0.75 0.02 3.32 0 0.18 0 3.51 0 0.38 -0.02 3.13 -0.01 0.95 -0.03 2.56 -0.02 1.53 -0.04 1.99 -0.05 2.09 -0.03 1.43 -0.08 2.67 -0.03 0.85 -0.11 3.25 -0.02 0.28 -0.02 0.6 -0.14 3.22 -0.15 3.25 -0.05 0.85c-0.21,4.06 -0.47,8.12 -0.76,12.18l-0.02 0.16 -0.07 0.96 -0.25 3.16 -0.03 0.39 -0.05 0.58 -0.04 0.58 -0.05 0.57 -0.05 0.58 -0.05 0.57 -0.05 0.58 -0.02 0.27 -0.03 0.31 -0.06 0.57 -0.05 0.58 -0.06 0.58 -0.05 0.57 -0.05 0.58 -0.28 2.87 -0.06 0.58c-0.89,8.8 -1.98,17.61 -3.26,26.41 -1.69,11.43 -3.74,22.87 -6.16,34.29 -3.37,15.92 -7.47,31.8 -12.34,47.62 -10.83,35.16 -25.46,69.95 -44.36,103.82l-0.87 1.57 -0.14 0.25 -0.89 1.59 -0.13 0.22 -0.92 1.62 -0.11 0.19 -0.94 1.64 -0.1 0.17 -0.97 1.67 -0.08 0.13 -0.99 1.7 -0.07 0.1 -1.01 1.73 -0.05 0.07 -1.04 1.76 -0.03 0.03 -1.07 1.79 -463.89 0 -9.12 0 9.12 0.01c-15.74,2.88 -21.13,3.35 -32.33,-0.01l-0.01 0 -114.65 0 -346.17 0 57.68 0 1.78 0 -0.08 0 -1.66 0 -0.04 0m83.13 -586.29l-2.15 0.39 2.07 -0.37 0.08 -0.01 0 -0.01zm-15.14 2.73l-2.13 0.38 -0.03 0.01 -1.93 0.34m-4.55 0.81l-2.13 0.38 0.31 -0.06m-21.97 3.82l-2.09 0.36 -0.06 0.02 -2.1 0.35 0.69 -0.11m-18.05 3.04l-2.07 0.34 -0.09 0.02 -4.23 0.69 -0.09 0.02m-4.32 0.71l-6.02 0.98 0.86 -0.13 0.94 -0.16 1.18 -0.19 0.98 -0.16 1.15 -0.19 0.91 -0.15zm-6.48 1.06l-2.05 0.33 1.25 -0.19 0.8 -0.14zm-2.16 0.35l-2.05 0.34 1.28 -0.21 0.77 -0.13zm-2.16 0.35l-2.05 0.33 1.31 -0.21 0.74 -0.12zm-12.96 2.08l-2.03 0.32 -0.13 0.02 -0.49 0.08m-14.63 2.29l-2.01 0.31 -0.14 0.02 -2.01 0.31 1.8 -0.27m-415.36 43.72l24.38 -1.23c0.06,-0.01 0.13,-0.01 0.18,-0.02 1.19,-0.11 2.38,-0.22 3.57,-0.32 0.66,-0.07 1.33,-0.13 1.98,-0.19 1.97,-0.19 3.92,-0.37 5.87,-0.55l0.48 -0.04c-21.99,1.42 -44.76,2.76 -68.53,3.95l-0.5 0.03 -0.5 0.02 -0.02 0 -2.69 0.13 -0.03 0 -2.69 0.12 -0.02 0 -2.7 0.12 -0.01 0 -2.7 0.11 -0.02 0 -2.69 0.12 -0.02 0 -2.7 0.11 -0.02 0 -2.69 0.12 -0.02 0 -2.69 0.11 -0.02 0 -2.7 0.11 -0.01 0 -2.7 0.1 -0.01 0 -2.7 0.11 -0.02 0 -2.69 0.1 -0.02 0 -2.69 0.1 -0.01 0 -2.7 0.1 -0.01 0 -2.7 0.1 -0.01 0 -2.7 0.1 -0.02 0 -2.69 0.09 -0.01 0 -2.7 0.08 -0.01 0 -2.7 0.1 -0.01 0 -2.7 0.08 -0.01 0 -2.7 0.09 0 0 -2.7 0.08 -0.01 0 -2.7 0.08 0 0 -2.7 0.08 -0.01 0 -2.7 0.08 -2.71 0.08 -2.7 0.07 0 0 -2.7 0.07 -0.01 0 -2.69 0.07 -0.01 0 -2.7 0.07 -2.7 0.06 0 0 -2.7 0.07 -2.7 0.06 -0.01 0 -2.69 0.06 -0.01 0 -2.7 0.06 -2.69 0.05 -2.7 0.06 -2.7 0.05 -2.7 0.05 -2.7 0.05 -2.69 0.04 -0.01 0 -2.69 0.05 -2.7 0.04 -2.69 0.04 -2.7 0.04 0 0 -2.7 0.04 -2.69 0.03 -2.69 0.03 -2.7 0.03 -2.69 0.03 -2.69 0.03 -2.69 0.02 -2.69 0.03 -2.69 0.02 -2.7 0.01 -2.69 0.02 -2.68 0.02 -2.7 0.01 -2.68 0.01 -2.69 0.01 -2.69 0.01 -2.68 0 -2.69 0.01 -2.68 0 -1035.73 -0.01 -959.38 2.6 0 0.01c-1.28,-0.11 -2.22,-0.01 -2.43,0.58 -55.74,160.81 -113.38,325.12 -153.03,494.18 -0.73,3.12 0.32,6.01 2.96,8.69 -1.9,7.89 -3.77,15.77 -5.59,23.63l107.19 -0.53c207.68,18.71 658.99,-1.02 743.71,-1.19l0.89 0 17.57 -0.06 1805.07 -6.19c27.49,-1.57 55.04,-3.43 82.65,-5.58 117.07,2.29 343.55,0.42 346.17,0l-49.47 0 -1.23 0 -12.03 0 -12.34 0 24.37 0m-336.85 -556.67l-2.79 0.22 1.33 -0.17 0.12 -0.01 0.21 -0.03 0.11 -0.01 0.21 -0.04 0.11 -0.01 1.52 -0.2 0.07 0 0.25 -0.04 0.06 0 0.94 -0.13 0.28 -0.04 0.03 0 0.29 -0.04 0.02 0 0.29 -0.04 0.02 0 0.62 -0.08 0 -0.01 0.31 -0.04 0.3 -0.03 0.01 -0.01 0.29 -0.04 0.02 0 0.29 -0.04 0.02 -0.01 0.58 -0.07 0.04 -0.01 0.27 -0.03 0.04 -0.01 0.25 -0.03 0.05 -0.01 0.25 -0.03 0.06 -0.02 0.24 -0.02 0.07 -0.01 0.23 -0.04 0.07 -0.01 0.22 -0.03 0.08 -0.01 0.22 -0.03 0.08 -0.01 0.21 -0.03 0.09 -0.01 0.21 -0.03 0.09 -0.01 0.2 -0.03 0.11 -0.02 0.18 -0.02 0.11 -0.01 0.18 -0.03 0.12 -0.02 0.17 -0.03 0.12 -0.01 0.17 -0.02 0.13 -0.02 0.16 -0.03 0.13 -0.01 0.16 -0.02 0.13 -0.03 0.15 -0.02 0.15 -0.02 0.14 -0.01 0.15 -0.03 0.13 -0.02 0.16 -0.02 0.13 -0.02 0.16 -0.02 0.12 -0.02 0.17 -0.02 0.11 -0.02 0.17 -0.02 0.11 -0.02 0.18 -0.03 0.1 -0.01 0.19 -0.03 0.08 -0.01 0.2 -0.03 0.08 -0.01 0.2 -0.03 0.08 -0.01 0.2 -0.03 0.07 -0.01 0.21 -0.03 0.07 -0.01 0.21 -0.03 0.06 -0.01 0.23 -0.03 0.04 -0.02 0.23 -0.03 0.05 0 0.23 -0.04 0.03 0 0.25 -0.04 0.02 0 0.25 -0.04 0.02 0 0.25 -0.04 0.02 -0.01 0.25 -0.03 0.02 0 0.26 -0.04 0 -0.01 0.27 -0.04 0.06 -0.01 0.07 -0.01 0.06 -0.01 0.01 0c27.97,-4.67 80.97,-13.39 166.94,-27.41l0.09 -0.02 0.09 -0.01 0.12 -0.02 0.12 -0.02m128.37 586.64l-17.09 0 -32.07 0 4.9 0 -14.64 0 -10.39 0 -22 0 16.29 0 -17.21 0m75.12 0l-10.62 0 27.71 0m-69.29 0l-5.71 0m-56.51 0l-3.93 0 -7.29 0 -5.2 0 -12.22 0 -30.53 0 -5.62 0 -0.8 0 -2.93 0 -11.61 0m-2721.85 11.82c-30.71,-3.16 -55.27,-7.27 -71.29,-12.57 -1.58,1.13 -2.51,1.55 -2.32,0.74 -0.19,0.81 0.74,0.39 2.31,-0.74 -0.7,-0.23 -1.3,-0.48 -1.97,-0.72l-0.34 1.46 0.34 -1.46c-2.73,-0.96 -5.17,-1.97 -7.35,-3.02 -3.06,13.25 -2.57,19.52 2.85,16.32l1.4 -0.01 76.37 0zm2884.33 -11.82l-20.13 0m-62.22 0l-16.42 0m-48.37 0l-7.81 0 -3.11 0m1720.38 -5188.99c-881.76,68.61 -1819.21,430.23 -2547.54,945.6l-191.87 -331.86 352.05 -613.76 2387.36 0.02zm1576.55 3491.07l1.61 -2.01 -975.09 1699.94 -651.63 0 -46.19 0 0.29 -0.51 -148.22 0.51 -461.36 0 0 0 -123.17 -0.01m-239.66 -727.74c154.32,-47.48 307.25,-102.24 457.39,-163.54 8.54,-3.48 17.05,-6.98 25.57,-10.51 898.09,-371.9 1693.15,-977.31 2083.37,-1657.6l343.09 -598.14c220.1,-383.72 284.07,-743.61 213.43,-1051.21 -122.6,-533.77 -650.54,-910.1 -1471.48,-980.25l2994.99 0.01 -1277.96 2227.94 -723.37 1261.11 0 0 0 0m-3219.44 1113.25l-0.07 0.01 -0.06 0.01 -0.06 0.01 0.06 -0.01 0.06 -0.01 0.07 -0.01zm-0.26 0.04l-0.05 0.01 0.05 -0.01 -0.05 0.01 -0.07 0.01 -0.05 0.01 -0.07 0.01 -0.09 0.02 -0.09 0.02 -0.09 0.01 -0.09 0.02 -0.09 0.02 -0.09 0.01 -0.09 0.02 -0.09 0.01 -0.1 0.02 -0.09 0.02 -0.09 0.01 -0.09 0.02 -0.09 0.02 -0.09 0.02 -0.1 0.02 -0.09 0.01 -0.07 0.01 -0.08 0.02 -0.05 0.01 -0.01 0m-2879.57 598.11c0.04,-0.23 0.1,-0.44 0.15,-0.68 -0.05,0.24 -0.11,0.46 -0.15,0.68zm2749.92 -576.38l0.16 -0.03m4.16 -0.64l0.15 -0.02m4.16 -0.64l0.15 -0.03m5.99 -0.92l0.34 -0.06 0.14 -0.02m1.64 -0.26l0.38 -0.06 0.13 -0.02m3.74 -0.58l0.45 -0.07 0.13 -0.03m4.19 -0.66l0.13 -0.02m1.47 -0.24l0.56 -0.08 0.12 -0.02m8.52 -1.37l0.11 -0.02m2.05 -0.33l0.11 -0.01m10.69 -1.75l0.1 -0.01m10.7 -1.77l0.09 -0.02m4.23 -0.71l0.08 -0.01 2.09 -0.35 0.07 -0.01m10.73 -1.82l0.07 -0.01m4.25 -0.73l0.07 -0.01m0.63 -0.11l1.47 -0.25 0.06 -0.01m6.97 -1.2l1.61 -0.28 0.05 -0.01m10.76 -1.89l0.04 0m2.13 -0.38l0.03 -0.01m2.4 -0.42l1.89 -0.33 0.03 -0.01m4.29 -0.77l0.03 0m12.95 -2.34l0.01 0m20.56 -4.67l0.09 -0.02m-557.24 68.79l0.24 -0.02 24.14 -1.21m11.6 -1.08c132.53,-12.34 260.61,-25.63 305.04,-30.58 0.04,-0.01 0.08,-0.01 0.11,-0.02l0.7 -0.08 0.01 0 0.67 -0.08 0.03 0 0.64 -0.07 0.04 -0.01 0.61 -0.06 0.06 -0.01 0.58 -0.06 0.07 -0.01 0.56 -0.06 0.08 -0.01 0.53 -0.06 0.08 -0.01 0.51 -0.06 0.1 -0.01 0.49 -0.06 0.11 -0.01 0.45 -0.05 0.12 -0.02 0.43 -0.04 0.13 -0.02 0.41 -0.05 0.13 -0.01 0.39 -0.05 0.15 -0.02 0.36 -0.03 0.15 -0.03 0.34 -0.03 0.16 -0.02 0.32 -0.04 0.16 -0.02 0.3 -0.04 0.16 -0.01 0.29 -0.03 0.16 -0.03 0.27 -0.03 0.17 -0.02 0.25 -0.03 0.17 -0.02 0.23 -0.02 0.17 -0.03 0.21 -0.02 0.18 -0.02 0.19 -0.02 0.17 -0.03 0.18 -0.02 0.18 -0.02 0.16 -0.02 0.18 -0.02 0.14 -0.02 0.17 -0.02 0.14 -0.02 0.29 -0.03 0.16 -0.02 0.11 -0.02 0.16 -0.02 0.1 -0.01 0.16 -0.02 0.08 -0.02 0.15 -0.02 0.08 -0.01 0.14 -0.01 0.06 -0.01 0.14 -0.02 0.06 -0.01 0.13 -0.02 0.04 -0.01 0.12 -0.01 0.04 -0.01 0.11 -0.02 0.03 0 0.1 -0.02 0.03 0 0.09 -0.01 0.02 -0.01 0.08 -0.01 0.01 -0.01 0.07 -0.01 0.01 0 0.05 -0.01 0.01 0 0.04 -0.02 0.02 -0.02 -0.02 0 -0.01 0 -0.19 -0.01 -0.1 0 0 0.01 -0.11 0 -0.01 0 -0.13 0 0 0.01 -0.15 0 -0.01 0.01 -0.15 0 -0.03 0.01"/>
   <path class="fil0" d="M12015.39 9396.22c482.09,835.02 685.58,1953.92 594.13,2943.55l609.62 0.38c82.16,-888.44 -73.39,-1881.11 -454.85,-2679.05l-292.24 -506.18c-334.96,-480.45 -729.88,-755.32 -1118.31,-816.39 -157.94,-24.74 -314.71,-14.08 -465.87,32.3 402.12,117.47 802.42,462.3 1127.52,1025.39z"/>
   <path class="fil0" d="M19462.08 14759.95c488.93,-831.04 701.58,-1948.23 618.25,-2938.58l609.6 4.62c74.87,889.08 -88.81,1880.44 -476.8,2675.23l-296.38 503.77c-338.89,477.68 -736.04,749.31 -1124.96,807.2 -158.15,23.43 -314.82,11.5 -465.59,-36.13 403.07,-114.16 806.18,-455.7 1135.88,-1016.11z"/>
   <path class="fil0" d="M14560.05 17569.28c-964.17,-7.9 -2031.73,-399.89 -2838.32,-980.52l-309.45 525.23c724.08,521.32 1658.54,890.61 2539.72,966.45l584.46 4.79c583.95,-45.08 1021.11,-246.07 1270.72,-549.89 101.41,-123.59 171.72,-264.11 208.39,-417.92 -305.15,287.02 -805.34,457.18 -1455.52,451.86z"/>
   <path class="fil0" d="M22073.66 6608.03c-964.2,0 -2034.94,383.22 -2846.26,957.22l-305.13 -527.75c728.33,-515.37 1665.78,-876.99 2547.55,-945.6l584.49 0c583.55,49.87 1019.05,254.44 1266.16,560.29 100.39,124.42 169.55,265.51 204.96,419.61 -302.79,-289.51 -801.57,-463.77 -1451.77,-463.77z"/>
   <path class="fil0" d="M6249.03 15695.35c482.11,-835.02 1349.37,-1570.69 2252.14,-1986.3l-304.48 -528.13c-810.49,373.06 -1592.39,1004.09 -2092.71,1733.42l-292.25 506.17c-248.6,530.31 -289.19,1009.75 -147.87,1376.68 57.55,149.15 145.16,279.59 260.91,387.31 -99.32,-406.98 -0.84,-926.07 324.26,-1489.15z"/>
   <path class="fil0" d="M13747.56 8413.77c475.25,838.94 1336.44,1581.69 2235.77,2004.69l-308.79 525.62c-807.4,-379.69 -1584.11,-1017.12 -2078.43,-1750.52l-288.09 -508.56c-244.24,-532.32 -280.9,-1012.08 -136.58,-1377.84 58.78,-148.67 147.45,-278.39 264.08,-385.15 -102.66,406.15 -8.43,926.02 312.04,1491.76z"/>
   <path class="fil0" d="M11353.35 8338.46c-157.82,-24.65 -314.45,-13.97 -465.48,32.37 151.03,-46.34 307.66,-57.02 465.48,-32.37zm1865.79 4001.69c82.16,-888.44 -73.39,-1881.11 -454.85,-2679.05l-292.24 -506.18c-334.96,-480.45 -729.88,-755.32 -1118.31,-816.39 -0.13,-0.03 -0.26,-0.04 -0.39,-0.07 -157.88,-24.76 -314.69,-14.2 -465.96,32.23 0.16,0.05 0.32,0.1 0.48,0.14 402.12,117.47 802.42,462.3 1127.52,1025.39 482.09,835.02 685.58,1953.92 594.13,2943.55l609.62 0.38zm-1865.4 -4001.62c-0.13,-0.03 -0.26,-0.04 -0.39,-0.07 0.13,0.03 0.26,0.04 0.39,0.07z"/>
   <path class="fil0" d="M18791.39 15812.25c-158.01,23.35 -314.55,11.4 -465.19,-36.19 150.64,47.59 307.18,59.54 465.19,36.19zm1898.54 -3986.26c74.87,889.08 -88.81,1880.44 -476.8,2675.23l-296.38 503.77c-338.89,477.68 -736.05,749.31 -1124.96,807.2 -0.14,0.02 -0.27,0.03 -0.4,0.06 -158.08,23.47 -314.79,11.62 -465.67,-36.05 0.15,-0.04 0.31,-0.09 0.48,-0.14 403.07,-114.16 806.18,-455.7 1135.88,-1016.11 488.93,-831.04 701.58,-1948.23 618.25,-2938.58l609.6 4.62zm-1898.14 3986.2c-0.14,0.02 -0.27,0.03 -0.4,0.06 0.13,-0.03 0.26,-0.04 0.4,-0.06z"/>
   <path class="fil0" d="M15807.43 17535.03c101.27,-123.52 171.5,-263.93 208.14,-417.61 -36.64,153.68 -106.87,294.09 -208.14,417.61zm-4395.15 -421.04c724.08,521.32 1658.54,890.61 2539.72,966.45l584.46 4.79c583.95,-45.08 1021.12,-246.08 1270.72,-549.89 0.09,-0.1 0.17,-0.21 0.25,-0.31 101.41,-123.52 171.82,-264.02 208.5,-417.95 -0.12,0.11 -0.24,0.23 -0.36,0.34 -305.15,287.02 -805.34,457.18 -1455.52,451.86 -964.17,-7.9 -2031.73,-399.89 -2838.32,-980.52l-309.45 525.23zm4394.9 421.35c0.09,-0.1 0.17,-0.21 0.25,-0.31 -0.08,0.1 -0.16,0.21 -0.25,0.31z"/>
   <path class="fil0" d="M23320.72 6652.5c100.26,124.35 169.33,265.33 204.71,419.3 -35.38,-153.97 -104.45,-294.95 -204.71,-419.3zm-4398.45 385c728.33,-515.37 1665.78,-876.99 2547.55,-945.6l584.49 0c583.55,49.87 1019.06,254.44 1266.16,560.29 0.09,0.11 0.17,0.21 0.25,0.31 100.39,124.35 169.65,265.43 205.07,419.64 -0.12,-0.11 -0.24,-0.22 -0.36,-0.34 -302.79,-289.51 -801.57,-463.77 -1451.77,-463.77 -964.2,0 -2034.94,383.22 -2846.26,957.22l-305.13 -527.75zm4398.2 -385.31c0.09,0.11 0.17,0.21 0.25,0.31 -0.08,-0.1 -0.16,-0.2 -0.25,-0.31z"/>
   <path class="fil0" d="M5664.01 16797.56c57.55,149 145.11,279.31 260.76,386.94 -115.65,-107.63 -203.21,-237.94 -260.76,-386.94zm2532.68 -3616.64c-810.49,373.06 -1592.39,1004.09 -2092.71,1733.42l-292.25 506.17c-248.6,530.31 -289.19,1009.75 -147.87,1376.68 0.05,0.13 0.1,0.25 0.15,0.37 57.49,149.12 145.03,279.63 260.88,387.42 -0.04,-0.16 -0.08,-0.32 -0.12,-0.48 -99.32,-406.98 -0.84,-926.07 324.26,-1489.15 482.11,-835.02 1349.37,-1570.69 2252.14,-1986.3l-304.48 -528.13zm-2532.83 3616.27c0.05,0.13 0.1,0.25 0.15,0.37 -0.05,-0.12 -0.1,-0.24 -0.15,-0.37z"/>
   <path class="fil0" d="M13171.59 7306.79c58.77,-148.52 147.4,-278.11 263.93,-384.78 -116.53,106.67 -205.16,236.26 -263.93,384.78zm2502.95 3637.29c-807.4,-379.69 -1584.11,-1017.12 -2078.43,-1750.52l-288.09 -508.56c-244.24,-532.32 -280.9,-1012.08 -136.58,-1377.84 0.05,-0.12 0.1,-0.25 0.15,-0.37 58.71,-148.64 147.32,-278.43 264.05,-385.26 -0.04,0.15 -0.08,0.32 -0.12,0.48 -102.66,406.15 -8.43,926.02 312.04,1491.76 475.25,838.94 1336.44,1581.69 2235.77,2004.69l-308.79 525.62zm-2503.1 -3636.92c0.05,-0.12 0.1,-0.25 0.15,-0.37 -0.05,0.12 -0.1,0.25 -0.15,0.37z"/>
   <path class="fil0" d="M11351.51 8338.18c-157.19,-24.28 -313.2,-13.51 -463.64,32.65 150.45,-46.17 306.45,-56.93 463.64,-32.65zm1867.63 4001.97c82.16,-888.44 -73.39,-1881.11 -454.85,-2679.05l-292.24 -506.18c-334.96,-480.45 -729.88,-755.32 -1118.31,-816.39 -0.13,-0.03 -0.26,-0.04 -0.39,-0.07 -0.62,-0.09 -1.23,-0.19 -1.84,-0.28 -157.19,-24.28 -313.19,-13.52 -463.64,32.65 402.12,117.47 802.42,462.3 1127.52,1025.39 482.09,835.02 685.58,1953.92 594.13,2943.55l609.62 0.38zm-1865.4 -4001.62c-0.13,-0.03 -0.26,-0.04 -0.39,-0.07 0.13,0.03 0.26,0.04 0.39,0.07z"/>
   <path class="fil0" d="M18789.55 15812.52c-157.38,22.99 -313.3,10.94 -463.35,-36.46 150.06,47.4 305.97,59.45 463.35,36.46zm1900.38 -3986.53c74.87,889.08 -88.81,1880.44 -476.8,2675.23l-296.38 503.77c-338.89,477.68 -736.05,749.31 -1124.96,807.2 -0.14,0.02 -0.27,0.03 -0.4,0.06 -0.61,0.08 -1.22,0.18 -1.84,0.27 -157.38,22.99 -313.29,10.94 -463.35,-36.46 403.07,-114.16 806.18,-455.7 1135.88,-1016.11 488.93,-831.04 701.58,-1948.23 618.25,-2938.58l609.6 4.62zm-1898.14 3986.2c-0.14,0.02 -0.27,0.03 -0.4,0.06 0.13,-0.03 0.26,-0.04 0.4,-0.06z"/>
   <path class="fil0" d="M15808.61 17533.59c100.64,-123.17 170.46,-263.09 206.96,-416.17 -36.5,153.08 -106.32,293 -206.96,416.17zm-4396.33 -419.6c724.08,521.32 1658.54,890.61 2539.72,966.45l584.46 4.79c583.95,-45.08 1021.12,-246.08 1270.72,-549.89 0.09,-0.1 0.17,-0.21 0.25,-0.31 0.39,-0.48 0.79,-0.96 1.18,-1.44 100.64,-123.17 170.46,-263.09 206.96,-416.17 -305.15,287.02 -805.34,457.18 -1455.52,451.86 -964.17,-7.9 -2031.73,-399.89 -2838.32,-980.52l-309.45 525.23zm4394.9 421.35c0.09,-0.1 0.17,-0.21 0.25,-0.31 -0.08,0.1 -0.16,0.21 -0.25,0.31z"/>
   <path class="fil0" d="M23321.89 6653.95c99.62,123.99 168.3,264.49 203.54,417.85 -35.24,-153.37 -103.92,-293.86 -203.54,-417.85zm-4399.62 383.55c728.33,-515.37 1665.78,-876.99 2547.55,-945.6l584.49 0c583.55,49.87 1019.06,254.44 1266.16,560.29 0.09,0.11 0.17,0.21 0.25,0.31 0.39,0.49 0.78,0.97 1.17,1.45 99.62,123.99 168.3,264.48 203.54,417.85 -302.79,-289.51 -801.57,-463.77 -1451.77,-463.77 -964.2,0 -2034.94,383.22 -2846.26,957.22l-305.13 -527.75zm4398.2 -385.31c0.09,0.11 0.17,0.21 0.25,0.31 -0.08,-0.1 -0.16,-0.2 -0.25,-0.31z"/>
   <path class="fil0" d="M5664.68 16799.3c57.56,148.27 144.89,277.99 260.09,385.2 -115.2,-107.21 -202.53,-236.93 -260.09,-385.2zm2532.01 -3618.38c-810.49,373.06 -1592.39,1004.09 -2092.71,1733.42l-292.25 506.17c-248.6,530.31 -289.19,1009.75 -147.87,1376.68 0.05,0.13 0.1,0.25 0.15,0.37 0.22,0.58 0.44,1.16 0.67,1.74 57.56,148.27 144.89,277.99 260.09,385.2 -99.32,-406.98 -0.84,-926.07 324.26,-1489.15 482.11,-835.02 1349.37,-1570.69 2252.14,-1986.3l-304.48 -528.13zm-2532.83 3616.27c0.05,0.13 0.1,0.25 0.15,0.37 -0.05,-0.12 -0.1,-0.24 -0.15,-0.37z"/>
   <path class="fil0" d="M13172.27 7305.06c58.78,-147.79 147.18,-276.79 263.25,-383.05 -116.08,106.26 -204.47,235.26 -263.25,383.05zm2502.27 3639.02c-807.4,-379.69 -1584.11,-1017.12 -2078.43,-1750.52l-288.09 -508.56c-244.24,-532.32 -280.9,-1012.08 -136.58,-1377.84 0.05,-0.12 0.1,-0.25 0.15,-0.37 0.23,-0.58 0.46,-1.15 0.68,-1.73 58.78,-147.79 147.17,-276.79 263.25,-383.05 -102.66,406.15 -8.43,926.02 312.04,1491.76 475.25,838.94 1336.44,1581.69 2235.77,2004.69l-308.79 525.62zm-2503.1 -3636.92c0.05,-0.12 0.1,-0.25 0.15,-0.37 -0.05,0.12 -0.1,0.25 -0.15,0.37z"/>
   <path class="fil0" d="M11350.37 8338.01c-156.8,-24.06 -312.42,-13.23 -462.5,32.82 150.08,-46.05 305.7,-56.88 462.5,-32.82zm1868.77 4002.14c82.16,-888.44 -73.39,-1881.11 -454.85,-2679.05l-292.24 -506.18c-334.96,-480.45 -729.88,-755.32 -1118.31,-816.39 -0.13,-0.03 -0.26,-0.04 -0.39,-0.07 -0.62,-0.09 -1.23,-0.19 -1.84,-0.28 -0.38,-0.06 -0.76,-0.12 -1.14,-0.18 -156.81,-24.05 -312.42,-13.22 -462.5,32.83 402.12,117.47 802.42,462.3 1127.52,1025.39 482.09,835.02 685.58,1953.92 594.13,2943.55l609.62 0.38zm-1865.4 -4001.62c-0.13,-0.03 -0.26,-0.04 -0.39,-0.07 0.13,0.03 0.26,0.04 0.39,0.07z"/>
   <path class="fil0" d="M18788.41 15812.68c-156.99,22.77 -312.52,10.67 -462.21,-36.62 149.69,47.29 305.22,59.39 462.21,36.62zm1901.52 -3986.69c74.87,889.08 -88.81,1880.44 -476.8,2675.23l-296.38 503.77c-338.89,477.68 -736.05,749.31 -1124.96,807.2 -0.14,0.02 -0.27,0.03 -0.4,0.06 -0.61,0.08 -1.22,0.18 -1.84,0.27 -0.38,0.05 -0.76,0.11 -1.14,0.17 -157,22.76 -312.52,10.66 -462.21,-36.63 403.07,-114.16 806.18,-455.7 1135.88,-1016.11 488.93,-831.04 701.58,-1948.23 618.25,-2938.58l609.6 4.62zm-1898.14 3986.2c-0.14,0.02 -0.27,0.03 -0.4,0.06 0.13,-0.03 0.26,-0.04 0.4,-0.06z"/>
   <path class="fil0" d="M15809.34 17532.69c100.24,-122.94 169.82,-262.56 206.23,-415.27 -36.41,152.71 -105.99,292.33 -206.23,415.27zm-4397.06 -418.7c724.08,521.32 1658.54,890.61 2539.72,966.45l584.46 4.79c583.95,-45.08 1021.12,-246.08 1270.72,-549.89 0.09,-0.1 0.17,-0.21 0.25,-0.31 0.39,-0.48 0.79,-0.96 1.18,-1.44 0.24,-0.3 0.49,-0.6 0.73,-0.89 100.25,-122.96 169.82,-262.57 206.23,-415.28 -305.15,287.02 -805.34,457.18 -1455.52,451.86 -964.17,-7.9 -2031.73,-399.89 -2838.32,-980.52l-309.45 525.23zm4394.9 421.35c0.09,-0.1 0.17,-0.21 0.25,-0.31 -0.08,0.1 -0.16,0.21 -0.25,0.31z"/>
   <path class="fil0" d="M23322.61 6654.86c99.23,123.76 167.66,263.95 202.82,416.94 -35.16,-153 -103.59,-293.18 -202.82,-416.94zm-4400.34 382.64c728.33,-515.37 1665.78,-876.99 2547.55,-945.6l584.49 0c583.55,49.87 1019.06,254.44 1266.16,560.29 0.09,0.11 0.17,0.21 0.25,0.31 0.39,0.49 0.78,0.97 1.17,1.45 0.24,0.3 0.48,0.6 0.72,0.9 99.23,123.77 167.66,263.95 202.82,416.95 -302.79,-289.51 -801.57,-463.77 -1451.77,-463.77 -964.2,0 -2034.94,383.22 -2846.26,957.22l-305.13 -527.75zm4398.2 -385.31c0.09,0.11 0.17,0.21 0.25,0.31 -0.08,-0.1 -0.16,-0.2 -0.25,-0.31z"/>
   <path class="fil0" d="M5665.1 16800.37c57.56,147.82 144.75,277.18 259.67,384.13 -114.92,-106.95 -202.11,-236.31 -259.67,-384.13zm2531.59 -3619.45c-810.49,373.06 -1592.39,1004.09 -2092.71,1733.42l-292.25 506.17c-248.6,530.31 -289.19,1009.75 -147.87,1376.68 0.05,0.13 0.1,0.25 0.15,0.37 0.22,0.58 0.44,1.16 0.67,1.74 0.14,0.36 0.28,0.71 0.41,1.08 57.58,147.82 144.76,277.17 259.68,384.12 -99.32,-406.98 -0.84,-926.07 324.26,-1489.15 482.11,-835.02 1349.37,-1570.69 2252.14,-1986.3l-304.48 -528.13zm-2532.83 3616.27c0.05,0.13 0.1,0.25 0.15,0.37 -0.05,-0.12 -0.1,-0.24 -0.15,-0.37z"/>
   <path class="fil0" d="M13172.71 7303.99c58.77,-147.35 147.01,-275.98 262.81,-381.98 -115.8,106 -204.04,234.63 -262.81,381.98zm2501.83 3640.09c-807.4,-379.69 -1584.11,-1017.12 -2078.43,-1750.52l-288.09 -508.56c-244.24,-532.32 -280.9,-1012.08 -136.58,-1377.84 0.05,-0.12 0.1,-0.25 0.15,-0.37 0.23,-0.58 0.46,-1.15 0.68,-1.73 0.15,-0.36 0.29,-0.71 0.43,-1.07 58.78,-147.35 147.02,-275.98 262.82,-381.98 -102.66,406.15 -8.43,926.02 312.04,1491.76 475.25,838.94 1336.44,1581.69 2235.77,2004.69l-308.79 525.62zm-2503.1 -3636.92c0.05,-0.12 0.1,-0.25 0.15,-0.37 -0.05,0.12 -0.1,0.25 -0.15,0.37z"/>
   <path class="fil0" d="M12015.39 9396.22c482.09,835.02 685.58,1953.92 594.13,2943.55l609.62 0.38c82.16,-888.45 -73.39,-1881.11 -454.85,-2679.05l-292.24 -506.18c-334.96,-480.45 -729.88,-755.32 -1118.31,-816.39 -0.13,-0.03 -0.26,-0.04 -0.39,-0.07 -0.62,-0.09 -1.23,-0.19 -1.84,-0.28 -0.38,-0.06 -0.76,-0.12 -1.14,-0.17 -156.8,-24.06 -312.42,-13.23 -462.5,32.82 402.12,117.47 802.42,462.3 1127.52,1025.39zm-661.65 -1057.69c-0.13,-0.03 -0.26,-0.04 -0.39,-0.07 0.13,0.03 0.26,0.04 0.39,0.07zm-3.37 -0.53c-156.81,-24.05 -312.42,-13.22 -462.5,32.83 150.08,-46.05 305.7,-56.88 462.5,-32.83z"/>
   <path class="fil0" d="M19462.08 14759.95c488.93,-831.04 701.58,-1948.23 618.25,-2938.58l609.6 4.62c74.87,889.09 -88.81,1880.45 -476.8,2675.23l-296.38 503.77c-338.89,477.68 -736.05,749.31 -1124.96,807.2 -0.14,0.02 -0.27,0.03 -0.4,0.06 -0.61,0.08 -1.22,0.18 -1.84,0.27 -0.38,0.05 -0.76,0.11 -1.14,0.16 -156.99,22.77 -312.52,10.67 -462.21,-36.62 403.07,-114.16 806.18,-455.7 1135.88,-1016.11zm-670.29 1052.24c-0.14,0.02 -0.27,0.03 -0.4,0.06 0.13,-0.03 0.26,-0.04 0.4,-0.06zm-3.38 0.5c-157,22.76 -312.52,10.66 -462.21,-36.63 149.69,47.29 305.22,59.39 462.21,36.63z"/>
   <path class="fil0" d="M14560.05 17569.28c-964.17,-7.9 -2031.73,-399.89 -2838.32,-980.52l-309.45 525.23c724.09,521.32 1658.54,890.62 2539.72,966.45l584.46 4.79c583.95,-45.08 1021.12,-246.08 1270.72,-549.89 0.09,-0.1 0.17,-0.21 0.25,-0.31 0.39,-0.48 0.79,-0.96 1.18,-1.44 0.24,-0.3 0.49,-0.6 0.73,-0.9 100.24,-122.94 169.82,-262.56 206.23,-415.27 -305.15,287.02 -805.34,457.18 -1455.52,451.86zm1247.13 -33.94c0.09,-0.1 0.17,-0.21 0.25,-0.31 -0.08,0.1 -0.16,0.21 -0.25,0.31zm2.16 -2.64c100.25,-122.96 169.82,-262.57 206.23,-415.28 -36.41,152.71 -105.99,292.33 -206.23,415.28z"/>
   <path class="fil0" d="M22073.66 6608.03c-964.2,0 -2034.94,383.22 -2846.26,957.22l-305.13 -527.75c728.33,-515.37 1665.78,-876.99 2547.55,-945.6l584.49 0c583.55,49.87 1019.06,254.44 1266.16,560.29 0.09,0.11 0.17,0.21 0.25,0.31 0.39,0.49 0.78,0.97 1.17,1.45 0.24,0.3 0.48,0.6 0.72,0.91 99.23,123.76 167.66,263.95 202.82,416.94 -302.79,-289.51 -801.57,-463.77 -1451.77,-463.77zm1246.81 44.16c0.09,0.11 0.17,0.21 0.25,0.31 -0.08,-0.1 -0.16,-0.2 -0.25,-0.31zm2.14 2.66c99.23,123.77 167.66,263.95 202.82,416.95 -35.16,-153 -103.59,-293.18 -202.82,-416.95z"/>
   <path class="fil0" d="M6249.03 15695.35c482.11,-835.02 1349.37,-1570.69 2252.14,-1986.3l-304.48 -528.13c-810.49,373.06 -1592.4,1004.1 -2092.71,1733.42l-292.25 506.17c-248.6,530.31 -289.19,1009.75 -147.87,1376.68 0.05,0.13 0.1,0.25 0.15,0.37 0.22,0.58 0.44,1.16 0.67,1.74 0.14,0.36 0.28,0.71 0.42,1.07 57.56,147.82 144.75,277.18 259.67,384.13 -99.32,-406.98 -0.84,-926.07 324.26,-1489.15zm-585.17 1101.84c0.05,0.13 0.1,0.25 0.15,0.37 -0.05,-0.12 -0.1,-0.24 -0.15,-0.37zm1.23 3.19c57.58,147.82 144.76,277.17 259.68,384.12 -114.92,-106.95 -202.11,-236.31 -259.68,-384.12z"/>
   <path class="fil0" d="M13747.56 8413.77c475.25,838.94 1336.44,1581.69 2235.77,2004.69l-308.79 525.62c-807.41,-379.7 -1584.11,-1017.12 -2078.43,-1750.52l-288.09 -508.56c-244.24,-532.32 -280.9,-1012.08 -136.58,-1377.84 0.05,-0.12 0.1,-0.25 0.15,-0.37 0.23,-0.58 0.46,-1.15 0.68,-1.73 0.15,-0.36 0.29,-0.71 0.44,-1.07 58.77,-147.35 147.01,-275.98 262.81,-381.98 -102.66,406.15 -8.43,926.02 312.04,1491.76zm-576.12 -1106.61c0.05,-0.12 0.1,-0.25 0.15,-0.37 -0.05,0.12 -0.1,0.25 -0.15,0.37zm1.26 -3.17c58.78,-147.35 147.02,-275.98 262.82,-381.98 -115.8,106 -204.04,234.63 -262.82,381.98z"/>
   <path class="fil31" d="M12015.39 9396.22c482.09,835.02 685.58,1953.92 594.13,2943.55l609.62 0.38c82.16,-888.45 -73.39,-1881.11 -454.85,-2679.05l-65.67 -131.16 -82.48 -149.04 -65.96 -108.44 -78.13 -117.54c-334.96,-480.45 -729.88,-755.32 -1118.31,-816.39 -0.13,-0.03 -0.26,-0.04 -0.39,-0.07 -0.62,-0.09 -1.23,-0.19 -1.84,-0.28 -0.38,-0.06 -0.76,-0.12 -1.14,-0.17 -156.8,-24.06 -312.42,-13.23 -462.5,32.82 402.12,117.47 802.42,462.3 1127.52,1025.39zm-661.65 -1057.69c-0.13,-0.03 -0.26,-0.04 -0.39,-0.07 0.13,0.03 0.26,0.04 0.39,0.07zm-3.37 -0.53c-156.8,-24.05 -312.42,-13.22 -462.5,32.83 150.08,-46.05 305.69,-56.88 462.5,-32.83z"/>
   <path class="fil32" d="M19462.08 14759.95c488.93,-831.04 701.58,-1948.23 618.25,-2938.58l609.6 4.62c74.87,889.09 -88.81,1880.45 -476.8,2675.23l-66.74 130.62 -83.7 148.36 -66.85 107.9 -79.09 116.89c-338.89,477.68 -736.05,749.31 -1124.96,807.2 -0.14,0.02 -0.27,0.03 -0.4,0.06 -0.61,0.08 -1.22,0.18 -1.84,0.27 -0.38,0.05 -0.76,0.11 -1.14,0.16 -156.99,22.77 -312.52,10.67 -462.21,-36.62 403.07,-114.16 806.18,-455.7 1135.88,-1016.11zm-670.29 1052.24c-0.14,0.02 -0.27,0.03 -0.4,0.06 0.13,-0.03 0.26,-0.04 0.4,-0.06zm-3.38 0.5c-156.99,22.76 -312.52,10.65 -462.21,-36.63 149.69,47.29 305.21,59.39 462.21,36.63z"/>
   <path class="fil33" d="M14560.62 17581.64c-963.82,-7.88 -2032.59,-412.45 -2838.89,-992.88l-309.45 525.23c723.83,521.13 1645.19,905.18 2526.05,980.99l604.05 3.2c583.73,-45.06 1015.41,-246.77 1264.92,-550.48 0.1,-0.09 0.17,-0.2 0.26,-0.3 0.39,-0.48 0.78,-0.96 1.18,-1.44 0.24,-0.3 0.48,-0.6 0.72,-0.9 100.21,-122.9 169.77,-262.47 206.16,-415.12 -305.04,286.92 -805.07,457 -1455,451.7zm1246.68 -33.94c0.1,-0.09 0.17,-0.2 0.26,-0.3 -0.09,0.1 -0.16,0.21 -0.26,0.3zm2.17 -2.63c100.2,-122.91 169.75,-262.49 206.15,-415.13 -36.4,152.65 -105.94,292.21 -206.15,415.13z"/>
   <path class="fil34" d="M22074.33 6595.68c-963.85,-0.02 -2035.9,395.77 -2846.93,969.57l-305.13 -527.75c728.08,-515.18 1652.55,-891.66 2534,-960.25l604.06 1.75c583.34,49.85 1013.35,255.08 1260.36,560.83 0.1,0.1 0.17,0.21 0.26,0.31 0.38,0.48 0.77,0.96 1.16,1.44 0.24,0.3 0.48,0.61 0.72,0.91 99.2,123.72 167.61,263.86 202.75,416.8 -302.68,-289.41 -801.3,-463.59 -1451.25,-463.61zm1246.36 44.15c0.1,0.1 0.17,0.21 0.26,0.31 -0.09,-0.1 -0.16,-0.21 -0.26,-0.31zm2.15 2.66c99.19,123.72 167.59,263.86 202.74,416.8 -35.14,-152.95 -103.54,-293.08 -202.74,-416.8z"/>
   <path class="fil35" d="M6249.03 15695.35c482.11,-835.02 1349.37,-1570.69 2252.14,-1986.3l-304.48 -528.13c-810.49,373.06 -1592.4,1004.1 -2092.71,1733.42l-43.65 64.97 -55.24 86.43 -74.17 124.85 -65.08 120.09 -54.11 109.83c-248.6,530.31 -289.19,1009.75 -147.87,1376.68 0.05,0.13 0.1,0.25 0.15,0.37 0.22,0.58 0.44,1.16 0.67,1.74 0.14,0.36 0.28,0.71 0.42,1.07 57.56,147.82 144.75,277.18 259.68,384.13 -99.34,-406.99 -0.85,-926.07 324.25,-1489.15zm-585.17 1101.84c0.05,0.13 0.1,0.25 0.15,0.37 -0.05,-0.12 -0.1,-0.24 -0.15,-0.37zm1.23 3.19c57.57,147.81 144.77,277.17 259.69,384.12 -114.93,-106.95 -202.11,-236.3 -259.69,-384.12z"/>
   <path class="fil36" d="M13747.56 8413.77c475.25,838.94 1336.44,1581.69 2235.77,2004.69l-308.79 525.62c-807.41,-379.7 -1584.11,-1017.12 -2078.43,-1750.52l-43.12 -65.33 -54.52 -86.88 -73.14 -125.45 -64.1 -120.62 -53.21 -110.28c-244.24,-532.32 -280.9,-1012.08 -136.58,-1377.84 0.05,-0.12 0.1,-0.25 0.15,-0.37 0.23,-0.58 0.46,-1.15 0.68,-1.73 0.15,-0.36 0.29,-0.71 0.44,-1.07 58.77,-147.35 147.01,-275.98 262.81,-381.99 -102.66,406.17 -8.43,926.03 312.04,1491.77zm-576.12 -1106.61c0.05,-0.12 0.1,-0.25 0.15,-0.37 -0.05,0.12 -0.1,0.25 -0.15,0.37zm1.26 -3.17c58.78,-147.35 147.03,-275.98 262.82,-381.99 -115.8,106.01 -204.04,234.64 -262.82,381.99z"/>
   <path class="fil37" d="M15811.32 17530.27c-0.49,0.6 -0.98,1.2 -1.47,1.8 0.49,-0.6 0.98,-1.2 1.47,-1.8zm-3107.85 -4649.24c-28.26,-5.42 -26.35,-0.24 -32.34,-0.25l-114.65 -0.95 -50.69 -0.41 -24.38 -0.2 -17.08 -0.14 -32.07 -0.26 -20.13 -0.17 -5.71 -0.05 -17.21 -0.14 -39.3 -0.32 -16.42 -0.14 -48.37 -0.39 -10.91 -0.09 -4.42 -0.04 -1.79 -0.01 -57.67 -0.47c-21.98,-1.89 -43.92,-3.6 -65.82,-5.12 -5.59,-0.39 -11.19,-0.77 -16.78,-1.14l-135.35 -1.57 -1307.36 -15.21 -362.26 -4.2 -17.56 -0.21 -0.9 -0.01c-0.21,0 -0.42,-0.01 -0.64,-0.01 -86.32,-0.97 -535.72,-24.24 -743.03,-7.27l-107.18 -1.41c0.05,0.26 0.12,0.53 0.17,0.79 0.03,0.14 0.06,0.27 0.09,0.4 0.03,0.14 0.06,0.27 0.1,0.4 0,0.05 0.01,0.09 0.03,0.13 0.81,3.64 1.64,7.28 2.46,10.93 0.85,3.67 1.69,7.34 2.54,11.02 -2.66,2.66 -3.73,5.54 -3.03,8.67 0.06,0.25 0.12,0.5 0.17,0.76 9.95,43.93 21.09,87.56 33.11,130.89l24.58 84.66c28.42,93.92 59.87,186.52 90.74,277.98 0.13,0.37 0.26,0.75 0.38,1.12 0.2,0.6 1.15,0.7 2.43,0.61l959.32 10.46 1035.69 8.49c57.28,0.47 114.92,2.3 172.83,5.44 10.92,0.58 21.85,1.22 32.79,1.91l0.29 0.01 0.36 0.02 24 1.41c0.04,0 0.07,0 0.1,0.01 1.21,0.12 2.42,0.24 3.63,0.36 0.68,0.07 1.35,0.14 2.03,0.21 1.95,0.19 3.89,0.39 5.84,0.59 0.16,0.01 0.31,0.03 0.47,0.05 132.36,13.42 260.17,27.75 304.41,33.05 10.84,1.3 16.66,2.06 16.32,2.13l-0.57 -0.01 -0.34 -0.03 -2.71 -0.23c2.19,0.29 4.32,0.59 6.39,0.88 4.67,0.67 9.03,1.32 13.04,1.98 1.46,0.23 2.87,0.46 4.24,0.69 0.58,0.09 1.15,0.17 1.71,0.26 9.02,1.34 16.75,2.57 23.33,3.7 0.72,0.12 1.44,0.23 2.16,0.35 1.43,0.23 2.88,0.46 4.31,0.69 0.05,0.01 0.1,0.02 0.15,0.03 1.39,0.22 2.78,0.44 4.16,0.67 0.05,0.01 0.1,0.01 0.15,0.03 0.6,0.09 1.2,0.19 1.8,0.29 0.79,0.12 1.57,0.25 2.36,0.38 0.05,0.01 0.1,0.02 0.15,0.02 1.44,0.24 2.87,0.48 4.3,0.71 0.56,0.09 1.12,0.18 1.67,0.28 0.16,0.02 0.33,0.05 0.49,0.08 0.54,0.09 1.09,0.17 1.64,0.26 0.17,0.03 0.34,0.06 0.51,0.09 1.24,0.21 2.49,0.41 3.73,0.62 0.19,0.03 0.39,0.06 0.58,0.1 0.51,0.08 1.02,0.17 1.54,0.25 0.88,0.15 1.76,0.29 2.65,0.44 0.04,0.01 0.08,0.01 0.12,0.03 0.49,0.08 0.98,0.16 1.48,0.24 0.22,0.04 0.45,0.08 0.67,0.12 0.5,0.08 1.01,0.16 1.51,0.25 2.33,0.39 4.66,0.78 7,1.18 0.04,0.01 0.07,0.01 0.11,0.02 0.68,0.11 1.37,0.23 2.05,0.35 0.03,0 0.07,0.01 0.11,0.01 3.26,0.56 6.51,1.12 9.77,1.68 0.3,0.05 0.6,0.1 0.9,0.15l0.1 0.02c1.4,0.24 2.81,0.49 4.22,0.73 1.91,0.33 3.83,0.67 5.74,1l0.73 0.13c0.03,0 0.06,0.01 0.08,0.02 0.31,0.05 0.62,0.1 0.92,0.16 1.11,0.19 2.21,0.38 3.31,0.58 0.75,0.13 1.5,0.26 2.24,0.39 3.6,0.64 7.19,1.27 10.78,1.92 0.23,0.04 0.47,0.08 0.69,0.12l3.56 0.64 0.69 0.12 0.31 0.06 1.22 0.22c0.2,0.03 0.39,0.07 0.59,0.11 2.13,0.38 4.25,0.77 6.38,1.15l1.65 0.31c0.15,0.02 0.31,0.05 0.47,0.08 3.43,0.63 6.88,1.26 10.31,1.89 0.1,0.02 0.21,0.04 0.31,0.06l1.71 0.32 0.14 0.02c0.09,0.02 0.18,0.04 0.27,0.06 0.71,0.13 1.42,0.26 2.13,0.39 0.64,0.12 1.27,0.23 1.91,0.35 0.07,0.02 0.14,0.03 0.21,0.04 1.37,0.26 2.74,0.51 4.1,0.77 0.05,0.01 0.1,0.02 0.15,0.03 3.24,0.6 6.49,1.22 9.73,1.83l-0.07 0.12 5.29 0.87 1.37 0.27 0.54 0.1 0.09 0.02 0.15 0.04 1.31 0.32 14.91 3.68 0.09 0.03 9.62 2.44 0.22 0.06c0.05,0.01 0.1,0.02 0.16,0.03 0.07,0.02 0.14,0.03 0.21,0.06l482.85 122.87 2.59 0.66 9.32 2.37 0.15 0.04 2.75 0.7 14.98 3.81 34.09 8.67c1029.71,326.12 2078.28,1012.22 2551.23,1852.64l338.17 600.92c216.95,385.51 277.97,745.91 204.8,1052.93 -36.21,151.96 -105.29,290.83 -204.61,413.19 -0.66,0.81 -1.32,1.62 -1.98,2.43 -0.08,0.1 -0.16,0.2 -0.24,0.3 -0.16,0.2 -0.33,0.39 -0.49,0.59 -0.39,0.48 -0.79,0.96 -1.18,1.44 -0.08,0.1 -0.16,0.2 -0.25,0.31 -2.38,2.89 -4.77,5.77 -7.18,8.65 -249.45,297.55 -675.67,495.45 -1249.81,541.36l2981.17 24.43 -1259.65 -2238.35 -713.02 -1267 -961.12 -1707.87 -12.06 -0.1 -0.07 0.1 -677.17 -5.34 -8.32 -0.07 0.11 0.2 -175.67 -1.59 -17.86 -0.14 -9.15 -0.1 -406.87 -3.67 -587.04 -4.82zm-3155.34 -37.68c-30.74,2.91 -55.33,6.82 -71.4,11.99 -0.71,0.23 -1.31,0.47 -1.98,0.7 -0.45,0.15 -0.89,0.31 -1.32,0.46 -2.21,0.81 -4.22,1.64 -6.06,2.5 -2.41,-10.84 -2.2,-14.94 -0.96,-16.33 0.04,-0.04 0.08,-0.08 0.12,-0.12 0.18,-0.16 0.37,-0.28 0.59,-0.36 0.59,-0.22 1.3,-0.13 2.04,0.03 0.51,0.11 1.03,0.26 1.53,0.37l1.03 0c0.01,0.04 0.01,0.09 0.03,0.13l76.38 0.63zm2759.89 613.93c0.55,0.11 1.1,0.2 1.65,0.31l-1.65 -0.31zm-8.19 -1.48c0.41,0.08 0.81,0.14 1.22,0.22l-1.22 -0.22zm555.22 137.57c0.96,0.29 1.92,0.58 2.87,0.87 -0.95,-0.29 -1.91,-0.58 -2.87,-0.87zm-521.56 -715.36l-48.37 -0.4 48.37 0.4zm3473.69 4657.33c-2.38,2.89 -4.77,5.78 -7.18,8.65 2.41,-2.87 4.8,-5.76 7.18,-8.65z"/>
   <path class="fil38" d="M23324.57 6657.3c-0.49,-0.61 -0.97,-1.22 -1.45,-1.82 0.48,0.6 0.96,1.21 1.45,1.82zm-3145.86 4623.6c-28.31,5.18 -26.35,0.02 -32.34,-0.01l-114.65 0 -50.7 0 -24.37 0 -17.09 0 -32.07 0 -20.13 0 -5.71 0 -17.21 0 -39.3 0 -16.42 0 -48.37 0 -10.92 0 -4.42 0 -1.78 0 -57.68 0c-21.99,1.71 -43.94,3.24 -65.85,4.58 -5.6,0.35 -11.2,0.68 -16.8,1l-135.35 0.46 -1307.44 4.49 -362.28 1.24 -17.57 0.06 -0.89 0c-0.22,0 -0.43,0 -0.64,0 -86.33,0.27 -535.91,19.86 -743.07,1.19l-107.19 0.53c0.05,-0.27 0.12,-0.53 0.18,-0.79 0.03,-0.14 0.06,-0.27 0.09,-0.41 0.03,-0.13 0.06,-0.26 0.1,-0.4 0,-0.04 0.02,-0.08 0.03,-0.12 0.84,-3.64 1.7,-7.27 2.56,-10.91 0.87,-3.66 1.74,-7.33 2.63,-11 -2.64,-2.68 -3.69,-5.57 -2.96,-8.69 0.06,-0.26 0.12,-0.51 0.17,-0.76 10.31,-43.85 21.81,-87.38 34.18,-130.62l25.28 -84.46c29.18,-93.68 61.4,-186.01 93.02,-277.22 0.12,-0.37 0.25,-0.75 0.38,-1.12 0.21,-0.59 1.15,-0.69 2.43,-0.58l959.38 -2.61 1035.73 0.01c57.28,0 114.93,-1.35 172.86,-4.02 10.92,-0.5 21.87,-1.05 32.81,-1.64l0.28 -0.01 0.36 -0.02 24.02 -1.21c0.03,0 0.06,0 0.1,-0.01 1.21,-0.11 2.42,-0.22 3.63,-0.33 0.68,-0.07 1.36,-0.13 2.03,-0.19 1.95,-0.18 3.9,-0.37 5.84,-0.54 0.16,-0.02 0.32,-0.04 0.48,-0.05 132.46,-12.34 260.39,-25.62 304.67,-30.55 10.84,-1.21 16.67,-1.93 16.33,-2l-0.57 0 -0.34 0.03 -2.71 0.21c2.2,-0.28 4.33,-0.56 6.4,-0.83 4.68,-0.63 9.04,-1.25 13.06,-1.87 1.46,-0.22 2.87,-0.44 4.24,-0.66 0.58,-0.08 1.15,-0.16 1.72,-0.24 9.02,-1.27 16.77,-2.44 23.36,-3.52 0.72,-0.11 1.43,-0.21 2.16,-0.32 1.43,-0.22 2.87,-0.44 4.31,-0.66 0.05,-0.01 0.1,-0.02 0.16,-0.03 1.38,-0.21 2.77,-0.42 4.16,-0.64 0.05,0 0.1,-0.01 0.15,-0.02 0.6,-0.09 1.2,-0.18 1.8,-0.27 0.79,-0.12 1.57,-0.25 2.36,-0.37 0.06,-0.01 0.1,-0.01 0.15,-0.02 1.44,-0.22 2.88,-0.45 4.31,-0.67 0.56,-0.09 1.12,-0.18 1.68,-0.26 0.16,-0.03 0.32,-0.05 0.48,-0.08 0.55,-0.09 1.1,-0.17 1.64,-0.26 0.17,-0.02 0.34,-0.05 0.51,-0.08 1.25,-0.19 2.49,-0.39 3.74,-0.58 0.19,-0.04 0.39,-0.06 0.58,-0.1 0.52,-0.08 1.03,-0.16 1.54,-0.24 0.88,-0.14 1.77,-0.28 2.65,-0.42 0.04,-0.01 0.09,-0.01 0.13,-0.02 0.49,-0.08 0.98,-0.15 1.47,-0.24 0.23,-0.03 0.46,-0.07 0.68,-0.1 0.5,-0.08 1.01,-0.16 1.51,-0.24 2.34,-0.37 4.67,-0.75 7.01,-1.13 0.04,0 0.07,-0.01 0.11,-0.02 0.68,-0.1 1.37,-0.21 2.05,-0.33 0.04,0 0.08,-0.01 0.11,-0.01 3.26,-0.53 6.52,-1.07 9.78,-1.6 0.31,-0.05 0.61,-0.1 0.91,-0.15l0.1 -0.01c1.4,-0.23 2.81,-0.46 4.22,-0.7 1.92,-0.32 3.84,-0.63 5.75,-0.95l0.73 -0.12c0.03,-0.01 0.06,-0.01 0.09,-0.02 0.31,-0.05 0.61,-0.1 0.92,-0.15 1.1,-0.19 2.21,-0.37 3.31,-0.56 0.75,-0.12 1.5,-0.25 2.24,-0.37 3.6,-0.61 7.2,-1.21 10.8,-1.83 0.23,-0.04 0.46,-0.08 0.69,-0.11l3.56 -0.62 0.7 -0.12 0.31 -0.05 1.22 -0.21c0.2,-0.03 0.39,-0.07 0.59,-0.1 2.13,-0.37 4.25,-0.74 6.38,-1.1l1.66 -0.29c0.15,-0.03 0.31,-0.06 0.47,-0.09 3.44,-0.6 6.89,-1.2 10.33,-1.8 0.1,-0.02 0.2,-0.04 0.31,-0.06l1.71 -0.3 0.14 -0.03c0.09,-0.01 0.18,-0.03 0.27,-0.04 0.71,-0.13 1.42,-0.26 2.13,-0.38 0.64,-0.12 1.28,-0.23 1.92,-0.34 0.07,-0.01 0.14,-0.03 0.2,-0.04 1.37,-0.24 2.75,-0.49 4.12,-0.73 0.04,-0.01 0.09,-0.02 0.14,-0.03 3.25,-0.58 6.5,-1.16 9.75,-1.75l-0.07 -0.12 5.29 -0.83 1.38 -0.25 0.53 -0.1 0.09 -0.02 0.16 -0.04 1.31 -0.31 14.94 -3.56 0.09 -0.02 9.64 -2.37 0.22 -0.06c0.05,-0.01 0.1,-0.02 0.16,-0.03 0.07,-0.02 0.15,-0.03 0.21,-0.05l483.85 -118.91 2.58 -0.64 9.35 -2.29 0.15 -0.04 2.75 -0.68 15.01 -3.68 34.16 -8.4c1032.35,-317.67 2086.51,-995.14 2566.33,-1831.65l343.09 -598.14c220.1,-383.72 284.07,-743.61 213.43,-1051.21 -34.97,-152.25 -102.91,-291.68 -201.22,-414.85 -0.65,-0.82 -1.31,-1.64 -1.96,-2.45 -0.08,-0.1 -0.16,-0.2 -0.24,-0.3 -0.16,-0.2 -0.32,-0.4 -0.48,-0.6 -0.39,-0.48 -0.78,-0.96 -1.17,-1.45 -0.08,-0.1 -0.16,-0.2 -0.25,-0.31 -2.36,-2.91 -4.72,-5.81 -7.11,-8.7 -247,-299.59 -671.58,-500.98 -1245.33,-551.6l2981.27 0.02 -1277.96 2227.94 -723.37 1261.11 -975.09 1699.94 -12.07 0 -0.06 -0.1 -677.2 -0.21 -8.31 0 0.11 -0.2 -175.68 0.15 -17.87 -0.01 -9.15 0.03 -406.88 0.34 -587.06 0zm-3155.55 11.81c-30.71,-3.16 -55.27,-7.27 -71.3,-12.57 -0.7,-0.23 -1.3,-0.48 -1.97,-0.72 -0.44,-0.16 -0.88,-0.31 -1.31,-0.47 -2.21,-0.83 -4.21,-1.67 -6.04,-2.55 -2.5,10.82 -2.32,14.93 -1.09,16.32 0.04,0.04 0.08,0.09 0.12,0.12 0.17,0.17 0.36,0.28 0.58,0.36 0.59,0.23 1.3,0.15 2.04,0 0.51,-0.11 1.03,-0.26 1.53,-0.36l1.03 0c0.01,-0.04 0.02,-0.08 0.03,-0.12l76.38 -0.01zm2764.83 -591.28c0.55,-0.1 1.11,-0.19 1.66,-0.29l-1.66 0.29zm-8.19 1.41c0.4,-0.07 0.81,-0.14 1.22,-0.21l-1.22 0.21zm556.33 -133.02c0.95,-0.28 1.92,-0.56 2.87,-0.84 -0.95,0.29 -1.91,0.56 -2.87,0.84zm-527.41 711.07l-48.37 0 48.37 0zm3511.75 -4628.7c-2.36,-2.91 -4.72,-5.81 -7.11,-8.7 2.39,2.89 4.75,5.79 7.11,8.7z"/>
  </g>
 </g>
</svg>
