<?xml version="1.0" encoding="UTF-8"?>
<!DOCTYPE svg PUBLIC "-//W3C//DTD SVG 1.1//EN" "http://www.w3.org/Graphics/SVG/1.1/DTD/svg11.dtd">
<!-- Creator: CorelDRAW 2021 (64-Bit) -->
<svg xmlns="http://www.w3.org/2000/svg" xml:space="preserve" width="297mm" height="210mm" version="1.1" style="shape-rendering:geometricPrecision; text-rendering:geometricPrecision; image-rendering:optimizeQuality; fill-rule:evenodd; clip-rule:evenodd"
viewBox="0 0 29700 21000"
 xmlns:xlink="http://www.w3.org/1999/xlink"
 xmlns:xodm="http://www.corel.com/coreldraw/odm/2003">
 <defs>
  <style type="text/css">
   <![CDATA[
    .str0 {stroke:black;stroke-width:20;stroke-linecap:round;stroke-linejoin:round;stroke-miterlimit:22.9256}
    .fil27 {fill:#FEFEFE}
    .fil29 {fill:#D9DADA}
    .fil15 {fill:#C5C6C6}
    .fil26 {fill:#B2B3B3}
    .fil11 {fill:#898989}
    .fil0 {fill:#050816}
    .fil5 {fill:url(#id0)}
    .fil6 {fill:url(#id1)}
    .fil32 {fill:url(#id2)}
    .fil33 {fill:url(#id3)}
    .fil18 {fill:url(#id4)}
    .fil20 {fill:url(#id5)}
    .fil14 {fill:url(#id6)}
    .fil21 {fill:url(#id7)}
    .fil19 {fill:url(#id8)}
    .fil30 {fill:url(#id9)}
    .fil31 {fill:url(#id10)}
    .fil3 {fill:url(#id11)}
    .fil4 {fill:url(#id12)}
    .fil12 {fill:url(#id13)}
    .fil13 {fill:url(#id14)}
    .fil28 {fill:url(#id15)}
    .fil23 {fill:url(#id16)}
    .fil25 {fill:url(#id17)}
    .fil17 {fill:url(#id18)}
    .fil34 {fill:url(#id19)}
    .fil1 {fill:url(#id20)}
    .fil2 {fill:url(#id21)}
    .fil16 {fill:url(#id22)}
    .fil24 {fill:url(#id23)}
    .fil22 {fill:url(#id24)}
    .fil7 {fill:url(#id25)}
    .fil8 {fill:url(#id26)}
    .fil9 {fill:url(#id27)}
    .fil10 {fill:url(#id28)}
   ]]>
  </style>
  <linearGradient id="id0" gradientUnits="userSpaceOnUse" x1="9789.39" y1="17772.7" x2="-3250.49" y2="16016.87">
   <stop offset="0" style="stop-opacity:1; stop-color:#B3B3B3"/>
   <stop offset="0.380392" style="stop-opacity:1; stop-color:#D8D8D8"/>
   <stop offset="1" style="stop-opacity:1; stop-color:#FEFEFE"/>
  </linearGradient>
  <linearGradient id="id1" gradientUnits="userSpaceOnUse" xlink:href="#id0" x1="17277.28" y1="4099.08" x2="4237.4" y2="5854.91">
  </linearGradient>
  <linearGradient id="id2" gradientUnits="userSpaceOnUse" xlink:href="#id0" x1="8714.79" y1="13560.94" x2="187.77" y2="21276.43">
  </linearGradient>
  <linearGradient id="id3" gradientUnits="userSpaceOnUse" xlink:href="#id0" x1="16202.68" y1="8310.84" x2="7675.66" y2="595.35">
  </linearGradient>
  <linearGradient id="id4" gradientUnits="userSpaceOnUse" xlink:href="#id0" x1="3618.98" y1="17417.01" x2="17852.45" y2="3418.12">
  </linearGradient>
  <linearGradient id="id5" gradientUnits="userSpaceOnUse" xlink:href="#id0" x1="11106.87" y1="4454.77" x2="25340.34" y2="18453.66">
  </linearGradient>
  <linearGradient id="id6" gradientUnits="userSpaceOnUse" xlink:href="#id0" x1="10350.06" y1="5022.01" x2="11045.71" y2="24847.84">
  </linearGradient>
  <linearGradient id="id7" gradientUnits="userSpaceOnUse" xlink:href="#id0" x1="11106.87" y1="4454.77" x2="25340.34" y2="18453.66">
  </linearGradient>
  <linearGradient id="id8" gradientUnits="userSpaceOnUse" xlink:href="#id0" x1="3618.98" y1="17417.01" x2="17852.45" y2="3418.12">
  </linearGradient>
  <linearGradient id="id9" gradientUnits="userSpaceOnUse" xlink:href="#id0" x1="12018.71" y1="14539" x2="22284.14" y2="19553.62">
  </linearGradient>
  <linearGradient id="id10" gradientUnits="userSpaceOnUse" xlink:href="#id0" x1="19506.6" y1="7332.78" x2="29772.03" y2="2318.16">
  </linearGradient>
  <linearGradient id="id11" gradientUnits="userSpaceOnUse" xlink:href="#id0" x1="17288.25" y1="17408.16" x2="10888.93" y2="4757.25">
  </linearGradient>
  <linearGradient id="id12" gradientUnits="userSpaceOnUse" xlink:href="#id0" x1="24776.14" y1="4463.62" x2="18376.82" y2="17114.53">
  </linearGradient>
  <linearGradient id="id13" gradientUnits="userSpaceOnUse" xlink:href="#id0" x1="14418.68" y1="11627.94" x2="380.62" y2="10937.73">
  </linearGradient>
  <linearGradient id="id14" gradientUnits="userSpaceOnUse" xlink:href="#id0" x1="21906.57" y1="10243.84" x2="7868.51" y2="10934.05">
  </linearGradient>
  <linearGradient id="id15" gradientUnits="userSpaceOnUse" xlink:href="#id0" x1="11057.34" y1="11093.21" x2="10180.24" y2="-280.03">
  </linearGradient>
  <linearGradient id="id16" gradientUnits="userSpaceOnUse" xlink:href="#id0" x1="18213.08" y1="16675.94" x2="18232.49" y2="-2389.33">
  </linearGradient>
  <linearGradient id="id17" gradientUnits="userSpaceOnUse" xlink:href="#id0" x1="14180.57" y1="19718.23" x2="4554.14" y2="5472.65">
  </linearGradient>
  <linearGradient id="id18" gradientUnits="userSpaceOnUse" xlink:href="#id0" x1="10751.28" y1="4912.1" x2="10892.33" y2="23079.38">
  </linearGradient>
  <linearGradient id="id19" gradientUnits="userSpaceOnUse" xlink:href="#id0" x1="13006.34" y1="19866.67" x2="3614.87" y2="2153.94">
  </linearGradient>
  <linearGradient id="id20" gradientUnits="userSpaceOnUse" xlink:href="#id0" x1="6960.29" y1="10404.71" x2="13579.64" y2="321.91">
  </linearGradient>
  <linearGradient id="id21" gradientUnits="userSpaceOnUse" xlink:href="#id0" x1="14448.18" y1="6672.45" x2="21067.53" y2="16755.24">
  </linearGradient>
  <linearGradient id="id22" gradientUnits="userSpaceOnUse" xlink:href="#id0" x1="10725.2" y1="5195.84" x2="10744.6" y2="24261.12">
  </linearGradient>
  <linearGradient id="id23" gradientUnits="userSpaceOnUse" xlink:href="#id0" x1="10863.07" y1="4918.59" x2="24497.66" y2="17888.85">
  </linearGradient>
  <linearGradient id="id24" gradientUnits="userSpaceOnUse" xlink:href="#id0" x1="3375.18" y1="16953.19" x2="17009.77" y2="3982.93">
  </linearGradient>
  <linearGradient id="id25" gradientUnits="userSpaceOnUse" xlink:href="#id0" x1="7509.06" y1="10550.28" x2="11761.61" y2="18988.57">
  </linearGradient>
  <linearGradient id="id26" gradientUnits="userSpaceOnUse" xlink:href="#id0" x1="14996.95" y1="14838.61" x2="19249.5" y2="6400.32">
  </linearGradient>
  <linearGradient id="id27" gradientUnits="userSpaceOnUse" xlink:href="#id0" x1="9616.47" y1="16852.55" x2="16103.39" y2="7891.79">
  </linearGradient>
  <linearGradient id="id28" gradientUnits="userSpaceOnUse" xlink:href="#id0" x1="17104.36" y1="5019.23" x2="23591.28" y2="13979.99">
  </linearGradient>
 </defs>
 <g id="Layer_x0020_1">
  <metadata id="CorelCorpID_0Corel-Layer"/>
  <rect class="fil0" x="-0.53" y="7.13" width="29700" height="21000"/>
  <polygon class="fil1" points="7577.54,10609.82 8562.19,8915.4 9292.66,7658.39 10583.15,5437.68 10888.96,4911.43 10279.32,4911.43 6967.89,10609.82 "/>
  <polygon class="fil2" points="15065.43,11261.96 16050.08,12956.38 16780.55,14213.39 18071.04,16434.1 18376.85,16960.35 17767.21,16960.35 14455.78,11261.96 "/>
  <polygon class="fil3" points="14206.17,11773.06 15167.3,13480.95 15880.31,14747.94 17139.96,16986.28 17438.47,17516.71 17747.61,16991.26 14515.31,11247.61 "/>
  <polygon class="fil4" points="21694.06,10098.72 22655.19,8390.83 23368.2,7123.84 24627.85,4885.5 24926.36,4355.07 25235.5,4880.52 22003.2,10624.17 "/>
  <polygon class="fil5" points="9904.83,16907.66 7945.08,16902.13 6491.25,16898.02 3922.81,16890.76 3314.16,16889.04 3618.98,17417.01 10209.65,17435.63 "/>
  <polygon class="fil6" points="17392.72,4964.12 15432.97,4969.65 13979.14,4973.76 11410.7,4981.02 10802.05,4982.74 11106.87,4454.77 17697.54,4436.15 "/>
  <path class="fil7" d="M8099.36 12569.59l1648.4 2842.33c138.33,-105.84 263.71,-223.28 390.52,-341.22l-164.79 -283.7 -259.95 -453.72 -8.73 -15.24 -779.4 -1360.88c-34.78,-60.73 -68.52,-122.71 -100.57,-186.15l-216.1 -377.2 -69.19 -120.76 0.38 0 -249.21 -423.95 -61.46 -107.3 -21.08 -36.81 -207.77 -362.73 -73.96 -128.11 -23.1 -40.01 -325.81 -564.32 -609.65 0 321.51 556.86 306.49 530.88 25.71 43.87 46.87 81.84 125.81 217.89 305.08 528.43z"/>
  <path class="fil8" d="M15587.25 9302.19l1648.4 -2842.33c138.33,105.84 263.71,223.28 390.52,341.22l-164.79 283.7 -259.95 453.72 -8.73 15.24 -779.4 1360.88c-34.78,60.73 -68.52,122.71 -100.57,186.15l-216.1 377.2 -69.19 120.76 0.38 0 -249.21 423.95 -61.46 107.3 -21.08 36.81 -207.77 362.73 -73.96 128.11 -23.1 40.01 -325.81 564.32 -609.65 0 321.51 -556.86 306.49 -530.88 25.71 -43.87 46.87 -81.84 125.81 -217.89 305.08 -528.43z"/>
  <path class="fil9" d="M11341.13 15475.87l1630.97 -2824.87c-160.83,-66.88 -324.9,-126.22 -490.44,-177.07l-157.24 270.21 -262.96 451.98 -8.83 15.18 -794.34 1375.81c-34.99,60.61 -72.01,120.69 -110.93,180.17l-218.61 375.74 -69.99 120.31 -0.19 -0.33 -237.08 407.39 -62.2 106.88 -21.33 36.66 -210.25 361.3 -73.97 128.1 -23.1 40.01 -325.81 564.32 304.82 527.97 321.5 -556.86 306.51 -530.87 -24.82 -44.22 49.96 0.03 47.44 -81.52 125.8 -217.9 305.09 -528.42z"/>
  <path class="fil10" d="M18829.02 6395.91l1630.97 2824.87c-160.83,66.88 -324.9,126.22 -490.44,177.07l-157.24 -270.21 -262.96 -451.98 -8.83 -15.18 -794.34 -1375.81c-34.99,-60.61 -72.01,-120.69 -110.93,-180.17l-218.61 -375.74 -69.99 -120.31 -0.19 0.33 -237.08 -407.39 -62.2 -106.88 -21.33 -36.66 -210.25 -361.3 -73.97 -128.1 -23.1 -40.01 -325.81 -564.32 304.82 -527.97 321.5 556.86 306.51 530.87 -24.82 44.22 49.96 -0.03 47.44 81.52 125.8 217.9 305.09 528.42z"/>
  <path class="fil11 str0" d="M10130.23 15055.16c131.17,-122.68 264.88,-258.47 379.91,-391.86 -115.03,133.39 -239.06,262 -370.23,384.68 -2.95,2.77 -5.91,5.54 -8.88,8.3l111.7 193.46c2.99,3.73 6,7.46 9.02,11.18l-4.11 -2.4 -117.41 -203.36z"/>
  <path class="fil11 str0" d="M17618.12 6816.62c131.17,122.68 264.88,258.47 379.91,391.86 -115.03,-133.39 -239.06,-262 -370.23,-384.68 -2.95,-2.77 -5.91,-5.54 -8.88,-8.3l111.7 -193.46c2.99,-3.73 6,-7.46 9.02,-11.18l-4.11 2.4 -117.41 203.36z"/>
  <path class="fil11 str0" d="M9080.32 11719.1c39.23,175.26 85.14,349.52 141.78,516.31 -56.64,-166.78 -101.27,-329.06 -140.5,-504.33 -0.89,-3.95 -1.77,-7.9 -2.65,-11.86l-223.38 -1.83c-4.74,0.69 -9.47,1.4 -14.21,2.11l4.15 -2.33 234.81 1.93z"/>
  <path class="fil11 str0" d="M16568.21 10152.68c39.23,-175.26 85.14,-349.52 141.78,-516.31 -56.64,166.78 -101.27,329.06 -140.5,504.33 -0.89,3.95 -1.77,7.9 -2.65,11.86l-223.38 1.83c-4.74,-0.69 -9.47,-1.4 -14.21,-2.11l4.15 2.33 234.81 -1.93z"/>
  <path class="fil11 str0" d="M12478.28 12474.31c-171.83,-52.25 -356.28,-100.16 -529.31,-133.09 173.03,32.93 346.42,76.04 518.26,128.29 3.87,1.18 7.75,2.36 11.62,3.55l111.7 -193.46c1.73,-4.46 3.45,-8.93 5.16,-13.41l-0.02 4.77 -117.41 203.35z"/>
  <path class="fil11 str0" d="M19966.17 9397.47c-171.83,52.25 -356.28,100.16 -529.31,133.09 173.03,-32.93 346.42,-76.04 518.26,-128.29 3.87,-1.18 7.75,-2.36 11.62,-3.55l111.7 193.46c1.73,4.46 3.45,8.93 5.16,13.41l-0.02 -4.77 -117.41 -203.35z"/>
  <path class="fil11 str0" d="M10114.11 15051.57c132.17,-121.6 266.99,-256.29 383.11,-388.73 -116.12,132.44 -241.2,260.03 -373.37,381.64 -2.98,2.74 -5.96,5.48 -8.95,8.22l110.11 194.37c2.96,3.76 5.94,7.51 8.93,11.25l-4.09 -2.43 -115.74 -204.32z"/>
  <path class="fil11 str0" d="M17602 6820.21c132.17,121.6 266.99,256.29 383.11,388.73 -116.12,-132.44 -241.2,-260.03 -373.37,-381.64 -2.98,-2.74 -5.96,-5.48 -8.95,-8.22l110.11 -194.37c2.96,-3.76 5.94,-7.51 8.93,-11.25l-4.09 2.43 -115.74 204.32z"/>
  <path class="fil12" d="M12174.64 11218.07l-3400.8 -15.72c21.91,172.9 52.29,344.9 91.1,514l324.88 3.63 543.4 6.02 18.25 0.2 1650.95 13.01c72.73,0.58 146.02,3.17 219.74,7.72l451.74 5.01 144.64 1.6 -0.2 0.33 489.81 5.47 128.5 1.44 44.08 0.49 434.39 4.86 153.74 1.22 48.01 0.37 677.17 5.34 321.27 -525.46 -693.29 -30.33c-289.02,-2.28 -531.64,2.12 -762.82,-0.47l-261.47 -0.16 -623.09 1.43z"/>
  <path class="fil13" d="M19662.53 10653.71l-3400.8 15.72c21.91,-172.9 52.29,-344.9 91.1,-514l324.88 -3.63 543.4 -6.02 18.25 -0.2 1650.95 -13.01c72.73,-0.58 146.02,-3.17 219.74,-7.72l451.74 -5.01 144.64 -1.6 -0.2 -0.33 489.81 -5.47 128.5 -1.44 44.08 -0.49 434.39 -4.86 153.74 -1.22 48.01 -0.37 677.17 -5.34 321.27 525.46 -693.29 30.33c-289.02,2.28 -531.64,-2.12 -762.82,0.47l-261.47 0.16 -623.09 -1.43z"/>
  <path class="fil14" d="M12362.04 8558.89l1193.68 2067.52 -355.5 611.76 609.43 0.38 355.72 -612.14 -3287.26 -5693.7 -305.82 526.25 1497.5 2593.75c52.56,75.38 103.64,155.82 152.99,241.3 49.34,85.47 95.77,173.91 139.26,264.88z"/>
  <path class="fil15" d="M19849.93 13312.89l1193.68 -2067.52 -355.5 -611.76 609.43 -0.38 355.72 612.14 -3287.26 5693.7 -305.82 -526.25 1497.5 -2593.75c52.56,-75.38 103.64,-155.82 152.99,-241.3 49.34,-85.47 95.77,-173.91 139.26,-264.88z"/>
  <g id="_2515942852752">
   <path class="fil16" d="M8587.26 12398.79c0.95,2.49 112.57,199.55 173.09,299.8l1368.71 2370.67c131.16,-122.68 255.19,-251.29 370.23,-384.68l-472.16 -824.11 -517.86 -896.97c-28.64,-49.61 -56.3,-100.21 -82.97,-151.73 -308.53,-602.17 -157.26,-621.1 -799.99,-425.11 -104.48,-101.19 -99.71,-79.16 -112.55,-115.17l4.56 7.9 68.94 119.4c198.98,344.64 186.91,323.75 0,0zm3774.78 -3839.9c381.45,797.94 537,1790.61 454.84,2679.04l383.34 0.24 355.5 -611.76 -1193.68 -2067.52zm-3811.64 380.19l0.94 -2.4 -984.66 1694.42 325.81 564.32 23.1 40.01 0.3 -0.51 73.66 128.62 230.68 399.54 0 0 61.59 106.68c301.02,91.93 511.72,-5.02 755.41,-133.24 -38.52,-164.83 -69.34,-332.43 -92.4,-500.96 -1.25,-9.13 -2.47,-18.26 -3.67,-27.4 -126.97,-963.72 -0.2,-1954.97 393.85,-2633.05l346.46 -596.19c222.26,-382.48 501.95,-617.82 803.67,-710.44 523.55,-160.71 1113.43,108.34 1584.65,784.23l-1497.5 -2593.75 -1290.48 2220.71 -730.47 1257.01 0 0 0 0m492.29 2826.91l147.68 501.97c17.05,-2.65 -16.98,2.34 0,0 -57.49,-162.86 -106.74,-330.86 -147.68,-501.97zm153.32 517.84c114.83,303.24 65.31,176.03 0,0z"/>
   <path class="fil17" d="M10119.98 15075.87c2.79,-2.6 5.58,-5.21 8.36,-7.84 -2.78,2.62 -5.57,5.23 -8.36,7.84zm-0.5 0.48c0.17,-0.16 0.33,-0.32 0.5,-0.48 -0.17,0.16 -0.34,0.32 -0.5,0.48zm112.39 194.67c2.4,2.99 4.81,5.97 7.23,8.96 -2.41,-2.99 -4.83,-5.97 -7.23,-8.96zm254.25 -571.24c-108.47,124.52 -235.46,253.51 -357.78,368.25 123.3,-115.78 248.42,-242.82 357.78,-368.25zm1.18 -1.36c-0.39,0.46 -0.78,0.91 -1.18,1.35 0.39,-0.45 0.78,-0.9 1.18,-1.35zm11.99 -13.84c-1.49,1.73 -2.99,3.46 -4.49,5.2 -2.49,2.87 -5,5.75 -7.5,8.64 4.03,-4.62 8.02,-9.23 11.99,-13.84zm-1253.27 -2272c-82.71,-211.15 -136.33,-431.26 -199.56,-648.99l-3.44 -11.84 -4.42 -15.22 -6.73 -23.17c-30.01,-116 -202.84,-162 -382.45,-118.26 -67.84,16.52 -136.64,45.85 -199.08,89.05 -10.15,7.03 -20.06,14.39 -29.73,22.07 -9.07,7.2 -17.92,14.68 -26.54,22.44 -12.17,10.96 -23.87,22.47 -35.06,34.5 -29.64,31.91 -55.66,67.54 -77.19,106.6l231.95 401.73 4.55 7.9 11.61 20.11 57.33 99.29 173.09 299.8c11.94,24.98 24.1,49.77 36.49,74.36l897.16 1566.34 0.44 0.76 8.34 14.45 0.45 0.78 416.25 721.07 0.69 1.21 111.7 193.46 5.15 8.91 3.88 2.27c-0.6,-0.74 -1.2,-1.48 -1.8,-2.22l5.86 -9.97 300.42 -511.91 -9.12 -15.81c-4.65,-5.79 -9.28,-11.59 -13.87,-17.39l-23.1 -40.32 -472.16 -824.11 -517.86 -896.97c-28.64,-49.61 -56.3,-100.21 -82.95,-151.71 -5.04,-9.71 -10.03,-19.46 -14.98,-29.24 -0.03,-0.05 -0.07,-0.11 -0.09,-0.17l-0.04 -0.08 -0.11 -0.22 -11.03 -21.5c-0.02,-0.06 -0.05,-0.12 -0.07,-0.17 -0.5,-1.09 -0.99,-2.17 -1.5,-3.25 -0.27,-0.61 -0.55,-1.21 -0.83,-1.81 -0.82,-1.79 -1.64,-3.58 -2.46,-5.36 -55.58,-120.94 -108.1,-238.51 -126.03,-279.46 -0.01,-0.04 -0.03,-0.07 -0.04,-0.11 -6.06,-13.84 -8.14,-18.87 -5,-12.25 -2.69,-6.44 -5.09,-12.33 -7.16,-17.64 -0.52,-1.32 -1.01,-2.6 -1.49,-3.85 -0.04,-0.11 -0.08,-0.23 -0.12,-0.34 -0.23,-0.54 -0.44,-1.08 -0.66,-1.61 -3.09,-7.65 -5.73,-14.36 -7.95,-20.19 -0.23,-0.61 -0.46,-1.21 -0.68,-1.8 -0.03,-0.05 -0.04,-0.1 -0.06,-0.16z"/>
  </g>
  <g id="_2515942916064">
   <path class="fil18" d="M5712.58 13798.55l1193.69 -2067.51 707.56 2 -304.39 -527.97 -707.99 -2 -3287.29 5693.68 608.65 1.72 1497.52 -2593.74c39.01,-83.2 83.13,-167.66 132.48,-253.14 49.35,-85.46 102.73,-169.89 159.77,-253.04z"/>
   <path class="fil19" d="M10925.42 15147.69c1.67,-2.07 116.53,-197.26 173.08,-299.8l1368.73 -2370.67c-171.83,-52.25 -345.23,-95.36 -518.26,-128.29l-477.63 820.96 -517.87 896.96c-28.64,49.61 -58.64,98.86 -89.93,147.71 -367.22,568.28 -459.25,446.75 31.85,905.37 -35.4,141.08 -18.71,125.94 -43.47,155.06l4.56 -7.9 68.94 -119.4c198.97,-344.64 186.91,-323.75 0,0zm-5212.84 -1349.14c500.32,-729.32 1282.22,-1360.35 2092.71,-1733.41l-191.46 -332.1 -707.56 -2 -1193.69 2067.51zm2235.05 3110.9l-2.54 0.38 1959.74 5.54 325.81 -564.32 23.1 -40.01 -0.59 0 74.56 -128.1 230.68 -399.54 -0.01 -0.01 61.59 -106.67c-70.89,-306.66 -260.2,-440.65 -493.09,-587.59 -123.48,115.77 -253.22,226.27 -387.65,330.5 -7.28,5.65 -14.57,11.27 -21.88,16.88 -771.12,591.81 -1692.97,977.64 -2477.23,975.43l-689.54 -1.96c-442.36,-1.24 -786.02,-125.79 -1017.09,-340.78 -400.95,-373.06 -462.89,-1018.44 -113.16,-1764.47l-1497.52 2593.74 2568.44 7.26 1453.83 4.11 0.01 -0.01 -0.01 0.01m2202.04 -1839.79l360.89 -378.87c-10.82,-13.44 10.51,13.53 0,0 -112.3,131.21 -233.17,257.87 -360.89,378.87zm371.81 -391.69c205.2,-251.06 119.79,-144.57 0,0z"/>
  </g>
  <g id="_2515942915536">
   <path class="fil20" d="M13200.47 8073.23l1193.69 2067.51 707.56 -2 -304.39 527.97 -707.99 2 -3287.29 -5693.68 608.65 -1.72 1497.52 2593.74c39.01,83.2 83.13,167.66 132.48,253.14 49.35,85.46 102.73,169.89 159.77,253.04z"/>
   <path class="fil21" d="M18413.31 6724.09c1.67,2.07 116.53,197.26 173.08,299.8l1368.73 2370.67c-171.83,52.25 -345.23,95.36 -518.26,128.29l-477.63 -820.96 -517.87 -896.96c-28.64,-49.61 -58.64,-98.86 -89.93,-147.71 -367.22,-568.28 -459.25,-446.75 31.85,-905.37 -35.4,-141.08 -18.71,-125.94 -43.47,-155.06l4.56 7.9 68.94 119.4c198.97,344.64 186.91,323.75 0,0zm-5212.84 1349.14c500.32,729.32 1282.22,1360.35 2092.71,1733.41l-191.46 332.1 -707.56 2 -1193.69 -2067.51zm2235.05 -3110.9l-2.54 -0.38 1959.74 -5.54 325.81 564.32 23.1 40.01 -0.59 0 74.56 128.1 230.68 399.54 -0.01 0.01 61.59 106.67c-70.89,306.66 -260.2,440.65 -493.09,587.59 -123.48,-115.77 -253.22,-226.27 -387.65,-330.5 -7.28,-5.65 -14.57,-11.27 -21.88,-16.88 -771.12,-591.81 -1692.97,-977.64 -2477.23,-975.43l-689.54 1.96c-442.36,1.24 -786.02,125.79 -1017.09,340.78 -400.95,373.06 -462.89,1018.44 -113.16,1764.47l-1497.52 -2593.74 2568.44 -7.26 1453.83 -4.11 0.01 0.01 -0.01 -0.01m2202.04 1839.79l360.89 378.87c-10.82,13.44 10.51,-13.53 0,0 -112.3,-131.21 -233.17,-257.87 -360.89,-378.87zm371.81 391.69c205.2,251.06 119.79,144.57 0,0z"/>
  </g>
  <path class="fil22" d="M12477.49 12475.71c-3.65,-1.11 -7.31,-2.22 -10.97,-3.32 3.66,1.1 7.32,2.21 10.97,3.32zm0.66 0.2c-0.22,-0.07 -0.44,-0.13 -0.66,-0.2 0.22,0.07 0.44,0.13 0.66,0.2zm112.4 -194.67c1.39,-3.58 2.77,-7.15 4.14,-10.75 -1.38,3.59 -2.75,7.17 -4.14,10.75zm-621.84 65.42c162.08,31.69 337.28,77.16 497.81,125.73 -161.92,-48.89 -334.5,-93.73 -497.81,-125.73zm-1.76 -0.34c0.59,0.11 1.18,0.23 1.76,0.35 -0.58,-0.11 -1.17,-0.22 -1.76,-0.35zm-17.98 -3.46c2.24,0.43 4.49,0.86 6.74,1.29 3.74,0.72 7.48,1.45 11.24,2.17 -6.02,-1.17 -12.01,-2.32 -17.98,-3.46zm-1340.99 2221.36c-29.02,36.34 -58.72,72.38 -89.05,108.07 -0.37,0.44 -0.74,0.87 -1.11,1.31l-10.27 10.7 -0.1 0.12 -0.07 0.07 -361.67 377.05 -8.53 8.89 -10.97 11.44 -16.7 17.41c-85.46,83.99 -38.88,256.67 88.81,390.35 48.22,50.48 108.02,95.41 176.65,127.88 11.17,5.27 22.49,10.18 33.98,14.71 10.77,4.26 21.68,8.18 32.71,11.76 15.57,5.07 31.39,9.44 47.4,13.11 42.46,9.73 86.33,14.44 130.91,13.56l231.95 -401.74 4.56 -7.89 11.61 -20.11 57.32 -99.29 173.09 -299.8c15.67,-22.83 31.05,-45.76 46.16,-68.78l907.92 -1560.13 0.43 -0.76 8.35 -14.45 0.45 -0.78 416.34 -721.01 0.7 -1.21 111.7 -193.46 5.14 -8.92 0.02 -4.49c-0.33,0.89 -0.67,1.78 -1.02,2.66l-11.56 -0.08 -593.54 -4.22 -9.13 15.81c-2.69,6.91 -5.4,13.82 -8.13,20.7l-23.36 40.16 -477.63 820.96 -517.87 896.96c-28.64,49.61 -58.64,98.86 -89.91,147.69 -5.9,9.22 -11.84,18.41 -17.83,27.59 -0.04,0.06 -0.07,0.12 -0.11,0.17l-0.04 0.07 -0.14 0.21 -13.11 20.29c-0.04,0.05 -0.08,0.11 -0.11,0.15 -0.69,0.98 -1.38,1.95 -2.07,2.93 -0.39,0.54 -0.77,1.08 -1.15,1.62 -1.14,1.61 -2.27,3.21 -3.41,4.81 -76.95,108.61 -152.5,212.87 -179.01,248.88 -0.02,0.03 -0.04,0.06 -0.07,0.08 -8.95,12.17 -12.27,16.49 -8.11,10.46 -4.23,5.55 -8.13,10.57 -11.7,15.02 -0.88,1.11 -1.74,2.18 -2.59,3.21 -0.07,0.09 -0.15,0.19 -0.23,0.28 -0.36,0.47 -0.72,0.93 -1.07,1.38 -5.08,6.5 -9.57,12.14 -13.5,16.98 -0.42,0.5 -0.82,1 -1.22,1.49 -0.04,0.04 -0.07,0.08 -0.11,0.13z"/>
  <g id="_2515942914240">
   <g>
    <path class="fil15" d="M16075.15 9472.99c0.95,-2.49 112.57,-199.55 173.09,-299.8l1368.71 -2370.67c131.16,122.68 255.19,251.29 370.23,384.68l-472.16 824.11 -517.86 896.97c-28.64,49.61 -56.3,100.21 -82.97,151.73 -308.53,602.17 -157.26,621.1 -799.99,425.11 -104.48,101.19 -99.71,79.16 -112.55,115.17l4.56 -7.9 68.94 -119.4c198.98,-344.64 186.91,-323.75 0,0zm3774.78 3839.9c381.45,-797.94 537,-1790.61 454.84,-2679.04l383.34 -0.24 355.5 611.76 -1193.68 2067.52zm-3811.64 -380.19l0.94 2.4 -984.66 -1694.42 325.81 -564.32 23.1 -40.01 0.3 0.51 73.66 -128.62 230.68 -399.54 0 0 61.59 -106.68c301.02,-91.93 511.72,5.02 755.41,133.24 -38.52,164.83 -69.34,332.43 -92.4,500.96 -1.25,9.13 -2.47,18.26 -3.67,27.4 -126.97,963.72 -0.2,1954.97 393.85,2633.05l346.46 596.19c222.26,382.48 501.95,617.82 803.67,710.44 523.55,160.71 1113.43,-108.34 1584.65,-784.23l-1497.5 2593.75 -1290.48 -2220.71 -730.47 -1257.01 0 0 0 0 -0.94 -2.4zm493.23 -2824.51l147.68 -501.97c17.05,2.65 -16.98,-2.34 0,0 -57.49,162.86 -106.74,330.86 -147.68,501.97zm153.32 -517.84c114.83,-303.24 65.31,-176.03 0,0z"/>
   </g>
   <path class="fil15" d="M17607.87 6795.91c2.79,2.6 5.58,5.21 8.36,7.84 -2.78,-2.62 -5.57,-5.23 -8.36,-7.84zm-0.5 -0.48c0.17,0.16 0.33,0.32 0.5,0.48 -0.17,-0.16 -0.34,-0.32 -0.5,-0.48zm112.39 -194.67c2.4,-2.99 4.81,-5.97 7.23,-8.96 -2.41,2.99 -4.83,5.97 -7.23,8.96zm254.25 571.24c-108.47,-124.52 -235.46,-253.51 -357.78,-368.25 123.3,115.78 248.42,242.82 357.78,368.25zm1.18 1.36c-0.39,-0.46 -0.78,-0.91 -1.18,-1.35 0.39,0.45 0.78,0.9 1.18,1.35zm11.99 13.84c-1.49,-1.73 -2.99,-3.46 -4.49,-5.2 -2.49,-2.87 -5,-5.75 -7.5,-8.64 4.03,4.62 8.02,9.23 11.99,13.84zm-1253.27 2272c-82.71,211.15 -136.33,431.26 -199.56,648.99l-3.44 11.84 -4.42 15.22 -6.73 23.17c-30.01,116 -202.84,162 -382.45,118.26 -67.84,-16.52 -136.64,-45.85 -199.08,-89.05 -10.15,-7.03 -20.06,-14.39 -29.73,-22.07 -9.07,-7.2 -17.92,-14.68 -26.54,-22.44 -12.17,-10.96 -23.87,-22.47 -35.06,-34.5 -29.64,-31.91 -55.66,-67.54 -77.19,-106.6l231.95 -401.73 4.55 -7.9 11.61 -20.11 57.33 -99.29 173.09 -299.8c11.94,-24.98 24.1,-49.77 36.49,-74.36l897.16 -1566.34 0.44 -0.76 8.34 -14.45 0.45 -0.78 416.25 -721.07 0.69 -1.21 111.7 -193.46 5.15 -8.91 3.88 -2.27c-0.6,0.74 -1.2,1.48 -1.8,2.22l5.86 9.97 300.42 511.91 -9.12 15.81c-4.65,5.79 -9.28,11.59 -13.87,17.39l-23.1 40.32 -472.16 824.11 -517.86 896.97c-28.64,49.61 -56.3,100.21 -82.95,151.71 -5.04,9.71 -10.03,19.46 -14.98,29.24 -0.03,0.05 -0.07,0.11 -0.09,0.17l-0.04 0.08 -0.11 0.22 -11.03 21.5c-0.02,0.06 -0.05,0.12 -0.07,0.17 -0.5,1.09 -0.99,2.17 -1.5,3.25 -0.27,0.61 -0.55,1.21 -0.83,1.81 -0.82,1.79 -1.64,3.58 -2.46,5.36 -55.58,120.94 -108.1,238.51 -126.03,279.46 -0.01,0.04 -0.03,0.07 -0.04,0.11 -6.06,13.84 -8.14,18.87 -5,12.25 -2.69,6.44 -5.09,12.33 -7.16,17.64 -0.52,1.32 -1.01,2.6 -1.49,3.85 -0.04,0.11 -0.08,0.23 -0.12,0.34 -0.23,0.54 -0.44,1.08 -0.66,1.61 -3.09,7.65 -5.73,14.36 -7.95,20.19 -0.23,0.61 -0.46,1.21 -0.68,1.8 -0.03,0.05 -0.04,0.1 -0.06,0.16z"/>
  </g>
  <path class="fil23" d="M20306.65 10655.13l8.98 -0.01c76.08,822.69 -51.7,1734.71 -373.9,2498.77l-91.8 159c378.41,-791.58 534.47,-1774.78 456.72,-2657.76zm-2291.91 3959.96c512.99,134.32 1084.19,-138.02 1542.94,-796.02l-93.41 161.79"/>
  <path class="fil24" d="M19965.38 9396.07c-3.65,1.11 -7.31,2.22 -10.97,3.32 3.66,-1.1 7.32,-2.21 10.97,-3.32zm0.66 -0.2c-0.22,0.07 -0.44,0.13 -0.66,0.2 0.22,-0.07 0.44,-0.13 0.66,-0.2zm112.4 194.67c1.39,3.58 2.77,7.15 4.14,10.75 -1.38,-3.59 -2.75,-7.17 -4.14,-10.75zm-621.84 -65.42c162.08,-31.69 337.28,-77.16 497.81,-125.73 -161.92,48.89 -334.5,93.73 -497.81,125.73zm-1.76 0.34c0.59,-0.11 1.18,-0.23 1.76,-0.35 -0.58,0.11 -1.17,0.22 -1.76,0.35zm-17.98 3.46c2.24,-0.43 4.49,-0.86 6.74,-1.29 3.74,-0.72 7.48,-1.45 11.24,-2.17 -6.02,1.17 -12.01,2.32 -17.98,3.46zm-1340.99 -2221.36c-29.02,-36.34 -58.72,-72.38 -89.05,-108.07 -0.37,-0.44 -0.74,-0.87 -1.11,-1.31l-10.27 -10.7 -0.1 -0.12 -0.07 -0.07 -361.67 -377.05 -8.53 -8.89 -10.97 -11.44 -16.7 -17.41c-85.46,-83.99 -38.88,-256.67 88.81,-390.35 48.22,-50.48 108.02,-95.41 176.65,-127.88 11.17,-5.27 22.49,-10.18 33.98,-14.71 10.77,-4.26 21.68,-8.18 32.71,-11.76 15.57,-5.07 31.39,-9.44 47.4,-13.11 42.46,-9.73 86.33,-14.44 130.91,-13.56l231.95 401.74 4.56 7.89 11.61 20.11 57.32 99.29 173.09 299.8c15.67,22.83 31.05,45.76 46.16,68.78l907.92 1560.13 0.43 0.76 8.35 14.45 0.45 0.78 416.34 721.01 0.7 1.21 111.7 193.46 5.14 8.92 0.02 4.49c-0.33,-0.89 -0.67,-1.78 -1.02,-2.66l-11.56 0.08 -593.54 4.22 -9.13 -15.81c-2.69,-6.91 -5.4,-13.82 -8.13,-20.7l-23.36 -40.16 -477.63 -820.96 -517.87 -896.96c-28.64,-49.61 -58.64,-98.86 -89.91,-147.69 -5.9,-9.22 -11.84,-18.41 -17.83,-27.59 -0.04,-0.06 -0.07,-0.12 -0.11,-0.17l-0.04 -0.07 -0.14 -0.21 -13.11 -20.29c-0.04,-0.05 -0.08,-0.11 -0.11,-0.15 -0.69,-0.98 -1.38,-1.95 -2.07,-2.93 -0.39,-0.54 -0.77,-1.08 -1.15,-1.62 -1.14,-1.61 -2.27,-3.21 -3.41,-4.81 -76.95,-108.61 -152.5,-212.87 -179.01,-248.88 -0.02,-0.03 -0.04,-0.06 -0.07,-0.08 -8.95,-12.17 -12.27,-16.49 -8.11,-10.46 -4.23,-5.55 -8.13,-10.57 -11.7,-15.02 -0.88,-1.11 -1.74,-2.18 -2.59,-3.21 -0.07,-0.09 -0.15,-0.19 -0.23,-0.28 -0.36,-0.47 -0.72,-0.93 -1.07,-1.38 -5.08,-6.5 -9.57,-12.14 -13.5,-16.98 -0.42,-0.5 -0.82,-1 -1.22,-1.49 -0.04,-0.04 -0.07,-0.08 -0.11,-0.13z"/>
  <path class="fil25" d="M13560.59 16956.96l-2387.28 -19.56 -347.01 -616.62 -309.35 525.08 347.22 617 6574.3 53.85 -298.51 -530.43 -2994.89 -24.53c-91.63,7.07 -186.86,10.3 -285.56,9.49 -98.69,-0.8 -198.45,-5.63 -298.92,-14.28zm-1739.47 -4639.52l0.19 0.04 1.93 0.3 0.22 0.04 1.9 0.31 0.1 0.01 -2 -0.32 -0.16 -0.02 -1.99 -0.32 -0.16 -0.03m6.33 1.02l0.29 0.05 1.83 0.29 0.17 0.03 -2 -0.32 -0.15 -0.03 -2.01 -0.32 1.87 0.3zm4.24 0.69l0.35 0.06 1.77 0.28 0.39 0.07 1.73 0.28 0.42 0.07 1.7 0.28 0.45 0.07m1.67 0.28l0.49 0.08 1.64 0.26 0.51 0.09 1.61 0.26 0.55 0.1 1.57 0.26 0.58 0.1 1.54 0.25 0.62 0.11 1.5 0.24 0.65 0.12 1.48 0.24 0.67 0.12 1.45 0.24 0.71 0.12 1.41 0.23 0.74 0.13 1.38 0.23 0.78 0.14 1.34 0.22 0.7 0.12 -2.04 -0.34 -0.12 -0.03 -2.04 -0.34 -0.11 -0.02 -2.04 -0.34 -0.12 -0.03 -0.59 -0.09m19.1 3.25l1 0.17 1.12 0.19 1.03 0.19 1.09 0.18 1.07 0.19 3.18 0.55 1.13 0.2 0.99 0.17 1.16 0.21 0.96 0.16 1.2 0.21 0.93 0.16 1.14 0.21 -2.07 -0.37 -0.08 -0.01 -1.12 -0.2m6.37 1.12l1.3 0.24 0.82 0.14 1.26 0.22 -2.08 -0.36 -0.08 -0.02 -2.08 -0.37 0.86 0.15zm4.25 0.76l1.36 0.24 0.76 0.13 1.4 0.26 0.72 0.12 1.36 0.25 -2.08 -0.37 -0.07 -0.02 -2.09 -0.37 -0.07 -0.01 -1.29 -0.23zm6.36 1.13l1.47 0.27 0.66 0.11 1.49 0.27 0.63 0.11 1.53 0.28 0.59 0.11 1.56 0.28 0.57 0.1 1.59 0.29 0.53 0.09 1.58 0.3 -2.11 -0.39 -0.05 -0.01 -2.11 -0.38 -0.05 -0.01 -1.51 -0.27m6.38 1.15l1.65 0.31 0.47 0.08 1.69 0.31 0.44 0.08 1.67 0.31 -2.11 -0.39 -0.05 -0.01 -1.64 -0.3m6.37 1.17l1.79 0.33 0.33 0.06 1.79 0.33 -2.12 -0.39 -0.04 -0.01 -1.75 -0.32zm4.25 0.78l1.85 0.34 0.27 0.06m2.13 0.39l1.91 0.35 0.21 0.04 1.95 0.37 0.18 0.03 1.97 0.37 0.15 0.03 2.01 0.38 0.11 0.01 2.05 0.39 0.07 0.01 2.09 0.4 0.04 0 2.1 0.4 -2.14 -0.4 -0.02 -0.01 -2.14 -0.4 -0.02 0 -2.14 -0.4 -0.02 -0.01 -1.99 -0.37m10.62 2l0.02 0.01 2.1 0.39 0.05 0.01 -2.15 -0.4 -0.01 -0.01 -0.01 0zm6.24 1.19l0.06 0.01 0.06 0.01 0.06 0.01 0.07 0.01c0.56,0.11 1.12,0.22 1.68,0.33l14.38 3.66 0.14 0.03c-2.54,6.44 -1.34,3.56 0.1,0.03l506.33 128.83 11.95 3.05 15.35 3.9 0.04 0.01 23.27 5.92 0.07 0.02c115.21,32.95 242.49,-92.68 295.87,-269.67l0.94 -3.14 0.14 -0.51 0.78 -2.64 0.29 -1.01 0.62 -2.15 0.42 -1.53 0.46 -1.64 0.57 -2.05 0.31 -1.13 0.69 -2.57 0.16 -0.62 0.82 -3.1 0.03 -0.1 0.82 -3.21 0.11 -0.42 0.7 -2.8 0.24 -0.94 0.14 -0.58 0.77 -3.18 0.42 -1.77 0.47 -1.99 0.29 -1.26 0.12 -0.52 0.62 -2.73 0.69 -3.07 0.05 -0.2 0.71 -3.28 0.06 -0.32 0.63 -2.96 0.17 -0.86 0.5 -2.43 0.28 -1.4 0.38 -1.9 0.38 -1.94 0.26 -1.37 0.47 -2.48 0.15 -0.84 0.55 -3.02 0.06 -0.3 0.59 -3.33 0.04 -0.24 0.53 -3.11 0.12 -0.78c1.08,-6.43 2.05,-12.91 2.92,-19.42l0.02 -0.14 0.43 -3.26 0.08 -0.68 0.34 -2.71 0.15 -1.24 0.26 -2.17 0.2 -1.79 0.18 -1.62 0.26 -2.35 0.11 -1.07 0.3 -2.91 0.05 -0.52 0.33 -3.43 0 -0.03 0.35 -3.99 0.25 -2.86 0.09 -1.14 0.18 -2.31 0.13 -1.7 0.12 -1.75 0.16 -2.27 0.08 -1.19 0.17 -2.84 0.04 -0.63 0.19 -3.4 0 -0.07 0.17 -3.47 0.03 -0.49 0.13 -2.99 0.04 -1.05 0 -0.12 0.13 -3.71 0.01 -0.23 0.06 -1.87 0.05 -2.18 0.04 -1.31 0.06 -2.76 0.01 -0.74 0.05 -3.32 0 -0.18 0.03 -3.51 0 -0.39 0.01 -3.12 0 -0.95 -0.01 -2.56 -0.01 -1.53 -0.03 -1.99 -0.03 -2.1 -0.02 -1.42 -0.06 -2.67 -0.02 -0.86 -0.08 -3.24 -0.02 -0.29 -0.01 -0.6 -0.12 -3.22 -0.12 -3.24 -0.04 -0.86c-0.18,-4.06 -0.4,-8.12 -0.67,-12.18l-0.01 -0.16 -0.06 -0.97 -0.22 -3.16 -0.03 -0.39 -0.05 -0.58 -0.04 -0.57 -0.04 -0.58 -0.05 -0.58 -0.04 -0.57 -0.05 -0.58 -0.02 -0.27 -0.03 -0.31 -0.05 -0.57 -0.04 -0.58 -0.06 -0.58 -0.04 -0.58 -0.05 -0.57 -0.26 -2.88 -0.05 -0.58c-0.81,-8.81 -1.83,-17.62 -3.04,-26.43 -1.6,-11.44 -3.55,-22.9 -5.88,-34.34 -3.24,-15.94 -7.21,-31.86 -11.95,-47.72 -10.55,-35.24 -24.89,-70.16 -43.5,-104.18l-0.86 -1.58 -0.14 -0.25 -0.88 -1.59 -0.13 -0.23 -0.9 -1.62 -0.12 -0.19 -0.92 -1.66 -0.1 -0.16 -0.96 -1.68 -0.08 -0.13 -0.97 -1.71 -0.07 -0.1 -1 -1.74 -0.04 -0.07 -1.03 -1.76 -0.03 -0.04 -1.06 -1.8 -463.87 -3.8 -9.12 -0.07 9.12 0.06c-15.71,-3.01 -21.1,-3.52 -32.33,-0.26l-0.01 0 -114.64 -0.94 -346.16 -2.83 57.67 0.47 1.79 0.01 -0.08 0 -1.67 -0.01 -0.04 0m78.33 586.95l-2.15 -0.41 2.07 0.4 0.07 0.01 0.01 0zm-15.12 -2.86l-2.13 -0.39 -0.02 -0.01 -1.93 -0.36m-4.55 -0.84l-2.13 -0.4 0.31 0.06m-21.93 -4l-2.09 -0.37 -0.07 -0.02 -2.09 -0.37 0.69 0.12m-18.02 -3.19l-2.07 -0.36 -0.09 -0.02 -4.22 -0.73 -0.09 -0.02m-4.32 -0.75l-6.01 -1.03 0.86 0.15 0.94 0.16 1.18 0.2 0.97 0.17 1.16 0.2 0.9 0.15zm-6.47 -1.11l-2.05 -0.34 1.25 0.2 0.8 0.14zm-2.16 -0.37l-2.04 -0.35 1.28 0.22 0.76 0.13zm-2.15 -0.36l-2.05 -0.35 1.31 0.22 0.74 0.13zm-12.94 -2.19l-2.03 -0.33 -0.13 -0.03 -0.49 -0.08m-14.61 -2.41l-2.01 -0.32 -0.14 -0.03 -2.01 -0.32 1.8 0.29m-414.98 -47.13l24.36 1.43c0.07,0.01 0.13,0.01 0.19,0.02 1.18,0.12 2.37,0.24 3.56,0.35 0.66,0.08 1.32,0.14 1.98,0.2 1.96,0.21 3.92,0.4 5.87,0.6l0.47 0.05c-21.98,-1.6 -44.73,-3.13 -68.49,-4.52l-0.51 -0.03 -0.49 -0.02 -0.02 0 -2.69 -0.15 -0.03 0 -2.69 -0.15 -0.02 0 -2.7 -0.14 -0.01 0 -2.7 -0.14 -0.02 0 -2.69 -0.13 -0.02 0 -2.7 -0.14 -0.01 0 -2.7 -0.14 -0.01 0 -2.7 -0.13 -0.01 0 -2.7 -0.13 -0.01 0 -2.7 -0.13 -0.01 0 -2.7 -0.13 -0.02 0 -2.69 -0.12 -0.02 0 -2.69 -0.12 -0.01 0 -2.7 -0.12 -0.01 0 -2.7 -0.12 -0.01 0 -2.7 -0.12 -0.01 0 -2.7 -0.12 -0.01 0 -2.69 -0.11 -0.02 0 -2.69 -0.11 -0.01 0 -2.7 -0.11 -0.01 0 -2.7 -0.11 0 0 -2.7 -0.1 -0.01 0 -2.7 -0.1 0 0 -2.7 -0.11 -0.01 0 -2.7 -0.1 -2.7 -0.1 -2.7 -0.09 -0.01 0 -2.7 -0.1 0 0 -2.7 -0.09 -0.01 0 -2.7 -0.09 -2.69 -0.09 -0.01 0 -2.7 -0.08 -2.7 -0.09 0 0 -2.7 -0.08 0 0 -2.7 -0.08 -2.7 -0.08 -2.7 -0.07 -2.69 -0.08 -2.7 -0.07 -2.7 -0.07 -2.69 -0.07 -0.01 0 -2.69 -0.07 -2.7 -0.06 -2.69 -0.06 -2.7 -0.06 0 0 -2.69 -0.06 -2.7 -0.06 -2.69 -0.05 -2.69 -0.05 -2.7 -0.05 -2.69 -0.05 -2.69 -0.05 -2.69 -0.05 -2.69 -0.04 -2.69 -0.04 -2.69 -0.04 -2.69 -0.04 -2.69 -0.03 -2.69 -0.03 -2.68 -0.03 -2.69 -0.03 -2.69 -0.03 -2.68 -0.02 -2.69 -0.03 -1035.69 -8.49 -959.32 -10.46 0 0c-1.28,0.09 -2.23,-0.01 -2.43,-0.61 -54.42,-161.26 -110.71,-326.04 -148.98,-495.41 -0.7,-3.13 0.37,-6.01 3.03,-8.67 -1.83,-7.91 -3.63,-15.8 -5.39,-23.67l107.18 1.41c207.83,-17.01 658.97,6.42 743.67,7.28l0.9 0.01 17.56 0.2 1804.97 20.99c27.47,1.8 55.01,3.88 82.6,6.26 117.09,-1.33 343.53,2.39 346.15,2.83l-49.46 -0.4 -1.23 -0.01 -12.03 -0.1 -12.35 -0.1 24.38 0.2m-341.4 553.89l-2.79 -0.24 1.32 0.18 0.12 0.01 0.21 0.03 0.11 0.02 0.22 0.03 0.1 0.01 1.52 0.21 0.07 0.01 0.25 0.04 0.06 0 0.94 0.14 0.28 0.04 0.03 0 0.29 0.04 0.03 0 0.28 0.05 0.02 0 0.62 0.08 0 0.01 0.3 0.04 0.31 0.04 0.01 0 0.29 0.04 0.02 0.01 0.28 0.04 0.03 0.01 0.58 0.08 0.04 0 0.26 0.04 0.04 0.01 0.26 0.03 0.05 0.01 0.25 0.04 0.05 0.01 0.25 0.03 0.06 0.01 0.23 0.03 0.08 0.01 0.22 0.04 0.08 0.01 0.22 0.03 0.08 0.01 0.21 0.03 0.09 0.02 0.21 0.02 0.09 0.02 0.2 0.03 0.1 0.02 0.19 0.02 0.11 0.02 0.17 0.03 0.12 0.01 0.18 0.03 0.12 0.02 0.17 0.02 0.12 0.02 0.16 0.03 0.13 0.01 0.16 0.03 0.14 0.02 0.14 0.02 0.15 0.03 0.14 0.01 0.15 0.03 0.13 0.02 0.16 0.02 0.13 0.02 0.16 0.03 0.12 0.01 0.17 0.03 0.11 0.01 0.17 0.03 0.11 0.02 0.18 0.03 0.1 0.01 0.19 0.03 0.08 0.02 0.2 0.02 0.08 0.02 0.2 0.03 0.08 0.01 0.2 0.03 0.07 0.01 0.21 0.04 0.06 0.01 0.22 0.03 0.06 0.01 0.22 0.03 0.05 0.01 0.23 0.04 0.04 0 0.24 0.04 0.03 0 0.24 0.04 0.03 0.01 0.25 0.04 0.02 0 0.25 0.04 0.02 0.01 0.25 0.04 0.01 0 0.26 0.04 0.01 0 0.26 0.04 0.06 0.01 0.07 0.01 0.07 0.02 0 0c27.94,4.89 80.86,14.05 166.71,28.77l0.09 0.02 0.09 0.02 0.12 0.02 0.12 0.02m133.17 -585.57l-17.08 -0.14 -32.07 -0.26 4.9 0.04 -14.64 -0.12 -10.39 -0.09 -21.99 -0.18 16.28 0.13 -17.21 -0.14m75.12 0.62l-10.62 -0.09 27.7 0.23m-69.28 -0.57l-5.71 -0.05m-56.51 -0.46l-3.93 -0.03 -7.29 -0.06 -5.2 -0.05 -12.21 -0.09 -30.54 -0.25 -5.62 -0.05 -0.8 -0.01 -2.93 -0.02 -11.6 -0.1m-2721.66 -34.13c-30.74,2.91 -55.33,6.82 -71.4,11.99 -1.56,-1.14 -2.5,-1.58 -2.31,-0.76 -0.19,-0.82 0.75,-0.38 2.31,0.76 -0.71,0.23 -1.31,0.47 -1.98,0.7l-0.33 -1.46 0.33 1.46c-2.74,0.94 -5.19,1.93 -7.38,2.96 -2.95,-13.27 -2.4,-19.54 2.98,-16.29l1.4 0.01 76.38 0.63zm2884.13 35.47l-20.13 -0.17m-62.22 -0.51l-16.42 -0.14m-48.37 -0.39l-7.8 -0.06 -3.11 -0.03m1677.78 5202.93c-881.17,-75.85 -1815.62,-445.14 -2539.71,-966.46l-194.58 330.28 347.01 616.62 2387.28 19.56zm1605.12 -3478.04l1.58 2.02 -961.12 -1707.87 -651.6 -5.34 -46.19 -0.38 0.28 0.51 -148.21 -1.73 -461.34 -3.78 0 0.01 -123.17 -1.01m-245.61 725.75c153.92,48.75 306.4,104.76 456.03,167.29 8.51,3.55 17,7.12 25.48,10.72 895.01,379.25 1685.09,991.16 2069.72,1674.63l338.17 600.92c216.95,385.51 277.97,745.91 204.8,1052.93 -126.97,532.75 -657.98,904.73 -1479.46,968.16l2994.89 24.54 -1259.65 -2238.35 -713.01 -1267 -0.01 0 0.01 0m-3210.21 -1139.6l-0.07 -0.01 -0.06 -0.01 -0.06 -0.01 0.06 0.01 0.06 0.01 0.07 0.01zm-0.25 -0.04l-0.06 -0.01 0.06 0.01 -0.06 -0.01 -0.06 -0.01 -0.06 -0.02 -0.06 -0.01 -0.1 -0.01 -0.09 -0.02 -0.08 -0.02 -0.09 -0.02 -0.1 -0.01 -0.09 -0.02 -0.09 -0.02 -0.09 -0.01 -0.09 -0.02 -0.09 -0.02 -0.09 -0.02 -0.1 -0.01 -0.09 -0.03 -0.09 -0.01 -0.09 -0.02 -0.09 -0.02 -0.08 -0.01 -0.07 -0.02 -0.06 -0.01 0 0m-2874.58 -621.7c0.05,0.23 0.1,0.45 0.15,0.69 -0.05,-0.24 -0.1,-0.47 -0.15,-0.69zm2745.11 598.91l0.15 0.03m4.16 0.67l0.15 0.03m4.16 0.67l0.15 0.03m5.97 0.98l0.35 0.05 0.14 0.03m1.64 0.26l0.38 0.07 0.13 0.02m3.73 0.62l0.45 0.07 0.13 0.03m4.19 0.69l0.12 0.03m1.48 0.24l0.55 0.09 0.12 0.03m8.51 1.43l0.11 0.02m2.05 0.35l0.11 0.01m10.67 1.83l0.1 0.02m10.69 1.86l0.08 0.02m4.23 0.74l0.09 0.02 2.08 0.36 0.07 0.01m10.71 1.91l0.07 0.01m4.25 0.76l0.06 0.01m0.63 0.11l1.47 0.27 0.06 0.01m6.97 1.26l1.6 0.29 0.05 0.02m10.75 1.97l0.03 0m2.13 0.4l0.03 0m2.4 0.45l1.88 0.35 0.03 0m4.29 0.8l0.02 0.01m12.94 2.44l0.01 0m20.52 4.84l0.09 0.03m-556.65 -73.36l0.24 0.02 24.12 1.41m11.6 1.17c132.42,13.43 260.38,27.77 304.77,33.09 0.04,0 0.08,0 0.11,0.01l0.7 0.09 0.01 0 0.67 0.08 0.03 0.01 0.64 0.07 0.04 0.01 0.61 0.07 0.06 0.01 0.58 0.06 0.07 0.02 0.55 0.06 0.08 0.01 0.54 0.06 0.08 0.01 0.51 0.07 0.1 0.01 0.48 0.06 0.11 0.01 0.46 0.06 0.11 0.01 0.44 0.05 0.12 0.02 0.42 0.05 0.13 0.02 0.39 0.04 0.14 0.03 0.37 0.04 0.14 0.02 0.35 0.04 0.15 0.02 0.32 0.04 0.16 0.02 0.3 0.04 0.16 0.02 0.29 0.03 0.17 0.02 0.26 0.04 0.17 0.02 0.25 0.03 0.17 0.02 0.23 0.03 0.17 0.03 0.21 0.02 0.18 0.03 0.19 0.02 0.17 0.02 0.18 0.03 0.18 0.02 0.16 0.02 0.17 0.02 0.15 0.02 0.17 0.02 0.14 0.02 0.29 0.04 0.16 0.02 0.11 0.02 0.16 0.02 0.09 0.02 0.16 0.02 0.09 0.01 0.15 0.02 0.07 0.01 0.15 0.02 0.06 0.01 0.14 0.02 0.05 0.01 0.13 0.02 0.05 0.01 0.12 0.02 0.03 0 0.12 0.02 0.03 0.01 0.1 0.01 0.02 0.01 0.09 0.01 0.02 0.01 0.08 0.01 0.01 0 0.07 0.01 0.01 0.01 0.05 0.01 0.01 0 0.04 0.01 0.03 0.03 -0.03 0 -0.01 0 -0.18 0 -0.1 0 0 0 -0.12 0 0 -0.01 -0.13 0 -0.01 -0.01 -0.14 0 -0.02 -0.01 -0.15 0 -0.02 -0.01"/>
  <g>
   <path class="fil26" d="M21048.48 4914.82l-2387.28 19.56 -347.01 616.62 -309.35 -525.08 347.22 -617 6574.3 -53.85 -298.51 530.43 -2994.89 24.53c-91.63,-7.07 -186.86,-10.3 -285.56,-9.49 -98.69,0.8 -198.45,5.63 -298.92,14.28zm-1739.47 4639.52l0.19 -0.04 1.93 -0.3 0.22 -0.04 1.9 -0.31 0.1 -0.01 -2 0.32 -0.16 0.02 -1.99 0.32 -0.16 0.03 -0.03 0.01zm6.36 -1.03l0.29 -0.05 1.83 -0.29 0.17 -0.03 -2 0.32 -0.15 0.03 -2.01 0.32 1.87 -0.3zm4.24 -0.69l0.35 -0.06 1.77 -0.28 0.39 -0.07 1.73 -0.28 0.42 -0.07 1.7 -0.28 0.45 -0.07 -6.81 1.11zm8.48 -1.39l0.49 -0.08 1.64 -0.26 0.51 -0.09 1.61 -0.26 0.55 -0.1 1.57 -0.26 0.58 -0.1 1.54 -0.25 0.62 -0.11 1.5 -0.24 0.65 -0.12 1.48 -0.24 0.67 -0.12 1.45 -0.24 0.71 -0.12 1.41 -0.23 0.74 -0.13 1.38 -0.23 0.78 -0.14 1.34 -0.22 0.7 -0.12 -2.04 0.34 -0.12 0.03 -2.04 0.34 -0.11 0.02 -2.04 0.34 -0.12 0.03 -0.59 0.09 -14.86 2.47zm33.96 -5.72l1 -0.17 1.12 -0.19 1.03 -0.19 1.09 -0.18 1.07 -0.19 3.18 -0.55 1.13 -0.2 0.99 -0.17 1.16 -0.21 0.96 -0.16 1.2 -0.21 0.93 -0.16 1.14 -0.21 -2.07 0.37 -0.08 0.01 -1.12 0.2 -12.73 2.21zm19.1 -3.33l1.3 -0.24 0.82 -0.14 1.26 -0.22 -2.08 0.36 -0.08 0.02 -2.08 0.37 0.86 -0.15zm4.25 -0.76l1.36 -0.24 0.76 -0.13 1.4 -0.26 0.72 -0.12 1.36 -0.25 -2.08 0.37 -0.07 0.02 -2.09 0.37 -0.07 0.01 -1.29 0.23zm6.36 -1.13l1.47 -0.27 0.66 -0.11 1.49 -0.27 0.63 -0.11 1.53 -0.28 0.59 -0.11 1.56 -0.28 0.57 -0.1 1.59 -0.29 0.53 -0.09 1.58 -0.3 -2.11 0.39 -0.05 0.01 -2.11 0.38 -0.05 0.01 -1.51 0.27 -6.37 1.15zm12.75 -2.3l1.65 -0.31 0.47 -0.08 1.69 -0.31 0.44 -0.08 1.67 -0.31 -2.11 0.39 -0.05 0.01 -1.64 0.3 -2.12 0.39zm8.49 -1.56l1.79 -0.33 0.33 -0.06 1.79 -0.33 -2.12 0.39 -0.04 0.01 -1.75 0.32zm4.25 -0.78l1.85 -0.34 0.27 -0.06 -2.12 0.4zm4.25 -0.79l1.91 -0.35 0.21 -0.04 1.95 -0.37 0.18 -0.03 1.97 -0.37 0.15 -0.03 2.01 -0.38 0.11 -0.01 2.05 -0.39 0.07 -0.01 2.09 -0.4 0.04 0 2.1 -0.4 -2.14 0.4 -0.02 0.01 -2.14 0.4 -0.02 0 -2.14 0.4 -0.02 0.01 -1.99 0.37 -6.37 1.19zm16.99 -3.19l0.02 -0.01 2.1 -0.39 0.05 -0.01 -2.15 0.4 -0.01 0.01 -0.01 0zm6.24 -1.19l0.06 -0.01 0.06 -0.01 0.06 -0.01 0.07 -0.01c0.56,-0.11 1.12,-0.22 1.68,-0.33l14.38 -3.66 0.14 -0.03c-2.54,-6.44 -1.34,-3.56 0.1,-0.03l506.33 -128.83 11.95 -3.05 15.35 -3.9 0.04 -0.01 23.27 -5.92 0.07 -0.02c115.21,-32.95 242.49,92.68 295.87,269.67l0.94 3.14 0.14 0.51 0.78 2.64 0.29 1.01 0.62 2.15 0.42 1.53 0.46 1.64 0.57 2.05 0.31 1.13 0.69 2.57 0.16 0.62 0.82 3.1 0.03 0.1 0.82 3.21 0.11 0.42 0.7 2.8 0.24 0.94 0.14 0.58 0.77 3.18 0.42 1.77 0.47 1.99 0.29 1.26 0.12 0.52 0.62 2.73 0.69 3.07 0.05 0.2 0.71 3.28 0.06 0.32 0.63 2.96 0.17 0.86 0.5 2.43 0.28 1.4 0.38 1.9 0.38 1.94 0.26 1.37 0.47 2.48 0.15 0.84 0.55 3.02 0.06 0.3 0.59 3.33 0.04 0.24 0.53 3.11 0.12 0.78c1.08,6.43 2.05,12.91 2.92,19.42l0.02 0.14 0.43 3.26 0.08 0.68 0.34 2.71 0.15 1.24 0.26 2.17 0.2 1.79 0.18 1.62 0.26 2.35 0.11 1.07 0.3 2.91 0.05 0.52 0.33 3.43 0 0.03 0.35 3.99 0.25 2.86 0.09 1.14 0.18 2.31 0.13 1.7 0.12 1.75 0.16 2.27 0.08 1.19 0.17 2.84 0.04 0.63 0.19 3.4 0 0.07 0.17 3.47 0.03 0.49 0.13 2.99 0.04 1.05 0 0.12 0.13 3.71 0.01 0.23 0.06 1.87 0.05 2.18 0.04 1.31 0.06 2.76 0.01 0.74 0.05 3.32 0 0.18 0.03 3.51 0 0.39 0.01 3.12 0 0.95 -0.01 2.56 -0.01 1.53 -0.03 1.99 -0.03 2.1 -0.02 1.42 -0.06 2.67 -0.02 0.86 -0.08 3.24 -0.02 0.29 -0.01 0.6 -0.12 3.22 -0.12 3.24 -0.04 0.86c-0.18,4.06 -0.4,8.12 -0.67,12.18l-0.01 0.16 -0.06 0.97 -0.22 3.16 -0.03 0.39 -0.05 0.58 -0.04 0.57 -0.04 0.58 -0.05 0.58 -0.04 0.57 -0.05 0.58 -0.02 0.27 -0.03 0.31 -0.05 0.57 -0.04 0.58 -0.06 0.58 -0.04 0.58 -0.05 0.57 -0.26 2.88 -0.05 0.58c-0.81,8.81 -1.83,17.62 -3.04,26.43 -1.6,11.44 -3.55,22.9 -5.88,34.34 -3.24,15.94 -7.21,31.86 -11.95,47.72 -10.55,35.24 -24.89,70.16 -43.5,104.18l-0.86 1.58 -0.14 0.25 -0.88 1.59 -0.13 0.23 -0.9 1.62 -0.12 0.19 -0.92 1.66 -0.1 0.16 -0.96 1.68 -0.08 0.13 -0.97 1.71 -0.07 0.1 -1 1.74 -0.04 0.07 -1.03 1.76 -0.03 0.04 -1.06 1.8 -463.87 3.8 -9.12 0.07 9.12 -0.06c-15.71,3.01 -21.1,3.52 -32.33,0.26l-0.01 0 -114.64 0.94 -346.16 2.83 57.67 -0.47 1.79 -0.01 -0.08 0 -1.67 0.01 -0.04 0 80.24 -587.32zm-1.91 0.37l-2.15 0.41 2.07 -0.4 0.07 -0.01 0.01 0zm-15.12 2.86l-2.13 0.39 -0.02 0.01 -1.93 0.36 4.08 -0.76zm-8.63 1.6l-2.13 0.4 0.31 -0.06 1.82 -0.34zm-23.75 4.34l-2.09 0.37 -0.07 0.02 -2.09 0.37 0.69 -0.12 3.56 -0.64zm-21.58 3.83l-2.07 0.36 -0.09 0.02 -4.22 0.73 -0.09 0.02 6.47 -1.13zm-10.79 1.88l-6.01 1.03 0.86 -0.15 0.94 -0.16 1.18 -0.2 0.97 -0.17 1.16 -0.2 0.9 -0.15zm-6.47 1.11l-2.05 0.34 1.25 -0.2 0.8 -0.14zm-2.16 0.37l-2.04 0.35 1.28 -0.22 0.76 -0.13zm-2.15 0.36l-2.05 0.35 1.31 -0.22 0.74 -0.13zm-12.94 2.19l-2.03 0.33 -0.13 0.03 -0.49 0.08 2.65 -0.44zm-17.26 2.85l-2.01 0.32 -0.14 0.03 -2.01 0.32 1.8 -0.29 2.36 -0.38zm-417.34 47.51l24.36 -1.43c0.07,-0.01 0.13,-0.01 0.19,-0.02 1.18,-0.12 2.37,-0.24 3.56,-0.35 0.66,-0.08 1.32,-0.14 1.98,-0.2 1.96,-0.21 3.92,-0.4 5.87,-0.6l0.47 -0.05c-21.98,1.6 -44.73,3.13 -68.49,4.52l-0.51 0.03 -0.49 0.02 -0.02 0 -2.69 0.15 -0.03 0 -2.69 0.15 -0.02 0 -2.7 0.14 -0.01 0 -2.7 0.14 -0.02 0 -2.69 0.13 -0.02 0 -2.7 0.14 -0.01 0 -2.7 0.14 -0.01 0 -2.7 0.13 -0.01 0 -2.7 0.13 -0.01 0 -2.7 0.13 -0.01 0 -2.7 0.13 -0.02 0 -2.69 0.12 -0.02 0 -2.69 0.12 -0.01 0 -2.7 0.12 -0.01 0 -2.7 0.12 -0.01 0 -2.7 0.12 -0.01 0 -2.7 0.12 -0.01 0 -2.69 0.11 -0.02 0 -2.69 0.11 -0.01 0 -2.7 0.11 -0.01 0 -2.7 0.11 0 0 -2.7 0.1 -0.01 0 -2.7 0.1 0 0 -2.7 0.11 -0.01 0 -2.7 0.1 -2.7 0.1 -2.7 0.09 -0.01 0 -2.7 0.1 0 0 -2.7 0.09 -0.01 0 -2.7 0.09 -2.69 0.09 -0.01 0 -2.7 0.08 -2.7 0.09 0 0 -2.7 0.08 0 0 -2.7 0.08 -2.7 0.08 -2.7 0.07 -2.69 0.08 -2.7 0.07 -2.7 0.07 -2.69 0.07 -0.01 0 -2.69 0.07 -2.7 0.06 -2.69 0.06 -2.7 0.06 0 0 -2.69 0.06 -2.7 0.06 -2.69 0.05 -2.69 0.05 -2.7 0.05 -2.69 0.05 -2.69 0.05 -2.69 0.05 -2.69 0.04 -2.69 0.04 -2.69 0.04 -2.69 0.04 -2.69 0.03 -2.69 0.03 -2.68 0.03 -2.69 0.03 -2.69 0.03 -2.68 0.02 -2.69 0.03 -1035.69 8.49 -959.32 10.46 0 0c-1.28,-0.09 -2.23,0.01 -2.43,0.61 -54.42,161.26 -110.71,326.04 -148.98,495.41 -0.7,3.13 0.37,6.01 3.03,8.67 -1.83,7.91 -3.63,15.8 -5.39,23.67l107.18 -1.41c207.83,17.01 658.97,-6.42 743.67,-7.28l0.9 -0.01 17.56 -0.2 1804.97 -20.99c27.47,-1.8 55.01,-3.88 82.6,-6.26 117.09,1.33 343.53,-2.39 346.15,-2.83l-49.46 0.4 -1.23 0.01 -12.03 0.1 -12.35 0.1 24.38 -0.2 -697.65 -516.1zm356.25 -37.79l-2.79 0.24 1.32 -0.18 0.12 -0.01 0.21 -0.03 0.11 -0.02 0.22 -0.03 0.1 -0.01 1.52 -0.21 0.07 -0.01 0.25 -0.04 0.06 0 0.94 -0.14 0.28 -0.04 0.03 0 0.29 -0.04 0.03 0 0.28 -0.05 0.02 0 0.62 -0.08 0 -0.01 0.3 -0.04 0.31 -0.04 0.01 0 0.29 -0.04 0.02 -0.01 0.28 -0.04 0.03 -0.01 0.58 -0.08 0.04 0 0.26 -0.04 0.04 -0.01 0.26 -0.03 0.05 -0.01 0.25 -0.04 0.05 -0.01 0.25 -0.03 0.06 -0.01 0.23 -0.03 0.08 -0.01 0.22 -0.04 0.08 -0.01 0.22 -0.03 0.08 -0.01 0.21 -0.03 0.09 -0.02 0.21 -0.02 0.09 -0.02 0.2 -0.03 0.1 -0.02 0.19 -0.02 0.11 -0.02 0.17 -0.03 0.12 -0.01 0.18 -0.03 0.12 -0.02 0.17 -0.02 0.12 -0.02 0.16 -0.03 0.13 -0.01 0.16 -0.03 0.14 -0.02 0.14 -0.02 0.15 -0.03 0.14 -0.01 0.15 -0.03 0.13 -0.02 0.16 -0.02 0.13 -0.02 0.16 -0.03 0.12 -0.01 0.17 -0.03 0.11 -0.01 0.17 -0.03 0.11 -0.02 0.18 -0.03 0.1 -0.01 0.19 -0.03 0.08 -0.02 0.2 -0.02 0.08 -0.02 0.2 -0.03 0.08 -0.01 0.2 -0.03 0.07 -0.01 0.21 -0.04 0.06 -0.01 0.22 -0.03 0.06 -0.01 0.22 -0.03 0.05 -0.01 0.23 -0.04 0.04 0 0.24 -0.04 0.03 0 0.24 -0.04 0.03 -0.01 0.25 -0.04 0.02 0 0.25 -0.04 0.02 -0.01 0.25 -0.04 0.01 0 0.26 -0.04 0.01 0 0.26 -0.04 0.06 -0.01 0.07 -0.01 0.07 -0.02 0 0c27.94,-4.89 80.86,-14.05 166.71,-28.77l0.09 -0.02 0.09 -0.02 0.12 -0.02 0.12 -0.02 -183.85 31.48zm317.02 554.09l-17.08 0.14 -32.07 0.26 4.9 -0.04 -14.64 0.12 -10.39 0.09 -21.99 0.18 16.28 -0.13 -17.21 0.14 92.2 -0.76zm-17.08 0.14l-10.62 0.09 27.7 -0.23 -17.08 0.14zm-52.2 0.43l-5.71 0.05 5.71 -0.05zm-62.22 0.51l-3.93 0.03 -7.29 0.06 -5.2 0.05 -12.21 0.09 -30.54 0.25 -5.62 0.05 -0.8 0.01 -2.93 0.02 -11.6 0.1 80.12 -0.66zm-2801.78 34.79c-30.74,-2.91 -55.33,-6.82 -71.4,-11.99 -1.56,1.14 -2.5,1.58 -2.31,0.76 -0.19,0.82 0.75,0.38 2.31,-0.76 -0.71,-0.23 -1.31,-0.47 -1.98,-0.7l-0.33 1.46 0.33 -1.46c-2.74,-0.94 -5.19,-1.93 -7.38,-2.96 -2.95,13.27 -2.4,19.54 2.98,16.29l1.4 -0.01 76.38 -0.63zm2884.13 -35.47l-20.13 0.17 20.13 -0.17zm-82.35 0.68l-16.42 0.14 16.42 -0.14zm-64.79 0.53l-7.8 0.06 -3.11 0.03 10.91 -0.09zm1666.87 -5202.84c-881.17,75.85 -1815.62,445.14 -2539.71,966.46l-194.58 -330.28 347.01 -616.62 2387.28 -19.56zm1605.12 3478.04l1.58 -2.02 -961.12 1707.87 -651.6 5.34 -46.19 0.38 0.28 -0.51 -148.21 1.73 -461.34 3.78 0 -0.01 -123.17 1.01 2389.77 -1717.57zm-2635.38 991.82c153.92,-48.75 306.4,-104.76 456.03,-167.29 8.51,-3.55 17,-7.12 25.48,-10.72 895.01,-379.25 1685.09,-991.16 2069.72,-1674.63l338.17 -600.92c216.95,-385.51 277.97,-745.91 204.8,-1052.93 -126.97,-532.75 -657.98,-904.73 -1479.46,-968.16l2994.89 -24.54 -1259.65 2238.35 -713.01 1267 -0.01 0 0.01 0 -2636.97 993.84zm-573.24 145.76l-0.07 0.01 -0.06 0.01 -0.06 0.01 0.06 -0.01 0.06 -0.01 0.07 -0.01zm-0.25 0.04l-0.06 0.01 0.06 -0.01 -0.06 0.01 -0.06 0.01 -0.06 0.02 -0.06 0.01 -0.1 0.01 -0.09 0.02 -0.08 0.02 -0.09 0.02 -0.1 0.01 -0.09 0.02 -0.09 0.02 -0.09 0.01 -0.09 0.02 -0.09 0.02 -0.09 0.02 -0.1 0.01 -0.09 0.03 -0.09 0.01 -0.09 0.02 -0.09 0.02 -0.08 0.01 -0.07 0.02 -0.06 0.01 0 0 1.91 -0.37zm-2876.49 622.07c0.05,-0.23 0.1,-0.45 0.15,-0.69 -0.05,0.24 -0.1,0.47 -0.15,0.69zm2745.11 -598.91l0.15 -0.03 -0.15 0.03zm4.31 -0.7l0.15 -0.03 -0.15 0.03zm4.31 -0.7l0.15 -0.03 -0.15 0.03zm6.12 -1.01l0.35 -0.05 0.14 -0.03 -0.49 0.08zm2.13 -0.34l0.38 -0.07 0.13 -0.02 -0.51 0.09zm4.24 -0.71l0.45 -0.07 0.13 -0.03 -0.58 0.1zm4.77 -0.79l0.12 -0.03 -0.12 0.03zm1.6 -0.27l0.55 -0.09 0.12 -0.03 -0.67 0.12zm9.18 -1.55l0.11 -0.02 -0.11 0.02zm2.16 -0.37l0.11 -0.01 -0.11 0.01zm10.78 -1.84l0.1 -0.02 -0.1 0.02zm10.79 -1.88l0.08 -0.02 -0.08 0.02zm4.31 -0.76l0.09 -0.02 2.08 -0.36 0.07 -0.01 -2.24 0.39zm12.95 -2.3l0.07 -0.01 -0.07 0.01zm4.32 -0.77l0.06 -0.01 -0.06 0.01zm0.69 -0.12l1.47 -0.27 0.06 -0.01 -1.53 0.28zm8.5 -1.54l1.6 -0.29 0.05 -0.02 -1.65 0.31zm12.4 -2.28l0.03 0 -0.03 0zm2.16 -0.4l0.03 0 -0.03 0zm2.43 -0.45l1.88 -0.35 0.03 0 -1.91 0.35zm6.2 -1.15l0.02 -0.01 -0.02 0.01zm12.96 -2.45l0.01 0 -0.01 0zm20.53 -4.84l0.09 -0.03 -0.09 0.03zm-556.56 73.33l0.24 -0.02 24.12 -1.41 -24.36 1.43zm35.96 -2.6c132.42,-13.43 260.38,-27.77 304.77,-33.09 0.04,0 0.08,0 0.11,-0.01l0.7 -0.09 0.01 0 0.67 -0.08 0.03 -0.01 0.64 -0.07 0.04 -0.01 0.61 -0.07 0.06 -0.01 0.58 -0.06 0.07 -0.02 0.55 -0.06 0.08 -0.01 0.54 -0.06 0.08 -0.01 0.51 -0.07 0.1 -0.01 0.48 -0.06 0.11 -0.01 0.46 -0.06 0.11 -0.01 0.44 -0.05 0.12 -0.02 0.42 -0.05 0.13 -0.02 0.39 -0.04 0.14 -0.03 0.37 -0.04 0.14 -0.02 0.35 -0.04 0.15 -0.02 0.32 -0.04 0.16 -0.02 0.3 -0.04 0.16 -0.02 0.29 -0.03 0.17 -0.02 0.26 -0.04 0.17 -0.02 0.25 -0.03 0.17 -0.02 0.23 -0.03 0.17 -0.03 0.21 -0.02 0.18 -0.03 0.19 -0.02 0.17 -0.02 0.18 -0.03 0.18 -0.02 0.16 -0.02 0.17 -0.02 0.15 -0.02 0.17 -0.02 0.14 -0.02 0.29 -0.04 0.16 -0.02 0.11 -0.02 0.16 -0.02 0.09 -0.02 0.16 -0.02 0.09 -0.01 0.15 -0.02 0.07 -0.01 0.15 -0.02 0.06 -0.01 0.14 -0.02 0.05 -0.01 0.13 -0.02 0.05 -0.01 0.12 -0.02 0.03 0 0.12 -0.02 0.03 -0.01 0.1 -0.01 0.02 -0.01 0.09 -0.01 0.02 -0.01 0.08 -0.01 0.01 0 0.07 -0.01 0.01 -0.01 0.05 -0.01 0.01 0 0.04 -0.01 0.03 -0.03 -0.03 0 -0.01 0 -0.18 0 -0.1 0 0 0 -0.12 0 0 0.01 -0.13 0 -0.01 0.01 -0.14 0 -0.02 0.01 -0.15 0 -0.02 0.01 -320.29 35.19z"/>
  </g>
  <path class="fil27" d="M11623.99 8272.73c482.09,835.02 685.58,1953.92 594.13,2943.55l609.62 0.38c82.16,-888.44 -73.39,-1881.11 -454.85,-2679.05l-292.24 -506.18c-334.96,-480.45 -729.88,-755.32 -1118.31,-816.39 -157.94,-24.74 -314.71,-14.08 -465.87,32.3 402.12,117.47 802.42,462.3 1127.52,1025.39z"/>
  <path class="fil27" d="M19111.88 13599.05c482.09,-835.02 685.58,-1953.92 594.13,-2943.55l609.62 -0.38c82.16,888.44 -73.39,1881.11 -454.85,2679.05l-292.24 506.18c-334.96,480.45 -729.88,755.32 -1118.31,816.39 -157.94,24.74 -314.71,14.08 -465.87,-32.3 402.12,-117.47 802.42,-462.3 1127.52,-1025.39z"/>
  <path class="fil27" d="M14168.65 16445.79c-964.17,-7.9 -2031.73,-399.89 -2838.32,-980.52l-309.45 525.23c724.08,521.32 1658.54,890.61 2539.72,966.45l584.46 4.79c583.95,-45.08 1021.11,-246.07 1270.72,-549.89 101.41,-123.59 171.72,-264.11 208.39,-417.92 -305.15,287.02 -805.34,457.18 -1455.52,451.86z"/>
  <path class="fil27" d="M21656.54 5425.99c-964.17,7.9 -2031.73,399.89 -2838.32,980.52l-309.45 -525.23c724.08,-521.32 1658.54,-890.61 2539.72,-966.45l584.46 -4.79c583.95,45.08 1021.11,246.07 1270.72,549.89 101.41,123.59 171.72,264.11 208.39,417.92 -305.15,-287.02 -805.34,-457.18 -1455.52,-451.86z"/>
  <path class="fil27" d="M5857.63 14571.86c482.11,-835.02 1349.37,-1570.69 2252.14,-1986.3l-304.48 -528.13c-810.49,373.06 -1592.39,1004.09 -2092.71,1733.42l-292.25 506.17c-248.6,530.31 -289.19,1009.75 -147.87,1376.68 57.55,149.15 145.16,279.59 260.91,387.31 -99.32,-406.98 -0.84,-926.07 324.26,-1489.15z"/>
  <path class="fil27" d="M13345.52 7299.92c482.11,835.02 1349.37,1570.69 2252.14,1986.3l-304.48 528.13c-810.49,-373.06 -1592.39,-1004.09 -2092.71,-1733.42l-292.25 -506.17c-248.6,-530.31 -289.19,-1009.75 -147.87,-1376.68 57.55,-149.15 145.16,-279.59 260.91,-387.31 -99.32,406.98 -0.84,926.07 324.26,1489.15z"/>
  <path class="fil27" d="M13325.23 7324.04c482.11,835.02 1349.37,1570.69 2252.14,1986.3l-304.48 528.13c-810.49,-373.06 -1592.39,-1004.09 -2092.71,-1733.42l-292.25 -506.17c-248.6,-530.31 -289.19,-1009.75 -147.87,-1376.68 57.55,-149.15 145.16,-279.59 260.91,-387.31 -99.32,406.98 -0.84,926.07 324.26,1489.15z"/>
  <path class="fil27" d="M10961.95 7214.97c-157.82,-24.65 -314.45,-13.97 -465.48,32.37 151.03,-46.34 307.66,-57.02 465.48,-32.37zm1865.79 4001.69c82.16,-888.44 -73.39,-1881.11 -454.85,-2679.05l-292.24 -506.18c-334.96,-480.45 -729.88,-755.32 -1118.31,-816.39 -0.13,-0.03 -0.26,-0.04 -0.39,-0.07 -157.88,-24.76 -314.69,-14.2 -465.96,32.23 0.16,0.05 0.32,0.1 0.48,0.14 402.12,117.47 802.42,462.3 1127.52,1025.39 482.09,835.02 685.58,1953.92 594.13,2943.55l609.62 0.38zm-1865.4 -4001.62c-0.13,-0.03 -0.26,-0.04 -0.39,-0.07 0.13,0.03 0.26,0.04 0.39,0.07z"/>
  <path class="fil27" d="M18449.84 14656.81c-157.82,24.65 -314.45,13.97 -465.48,-32.37 151.03,46.34 307.66,57.02 465.48,32.37zm1865.79 -4001.69c82.16,888.44 -73.39,1881.11 -454.85,2679.05l-292.24 506.18c-334.96,480.45 -729.88,755.32 -1118.31,816.39 -0.13,0.03 -0.26,0.04 -0.39,0.07 -157.88,24.76 -314.69,14.2 -465.96,-32.23 0.16,-0.05 0.32,-0.1 0.48,-0.14 402.12,-117.47 802.42,-462.3 1127.52,-1025.39 482.09,-835.02 685.58,-1953.92 594.13,-2943.55l609.62 -0.38zm-1865.4 4001.62c-0.13,0.03 -0.26,0.04 -0.39,0.07 0.13,-0.03 0.26,-0.04 0.39,-0.07z"/>
  <path class="fil27" d="M15416.03 16411.54c101.27,-123.52 171.5,-263.93 208.14,-417.61 -36.64,153.68 -106.87,294.09 -208.14,417.61zm-4395.15 -421.04c724.08,521.32 1658.54,890.61 2539.72,966.45l584.46 4.79c583.95,-45.08 1021.12,-246.08 1270.72,-549.89 0.09,-0.1 0.17,-0.21 0.25,-0.31 101.41,-123.52 171.82,-264.02 208.5,-417.95 -0.12,0.11 -0.24,0.23 -0.36,0.34 -305.15,287.02 -805.34,457.18 -1455.52,451.86 -964.17,-7.9 -2031.73,-399.89 -2838.32,-980.52l-309.45 525.23zm4394.9 421.35c0.09,-0.1 0.17,-0.21 0.25,-0.31 -0.08,0.1 -0.16,0.21 -0.25,0.31z"/>
  <path class="fil27" d="M22903.92 5460.24c101.27,123.52 171.5,263.93 208.14,417.61 -36.64,-153.68 -106.87,-294.09 -208.14,-417.61zm-4395.15 421.04c724.08,-521.32 1658.54,-890.61 2539.72,-966.45l584.46 -4.79c583.95,45.08 1021.12,246.08 1270.72,549.89 0.09,0.1 0.17,0.21 0.25,0.31 101.41,123.52 171.82,264.02 208.5,417.95 -0.12,-0.11 -0.24,-0.23 -0.36,-0.34 -305.15,-287.02 -805.34,-457.18 -1455.52,-451.86 -964.17,7.9 -2031.73,399.89 -2838.32,980.52l-309.45 -525.23zm4394.9 -421.35c0.09,0.1 0.17,0.21 0.25,0.31 -0.08,-0.1 -0.16,-0.21 -0.25,-0.31z"/>
  <path class="fil27" d="M5272.61 15674.07c57.55,149 145.11,279.31 260.76,386.94 -115.65,-107.63 -203.21,-237.94 -260.76,-386.94zm2532.68 -3616.64c-810.49,373.06 -1592.39,1004.09 -2092.71,1733.42l-292.25 506.17c-248.6,530.31 -289.19,1009.75 -147.87,1376.68 0.05,0.13 0.1,0.25 0.15,0.37 57.49,149.12 145.03,279.63 260.88,387.42 -0.04,-0.16 -0.08,-0.32 -0.12,-0.48 -99.32,-406.98 -0.84,-926.07 324.26,-1489.15 482.11,-835.02 1349.37,-1570.69 2252.14,-1986.3l-304.48 -528.13zm-2532.83 3616.27c0.05,0.13 0.1,0.25 0.15,0.37 -0.05,-0.12 -0.1,-0.24 -0.15,-0.37z"/>
  <path class="fil27" d="M12760.5 6197.71c57.55,-149 145.11,-279.31 260.76,-386.94 -115.65,107.63 -203.21,237.94 -260.76,386.94zm2532.68 3616.64c-810.49,-373.06 -1592.39,-1004.09 -2092.71,-1733.42l-292.25 -506.17c-248.6,-530.31 -289.19,-1009.75 -147.87,-1376.68 0.05,-0.13 0.1,-0.25 0.15,-0.37 57.49,-149.12 145.03,-279.63 260.88,-387.42 -0.04,0.16 -0.08,0.32 -0.12,0.48 -99.32,406.98 -0.84,926.07 324.26,1489.15 482.11,835.02 1349.37,1570.69 2252.14,1986.3l-304.48 528.13zm-2532.83 -3616.27c0.05,-0.13 0.1,-0.25 0.15,-0.37 -0.05,0.12 -0.1,0.24 -0.15,0.37z"/>
  <path class="fil27" d="M12740.21 6221.83c57.55,-149 145.11,-279.31 260.76,-386.94 -115.65,107.63 -203.21,237.94 -260.76,386.94zm2532.68 3616.64c-810.49,-373.06 -1592.39,-1004.09 -2092.71,-1733.42l-292.25 -506.17c-248.6,-530.31 -289.19,-1009.75 -147.87,-1376.68 0.05,-0.13 0.1,-0.25 0.15,-0.37 57.49,-149.12 145.03,-279.63 260.88,-387.42 -0.04,0.16 -0.08,0.32 -0.12,0.48 -99.32,406.98 -0.84,926.07 324.26,1489.15 482.11,835.02 1349.37,1570.69 2252.14,1986.3l-304.48 528.13zm-2532.83 -3616.27c0.05,-0.13 0.1,-0.25 0.15,-0.37 -0.05,0.12 -0.1,0.24 -0.15,0.37z"/>
  <path class="fil27" d="M10960.11 7214.69c-157.19,-24.28 -313.2,-13.51 -463.64,32.65 150.45,-46.17 306.45,-56.93 463.64,-32.65zm1867.63 4001.97c82.16,-888.44 -73.39,-1881.11 -454.85,-2679.05l-292.24 -506.18c-334.96,-480.45 -729.88,-755.32 -1118.31,-816.39 -0.13,-0.03 -0.26,-0.04 -0.39,-0.07 -0.62,-0.09 -1.23,-0.19 -1.84,-0.28 -157.19,-24.28 -313.19,-13.52 -463.64,32.65 402.12,117.47 802.42,462.3 1127.52,1025.39 482.09,835.02 685.58,1953.92 594.13,2943.55l609.62 0.38zm-1865.4 -4001.62c-0.13,-0.03 -0.26,-0.04 -0.39,-0.07 0.13,0.03 0.26,0.04 0.39,0.07z"/>
  <path class="fil27" d="M18448 14657.09c-157.19,24.28 -313.2,13.51 -463.64,-32.65 150.45,46.17 306.45,56.93 463.64,32.65zm1867.63 -4001.97c82.16,888.44 -73.39,1881.11 -454.85,2679.05l-292.24 506.18c-334.96,480.45 -729.88,755.32 -1118.31,816.39 -0.13,0.03 -0.26,0.04 -0.39,0.07 -0.62,0.09 -1.23,0.19 -1.84,0.28 -157.19,24.28 -313.19,13.52 -463.64,-32.65 402.12,-117.47 802.42,-462.3 1127.52,-1025.39 482.09,-835.02 685.58,-1953.92 594.13,-2943.55l609.62 -0.38zm-1865.4 4001.62c-0.13,0.03 -0.26,0.04 -0.39,0.07 0.13,-0.03 0.26,-0.04 0.39,-0.07z"/>
  <path class="fil27" d="M15417.21 16410.1c100.64,-123.17 170.46,-263.09 206.96,-416.17 -36.5,153.08 -106.32,293 -206.96,416.17zm-4396.33 -419.6c724.08,521.32 1658.54,890.61 2539.72,966.45l584.46 4.79c583.95,-45.08 1021.12,-246.08 1270.72,-549.89 0.09,-0.1 0.17,-0.21 0.25,-0.31 0.39,-0.48 0.79,-0.96 1.18,-1.44 100.64,-123.17 170.46,-263.09 206.96,-416.17 -305.15,287.02 -805.34,457.18 -1455.52,451.86 -964.17,-7.9 -2031.73,-399.89 -2838.32,-980.52l-309.45 525.23zm4394.9 421.35c0.09,-0.1 0.17,-0.21 0.25,-0.31 -0.08,0.1 -0.16,0.21 -0.25,0.31z"/>
  <path class="fil27" d="M22905.1 5461.68c100.64,123.17 170.46,263.09 206.96,416.17 -36.5,-153.08 -106.32,-293 -206.96,-416.17zm-4396.33 419.6c724.08,-521.32 1658.54,-890.61 2539.72,-966.45l584.46 -4.79c583.95,45.08 1021.12,246.08 1270.72,549.89 0.09,0.1 0.17,0.21 0.25,0.31 0.39,0.48 0.79,0.96 1.18,1.44 100.64,123.17 170.46,263.09 206.96,416.17 -305.15,-287.02 -805.34,-457.18 -1455.52,-451.86 -964.17,7.9 -2031.73,399.89 -2838.32,980.52l-309.45 -525.23zm4394.9 -421.35c0.09,0.1 0.17,0.21 0.25,0.31 -0.08,-0.1 -0.16,-0.21 -0.25,-0.31z"/>
  <path class="fil27" d="M5273.28 15675.81c57.56,148.27 144.89,277.99 260.09,385.2 -115.2,-107.21 -202.53,-236.93 -260.09,-385.2zm2532.01 -3618.38c-810.49,373.06 -1592.39,1004.09 -2092.71,1733.42l-292.25 506.17c-248.6,530.31 -289.19,1009.75 -147.87,1376.68 0.05,0.13 0.1,0.25 0.15,0.37 0.22,0.58 0.44,1.16 0.67,1.74 57.56,148.27 144.89,277.99 260.09,385.2 -99.32,-406.98 -0.84,-926.07 324.26,-1489.15 482.11,-835.02 1349.37,-1570.69 2252.14,-1986.3l-304.48 -528.13zm-2532.83 3616.27c0.05,0.13 0.1,0.25 0.15,0.37 -0.05,-0.12 -0.1,-0.24 -0.15,-0.37z"/>
  <path class="fil27" d="M12761.17 6195.97c57.56,-148.27 144.89,-277.99 260.09,-385.2 -115.2,107.21 -202.53,236.93 -260.09,385.2zm2532.01 3618.38c-810.49,-373.06 -1592.39,-1004.09 -2092.71,-1733.42l-292.25 -506.17c-248.6,-530.31 -289.19,-1009.75 -147.87,-1376.68 0.05,-0.13 0.1,-0.25 0.15,-0.37 0.22,-0.58 0.44,-1.16 0.67,-1.74 57.56,-148.27 144.89,-277.99 260.09,-385.2 -99.32,406.98 -0.84,926.07 324.26,1489.15 482.11,835.02 1349.37,1570.69 2252.14,1986.3l-304.48 528.13zm-2532.83 -3616.27c0.05,-0.13 0.1,-0.25 0.15,-0.37 -0.05,0.12 -0.1,0.24 -0.15,0.37z"/>
  <path class="fil27" d="M12740.88 6220.09c57.56,-148.27 144.89,-277.99 260.09,-385.2 -115.2,107.21 -202.53,236.93 -260.09,385.2zm2532.01 3618.38c-810.49,-373.06 -1592.39,-1004.09 -2092.71,-1733.42l-292.25 -506.17c-248.6,-530.31 -289.19,-1009.75 -147.87,-1376.68 0.05,-0.13 0.1,-0.25 0.15,-0.37 0.22,-0.58 0.44,-1.16 0.67,-1.74 57.56,-148.27 144.89,-277.99 260.09,-385.2 -99.32,406.98 -0.84,926.07 324.26,1489.15 482.11,835.02 1349.37,1570.69 2252.14,1986.3l-304.48 528.13zm-2532.83 -3616.27c0.05,-0.13 0.1,-0.25 0.15,-0.37 -0.05,0.12 -0.1,0.24 -0.15,0.37z"/>
  <path class="fil27" d="M10958.97 7214.52c-156.8,-24.06 -312.42,-13.23 -462.5,32.82 150.08,-46.05 305.7,-56.88 462.5,-32.82zm1868.77 4002.14c82.16,-888.44 -73.39,-1881.11 -454.85,-2679.05l-292.24 -506.18c-334.96,-480.45 -729.88,-755.32 -1118.31,-816.39 -0.13,-0.03 -0.26,-0.04 -0.39,-0.07 -0.62,-0.09 -1.23,-0.19 -1.84,-0.28 -0.38,-0.06 -0.76,-0.12 -1.14,-0.18 -156.81,-24.05 -312.42,-13.22 -462.5,32.83 402.12,117.47 802.42,462.3 1127.52,1025.39 482.09,835.02 685.58,1953.92 594.13,2943.55l609.62 0.38zm-1865.4 -4001.62c-0.13,-0.03 -0.26,-0.04 -0.39,-0.07 0.13,0.03 0.26,0.04 0.39,0.07z"/>
  <path class="fil27" d="M18446.86 14657.26c-156.8,24.06 -312.42,13.23 -462.5,-32.82 150.08,46.05 305.7,56.88 462.5,32.82zm1868.77 -4002.14c82.16,888.44 -73.39,1881.11 -454.85,2679.05l-292.24 506.18c-334.96,480.45 -729.88,755.32 -1118.31,816.39 -0.13,0.03 -0.26,0.04 -0.39,0.07 -0.62,0.09 -1.23,0.19 -1.84,0.28 -0.38,0.06 -0.76,0.12 -1.14,0.18 -156.81,24.05 -312.42,13.22 -462.5,-32.83 402.12,-117.47 802.42,-462.3 1127.52,-1025.39 482.09,-835.02 685.58,-1953.92 594.13,-2943.55l609.62 -0.38zm-1865.4 4001.62c-0.13,0.03 -0.26,0.04 -0.39,0.07 0.13,-0.03 0.26,-0.04 0.39,-0.07z"/>
  <path class="fil27" d="M15417.94 16409.2c100.24,-122.94 169.82,-262.56 206.23,-415.27 -36.41,152.71 -105.99,292.33 -206.23,415.27zm-4397.06 -418.7c724.08,521.32 1658.54,890.61 2539.72,966.45l584.46 4.79c583.95,-45.08 1021.12,-246.08 1270.72,-549.89 0.09,-0.1 0.17,-0.21 0.25,-0.31 0.39,-0.48 0.79,-0.96 1.18,-1.44 0.24,-0.3 0.49,-0.6 0.73,-0.89 100.25,-122.96 169.82,-262.57 206.23,-415.28 -305.15,287.02 -805.34,457.18 -1455.52,451.86 -964.17,-7.9 -2031.73,-399.89 -2838.32,-980.52l-309.45 525.23zm4394.9 421.35c0.09,-0.1 0.17,-0.21 0.25,-0.31 -0.08,0.1 -0.16,0.21 -0.25,0.31z"/>
  <path class="fil27" d="M22905.83 5462.58c100.24,122.94 169.82,262.56 206.23,415.27 -36.41,-152.71 -105.99,-292.33 -206.23,-415.27zm-4397.06 418.7c724.08,-521.32 1658.54,-890.61 2539.72,-966.45l584.46 -4.79c583.95,45.08 1021.12,246.08 1270.72,549.89 0.09,0.1 0.17,0.21 0.25,0.31 0.39,0.48 0.79,0.96 1.18,1.44 0.24,0.3 0.49,0.6 0.73,0.89 100.25,122.96 169.82,262.57 206.23,415.28 -305.15,-287.02 -805.34,-457.18 -1455.52,-451.86 -964.17,7.9 -2031.73,399.89 -2838.32,980.52l-309.45 -525.23zm4394.9 -421.35c0.09,0.1 0.17,0.21 0.25,0.31 -0.08,-0.1 -0.16,-0.21 -0.25,-0.31z"/>
  <path class="fil27" d="M5273.7 15676.88c57.56,147.82 144.75,277.18 259.67,384.13 -114.92,-106.95 -202.11,-236.31 -259.67,-384.13zm2531.59 -3619.45c-810.49,373.06 -1592.39,1004.09 -2092.71,1733.42l-292.25 506.17c-248.6,530.31 -289.19,1009.75 -147.87,1376.68 0.05,0.13 0.1,0.25 0.15,0.37 0.22,0.58 0.44,1.16 0.67,1.74 0.14,0.36 0.28,0.71 0.41,1.08 57.58,147.82 144.76,277.17 259.68,384.12 -99.32,-406.98 -0.84,-926.07 324.26,-1489.15 482.11,-835.02 1349.37,-1570.69 2252.14,-1986.3l-304.48 -528.13zm-2532.83 3616.27c0.05,0.13 0.1,0.25 0.15,0.37 -0.05,-0.12 -0.1,-0.24 -0.15,-0.37z"/>
  <path class="fil27" d="M12761.59 6194.9c57.56,-147.82 144.75,-277.18 259.67,-384.13 -114.92,106.95 -202.11,236.31 -259.67,384.13zm2531.59 3619.45c-810.49,-373.06 -1592.39,-1004.09 -2092.71,-1733.42l-292.25 -506.17c-248.6,-530.31 -289.19,-1009.75 -147.87,-1376.68 0.05,-0.13 0.1,-0.25 0.15,-0.37 0.22,-0.58 0.44,-1.16 0.67,-1.74 0.14,-0.36 0.28,-0.71 0.41,-1.08 57.58,-147.82 144.76,-277.17 259.68,-384.12 -99.32,406.98 -0.84,926.07 324.26,1489.15 482.11,835.02 1349.37,1570.69 2252.14,1986.3l-304.48 528.13zm-2532.83 -3616.27c0.05,-0.13 0.1,-0.25 0.15,-0.37 -0.05,0.12 -0.1,0.24 -0.15,0.37z"/>
  <path class="fil27" d="M12741.3 6219.02c57.56,-147.82 144.75,-277.18 259.67,-384.13 -114.92,106.95 -202.11,236.31 -259.67,384.13zm2531.59 3619.45c-810.49,-373.06 -1592.39,-1004.09 -2092.71,-1733.42l-292.25 -506.17c-248.6,-530.31 -289.19,-1009.75 -147.87,-1376.68 0.05,-0.13 0.1,-0.25 0.15,-0.37 0.22,-0.58 0.44,-1.16 0.67,-1.74 0.14,-0.36 0.28,-0.71 0.41,-1.08 57.58,-147.82 144.76,-277.17 259.68,-384.12 -99.32,406.98 -0.84,926.07 324.26,1489.15 482.11,835.02 1349.37,1570.69 2252.14,1986.3l-304.48 528.13zm-2532.83 -3616.27c0.05,-0.13 0.1,-0.25 0.15,-0.37 -0.05,0.12 -0.1,0.24 -0.15,0.37z"/>
  <path class="fil27" d="M11623.99 8272.73c482.09,835.02 685.58,1953.92 594.13,2943.55l609.62 0.38c82.16,-888.45 -73.39,-1881.11 -454.85,-2679.05l-292.24 -506.18c-334.96,-480.45 -729.88,-755.32 -1118.31,-816.39 -0.13,-0.03 -0.26,-0.04 -0.39,-0.07 -0.62,-0.09 -1.23,-0.19 -1.84,-0.28 -0.38,-0.06 -0.76,-0.12 -1.14,-0.17 -156.8,-24.06 -312.42,-13.23 -462.5,32.82 402.12,117.47 802.42,462.3 1127.52,1025.39zm-661.65 -1057.69c-0.13,-0.03 -0.26,-0.04 -0.39,-0.07 0.13,0.03 0.26,0.04 0.39,0.07zm-3.37 -0.53c-156.81,-24.05 -312.42,-13.22 -462.5,32.83 150.08,-46.05 305.7,-56.88 462.5,-32.83z"/>
  <path class="fil27" d="M19111.88 13599.05c482.09,-835.02 685.58,-1953.92 594.13,-2943.55l609.62 -0.38c82.16,888.45 -73.39,1881.11 -454.85,2679.05l-292.24 506.18c-334.96,480.45 -729.88,755.32 -1118.31,816.39 -0.13,0.03 -0.26,0.04 -0.39,0.07 -0.62,0.09 -1.23,0.19 -1.84,0.28 -0.38,0.06 -0.76,0.12 -1.14,0.17 -156.8,24.06 -312.42,13.23 -462.5,-32.82 402.12,-117.47 802.42,-462.3 1127.52,-1025.39zm-661.65 1057.69c-0.13,0.03 -0.26,0.04 -0.39,0.07 0.13,-0.03 0.26,-0.04 0.39,-0.07zm-3.37 0.53c-156.81,24.05 -312.42,13.22 -462.5,-32.83 150.08,46.05 305.7,56.88 462.5,32.83z"/>
  <path class="fil27" d="M14168.65 16445.79c-964.17,-7.9 -2031.73,-399.89 -2838.32,-980.52l-309.45 525.23c724.09,521.32 1658.54,890.62 2539.72,966.45l584.46 4.79c583.95,-45.08 1021.12,-246.08 1270.72,-549.89 0.09,-0.1 0.17,-0.21 0.25,-0.31 0.39,-0.48 0.79,-0.96 1.18,-1.44 0.24,-0.3 0.49,-0.6 0.73,-0.9 100.24,-122.94 169.82,-262.56 206.23,-415.27 -305.15,287.02 -805.34,457.18 -1455.52,451.86zm1247.13 -33.94c0.09,-0.1 0.17,-0.21 0.25,-0.31 -0.08,0.1 -0.16,0.21 -0.25,0.31zm2.16 -2.64c100.25,-122.96 169.82,-262.57 206.23,-415.28 -36.41,152.71 -105.99,292.33 -206.23,415.28z"/>
  <path class="fil27" d="M21656.54 5425.99c-964.17,7.9 -2031.73,399.89 -2838.32,980.52l-309.45 -525.23c724.09,-521.32 1658.54,-890.62 2539.72,-966.45l584.46 -4.79c583.95,45.08 1021.12,246.08 1270.72,549.89 0.09,0.1 0.17,0.21 0.25,0.31 0.39,0.48 0.79,0.96 1.18,1.44 0.24,0.3 0.49,0.6 0.73,0.9 100.24,122.94 169.82,262.56 206.23,415.27 -305.15,-287.02 -805.34,-457.18 -1455.52,-451.86zm1247.13 33.94c0.09,0.1 0.17,0.21 0.25,0.31 -0.08,-0.1 -0.16,-0.21 -0.25,-0.31zm2.16 2.64c100.25,122.96 169.82,262.57 206.23,415.28 -36.41,-152.71 -105.99,-292.33 -206.23,-415.28z"/>
  <path class="fil27" d="M5857.63 14571.86c482.11,-835.02 1349.37,-1570.69 2252.14,-1986.3l-304.48 -528.13c-810.49,373.06 -1592.4,1004.1 -2092.71,1733.42l-292.25 506.17c-248.6,530.31 -289.19,1009.75 -147.87,1376.68 0.05,0.13 0.1,0.25 0.15,0.37 0.22,0.58 0.44,1.16 0.67,1.74 0.14,0.36 0.28,0.71 0.42,1.07 57.56,147.82 144.75,277.18 259.67,384.13 -99.32,-406.98 -0.84,-926.07 324.26,-1489.15zm-585.17 1101.84c0.05,0.13 0.1,0.25 0.15,0.37 -0.05,-0.12 -0.1,-0.24 -0.15,-0.37zm1.23 3.19c57.58,147.82 144.76,277.17 259.68,384.12 -114.92,-106.95 -202.11,-236.31 -259.68,-384.12z"/>
  <path class="fil27" d="M13345.52 7299.92c482.11,835.02 1349.37,1570.69 2252.14,1986.3l-304.48 528.13c-810.49,-373.06 -1592.4,-1004.1 -2092.71,-1733.42l-292.25 -506.17c-248.6,-530.31 -289.19,-1009.75 -147.87,-1376.68 0.05,-0.13 0.1,-0.25 0.15,-0.37 0.22,-0.58 0.44,-1.16 0.67,-1.74 0.14,-0.36 0.28,-0.71 0.42,-1.07 57.56,-147.82 144.75,-277.18 259.67,-384.13 -99.32,406.98 -0.84,926.07 324.26,1489.15zm-585.17 -1101.84c0.05,-0.13 0.1,-0.25 0.15,-0.37 -0.05,0.12 -0.1,0.24 -0.15,0.37zm1.23 -3.19c57.58,-147.82 144.76,-277.17 259.68,-384.12 -114.92,106.95 -202.11,236.31 -259.68,384.12z"/>
  <path class="fil27" d="M13325.23 7324.04c482.11,835.02 1349.37,1570.69 2252.14,1986.3l-304.48 528.13c-810.49,-373.06 -1592.4,-1004.1 -2092.71,-1733.42l-292.25 -506.17c-248.6,-530.31 -289.19,-1009.75 -147.87,-1376.68 0.05,-0.13 0.1,-0.25 0.15,-0.37 0.22,-0.58 0.44,-1.16 0.67,-1.74 0.14,-0.36 0.28,-0.71 0.42,-1.07 57.56,-147.82 144.75,-277.18 259.67,-384.13 -99.32,406.98 -0.84,926.07 324.26,1489.15zm-585.17 -1101.84c0.05,-0.13 0.1,-0.25 0.15,-0.37 -0.05,0.12 -0.1,0.24 -0.15,0.37zm1.23 -3.19c57.58,-147.82 144.76,-277.17 259.68,-384.12 -114.92,106.95 -202.11,236.31 -259.68,384.12z"/>
  <path class="fil28" d="M11623.99 8272.73c482.09,835.02 685.58,1953.92 594.13,2943.55l609.62 0.38c82.16,-888.45 -73.39,-1881.11 -454.85,-2679.05l-65.67 -131.16 -82.48 -149.04 -65.96 -108.44 -78.13 -117.54c-334.96,-480.45 -729.88,-755.32 -1118.31,-816.39 -0.13,-0.03 -0.26,-0.04 -0.39,-0.07 -0.62,-0.09 -1.23,-0.19 -1.84,-0.28 -0.38,-0.06 -0.76,-0.12 -1.14,-0.17 -156.8,-24.06 -312.42,-13.23 -462.5,32.82 402.12,117.47 802.42,462.3 1127.52,1025.39zm-661.65 -1057.69c-0.13,-0.03 -0.26,-0.04 -0.39,-0.07 0.13,0.03 0.26,0.04 0.39,0.07zm-3.37 -0.53c-156.8,-24.05 -312.42,-13.22 -462.5,32.83 150.08,-46.05 305.69,-56.88 462.5,-32.83z"/>
  <path class="fil29" d="M19111.88 13599.05c482.09,-835.02 685.58,-1953.92 594.13,-2943.55l609.62 -0.38c82.16,888.45 -73.39,1881.11 -454.85,2679.05l-65.67 131.16 -82.48 149.04 -65.96 108.44 -78.13 117.54c-334.96,480.45 -729.88,755.32 -1118.31,816.39 -0.13,0.03 -0.26,0.04 -0.39,0.07 -0.62,0.09 -1.23,0.19 -1.84,0.28 -0.38,0.06 -0.76,0.12 -1.14,0.17 -156.8,24.06 -312.42,13.23 -462.5,-32.82 402.12,-117.47 802.42,-462.3 1127.52,-1025.39zm-661.65 1057.69c-0.13,0.03 -0.26,0.04 -0.39,0.07 0.13,-0.03 0.26,-0.04 0.39,-0.07zm-3.37 0.53c-156.8,24.05 -312.42,13.22 -462.5,-32.83 150.08,46.05 305.69,56.88 462.5,32.83z"/>
  <path class="fil30" d="M14169.22 16458.15c-963.82,-7.88 -2032.59,-412.45 -2838.89,-992.88l-309.45 525.23c723.83,521.13 1645.19,905.18 2526.05,980.99l604.05 3.2c583.73,-45.06 1015.41,-246.77 1264.92,-550.48 0.1,-0.09 0.17,-0.2 0.26,-0.3 0.39,-0.48 0.78,-0.96 1.18,-1.44 0.24,-0.3 0.48,-0.6 0.72,-0.9 100.21,-122.9 169.77,-262.47 206.16,-415.12 -305.04,286.92 -805.07,457 -1455,451.7zm1246.68 -33.94c0.1,-0.09 0.17,-0.2 0.26,-0.3 -0.09,0.1 -0.16,0.21 -0.26,0.3zm2.17 -2.63c100.2,-122.91 169.75,-262.49 206.15,-415.13 -36.4,152.65 -105.94,292.21 -206.15,415.13z"/>
  <path class="fil31" d="M21657.11 5413.63c-963.82,7.88 -2032.59,412.45 -2838.89,992.88l-309.45 -525.23c723.83,-521.13 1645.19,-905.18 2526.05,-980.99l604.05 -3.2c583.73,45.06 1015.41,246.77 1264.92,550.48 0.1,0.09 0.17,0.2 0.26,0.3 0.39,0.48 0.78,0.96 1.18,1.44 0.24,0.3 0.48,0.6 0.72,0.9 100.21,122.9 169.77,262.47 206.16,415.12 -305.04,-286.92 -805.07,-457 -1455,-451.7zm1246.68 33.94c0.1,0.09 0.17,0.2 0.26,0.3 -0.09,-0.1 -0.16,-0.21 -0.26,-0.3zm2.17 2.63c100.2,122.91 169.75,262.49 206.15,415.13 -36.4,-152.65 -105.94,-292.21 -206.15,-415.13z"/>
  <path class="fil32" d="M5857.63 14571.86c482.11,-835.02 1349.37,-1570.69 2252.14,-1986.3l-304.48 -528.13c-810.49,373.06 -1592.4,1004.1 -2092.71,1733.42l-43.65 64.97 -55.24 86.43 -74.17 124.85 -65.08 120.09 -54.11 109.83c-248.6,530.31 -289.19,1009.75 -147.87,1376.68 0.05,0.13 0.1,0.25 0.15,0.37 0.22,0.58 0.44,1.16 0.67,1.74 0.14,0.36 0.28,0.71 0.42,1.07 57.56,147.82 144.75,277.18 259.68,384.13 -99.34,-406.99 -0.85,-926.07 324.25,-1489.15zm-585.17 1101.84c0.05,0.13 0.1,0.25 0.15,0.37 -0.05,-0.12 -0.1,-0.24 -0.15,-0.37zm1.23 3.19c57.57,147.81 144.77,277.17 259.69,384.12 -114.93,-106.95 -202.11,-236.3 -259.69,-384.12z"/>
  <path class="fil33" d="M13345.52 7299.92c482.11,835.02 1349.37,1570.69 2252.14,1986.3l-304.48 528.13c-810.49,-373.06 -1592.4,-1004.1 -2092.71,-1733.42l-43.65 -64.97 -55.24 -86.43 -74.17 -124.85 -65.08 -120.09 -54.11 -109.83c-248.6,-530.31 -289.19,-1009.75 -147.87,-1376.68 0.05,-0.13 0.1,-0.25 0.15,-0.37 0.22,-0.58 0.44,-1.16 0.67,-1.74 0.14,-0.36 0.28,-0.71 0.42,-1.07 57.56,-147.82 144.75,-277.18 259.68,-384.13 -99.34,406.99 -0.85,926.07 324.25,1489.15zm-585.17 -1101.84c0.05,-0.13 0.1,-0.25 0.15,-0.37 -0.05,0.12 -0.1,0.24 -0.15,0.37zm1.23 -3.19c57.57,-147.81 144.77,-277.17 259.69,-384.12 -114.93,106.95 -202.11,236.3 -259.69,384.12z"/>
  <path class="fil34" d="M15419.92 16406.78c-0.49,0.6 -0.98,1.2 -1.47,1.8 0.49,-0.6 0.98,-1.2 1.47,-1.8zm-3107.85 -4649.24c-28.26,-5.42 -26.35,-0.24 -32.34,-0.25l-114.65 -0.95 -50.69 -0.41 -24.38 -0.2 -17.08 -0.14 -32.07 -0.26 -20.13 -0.17 -5.71 -0.05 -17.21 -0.14 -39.3 -0.32 -16.42 -0.14 -48.37 -0.39 -10.91 -0.09 -4.42 -0.04 -1.79 -0.01 -57.67 -0.47c-21.98,-1.89 -43.92,-3.6 -65.82,-5.12 -5.59,-0.39 -11.19,-0.77 -16.78,-1.14l-135.35 -1.57 -1307.36 -15.21 -362.26 -4.2 -17.56 -0.21 -0.9 -0.01c-0.21,0 -0.42,-0.01 -0.64,-0.01 -86.32,-0.97 -535.72,-24.24 -743.03,-7.27 -72.48,3.39 -139.07,-14.64 -136.12,-0.06 4.11,20.36 10.93,51.87 47.23,164.2 45.17,158.98 60.09,226.11 105.65,361.08 0.13,0.37 27.28,0.76 27.4,1.12 0.19,0.6 1.15,0.7 2.43,0.61l959.32 10.46 1035.69 8.49c57.28,0.47 114.92,2.3 172.83,5.44 10.92,0.58 21.85,1.22 32.79,1.91l0.29 0.01 0.36 0.02 24 1.41c0.04,0 0.07,0 0.1,0.01 1.21,0.12 2.42,0.24 3.63,0.36 0.68,0.07 1.35,0.14 2.03,0.21 1.95,0.19 3.89,0.39 5.84,0.59 0.16,0.01 0.31,0.03 0.47,0.05 132.36,13.42 260.17,27.75 304.41,33.05 10.84,1.3 16.66,2.06 16.32,2.13l-0.57 -0.01 -0.34 -0.03 -2.71 -0.23c2.19,0.29 4.32,0.59 6.39,0.88 4.67,0.67 9.03,1.32 13.04,1.98 1.46,0.23 2.87,0.46 4.24,0.69 0.58,0.09 1.15,0.17 1.71,0.26 9.02,1.34 16.75,2.57 23.33,3.7 0.72,0.12 1.44,0.23 2.16,0.35 1.43,0.23 2.88,0.46 4.31,0.69 0.05,0.01 0.1,0.02 0.15,0.03 1.39,0.22 2.78,0.44 4.16,0.67 0.05,0.01 0.1,0.01 0.15,0.03 0.6,0.09 1.2,0.19 1.8,0.29 0.79,0.12 1.57,0.25 2.36,0.38 0.05,0.01 0.1,0.02 0.15,0.02 1.44,0.24 2.87,0.48 4.3,0.71 0.56,0.09 1.12,0.18 1.67,0.28 0.16,0.02 0.33,0.05 0.49,0.08 0.54,0.09 1.09,0.17 1.64,0.26 0.17,0.03 0.34,0.06 0.51,0.09 1.24,0.21 2.49,0.41 3.73,0.62 0.19,0.03 0.39,0.06 0.58,0.1 0.51,0.08 1.02,0.17 1.54,0.25 0.88,0.15 1.76,0.29 2.65,0.44 0.04,0.01 0.08,0.01 0.12,0.03 0.49,0.08 0.98,0.16 1.48,0.24 0.22,0.04 0.45,0.08 0.67,0.12 0.5,0.08 1.01,0.16 1.51,0.25 2.33,0.39 4.66,0.78 7,1.18 0.04,0.01 0.07,0.01 0.11,0.02 0.68,0.11 1.37,0.23 2.05,0.35 0.03,0 0.07,0.01 0.11,0.01 3.26,0.56 6.51,1.12 9.77,1.68 0.3,0.05 0.6,0.1 0.9,0.15l0.1 0.02c1.4,0.24 2.81,0.49 4.22,0.73 1.91,0.33 3.83,0.67 5.74,1l0.73 0.13c0.03,0 0.06,0.01 0.08,0.02 0.31,0.05 0.62,0.1 0.92,0.16 1.11,0.19 2.21,0.38 3.31,0.58 0.75,0.13 1.5,0.26 2.24,0.39 3.6,0.64 7.19,1.27 10.78,1.92 0.23,0.04 0.47,0.08 0.69,0.12l3.56 0.64 0.69 0.12 0.31 0.06 1.22 0.22c0.2,0.03 0.39,0.07 0.59,0.11 2.13,0.38 4.25,0.77 6.38,1.15l1.65 0.31c0.15,0.02 0.31,0.05 0.47,0.08 3.43,0.63 6.88,1.26 10.31,1.89 0.1,0.02 0.21,0.04 0.31,0.06l1.71 0.32 0.14 0.02c0.09,0.02 0.18,0.04 0.27,0.06 0.71,0.13 1.42,0.26 2.13,0.39 0.64,0.12 1.27,0.23 1.91,0.35 0.07,0.02 0.14,0.03 0.21,0.04 1.37,0.26 2.74,0.51 4.1,0.77 0.05,0.01 0.1,0.02 0.15,0.03 3.24,0.6 6.49,1.22 9.73,1.83l-0.07 0.12 5.29 0.87 1.37 0.27 0.54 0.1 0.09 0.02 0.15 0.04 1.31 0.32 14.91 3.68 0.09 0.03 9.62 2.44 0.22 0.06c0.05,0.01 0.1,0.02 0.16,0.03 0.07,0.02 0.14,0.03 0.21,0.06l482.85 122.87 2.59 0.66 9.32 2.37 0.15 0.04 2.75 0.7 14.98 3.81 34.09 8.67c1029.71,326.12 2078.28,1012.22 2551.23,1852.64l338.17 600.92c216.95,385.51 277.97,745.91 204.8,1052.93 -36.21,151.96 -105.29,290.83 -204.61,413.19 -0.66,0.81 -1.32,1.62 -1.98,2.43 -0.08,0.1 -0.16,0.2 -0.24,0.3 -0.16,0.2 -0.33,0.39 -0.49,0.59 -0.39,0.48 -0.79,0.96 -1.18,1.44 -0.08,0.1 -0.16,0.2 -0.25,0.31 -2.38,2.89 -4.77,5.77 -7.18,8.65 -249.45,297.55 -675.67,495.45 -1249.81,541.36l2981.17 24.43 -1259.65 -2238.35 -713.02 -1267 -961.12 -1707.87 -12.06 -0.1 -0.07 0.1 -677.17 -5.34 -8.32 -0.07 0.11 0.2 -175.67 -1.59 -17.86 -0.14 -9.15 -0.1 -406.87 -3.67 -587.04 -4.82zm-395.45 576.25c0.55,0.11 1.1,0.2 1.65,0.31l-1.65 -0.31zm-8.19 -1.48c0.41,0.08 0.81,0.14 1.22,0.22l-1.22 -0.22zm555.22 137.57c0.96,0.29 1.92,0.58 2.87,0.87 -0.95,-0.29 -1.91,-0.58 -2.87,-0.87zm-521.56 -715.36l-48.37 -0.4 48.37 0.4zm3473.69 4657.33c-2.38,2.89 -4.77,5.78 -7.18,8.65 2.41,-2.87 4.8,-5.76 7.18,-8.65z"/>
  <path class="fil26" d="M22907.81 5465c-0.49,-0.6 -0.98,-1.2 -1.47,-1.8 0.49,0.6 0.98,1.2 1.47,1.8zm-3107.85 4649.24c-28.26,5.42 -26.35,0.24 -32.34,0.25l-114.65 0.95 -50.69 0.41 -24.38 0.2 -17.08 0.14 -32.07 0.26 -20.13 0.17 -5.71 0.05 -17.21 0.14 -39.3 0.32 -16.42 0.14 -48.37 0.39 -10.91 0.09 -4.42 0.04 -1.79 0.01 -57.67 0.47c-21.98,1.89 -43.92,3.6 -65.82,5.12 -5.59,0.39 -11.19,0.77 -16.78,1.14l-135.35 1.57 -1307.36 15.21 -362.26 4.2 -17.56 0.21 -0.9 0.01c-0.21,0 -0.42,0.01 -0.64,0.01 -86.32,0.97 -535.72,24.24 -743.03,7.27 -72.48,-3.39 -139.07,14.64 -136.12,0.06 4.11,-20.36 10.93,-51.87 47.23,-164.2 45.17,-158.98 60.09,-226.11 105.65,-361.08 0.13,-0.37 27.28,-0.76 27.4,-1.12 0.19,-0.6 1.15,-0.7 2.43,-0.61l959.32 -10.46 1035.69 -8.49c57.28,-0.47 114.92,-2.3 172.83,-5.44 10.92,-0.58 21.85,-1.22 32.79,-1.91l0.29 -0.01 0.36 -0.02 24 -1.41c0.04,0 0.07,0 0.1,-0.01 1.21,-0.12 2.42,-0.24 3.63,-0.36 0.68,-0.07 1.35,-0.14 2.03,-0.21 1.95,-0.19 3.89,-0.39 5.84,-0.59 0.16,-0.01 0.31,-0.03 0.47,-0.05 132.36,-13.42 260.17,-27.75 304.41,-33.05 10.84,-1.3 16.66,-2.06 16.32,-2.13l-0.57 0.01 -0.34 0.03 -2.71 0.23c2.19,-0.29 4.32,-0.59 6.39,-0.88 4.67,-0.67 9.03,-1.32 13.04,-1.98 1.46,-0.23 2.87,-0.46 4.24,-0.69 0.58,-0.09 1.15,-0.17 1.71,-0.26 9.02,-1.34 16.75,-2.57 23.33,-3.7 0.72,-0.12 1.44,-0.23 2.16,-0.35 1.43,-0.23 2.88,-0.46 4.31,-0.69 0.05,-0.01 0.1,-0.02 0.15,-0.03 1.39,-0.22 2.78,-0.44 4.16,-0.67 0.05,-0.01 0.1,-0.01 0.15,-0.03 0.6,-0.09 1.2,-0.19 1.8,-0.29 0.79,-0.12 1.57,-0.25 2.36,-0.38 0.05,-0.01 0.1,-0.02 0.15,-0.02 1.44,-0.24 2.87,-0.48 4.3,-0.71 0.56,-0.09 1.12,-0.18 1.67,-0.28 0.16,-0.02 0.33,-0.05 0.49,-0.08 0.54,-0.09 1.09,-0.17 1.64,-0.26 0.17,-0.03 0.34,-0.06 0.51,-0.09 1.24,-0.21 2.49,-0.41 3.73,-0.62 0.19,-0.03 0.39,-0.06 0.58,-0.1 0.51,-0.08 1.02,-0.17 1.54,-0.25 0.88,-0.15 1.76,-0.29 2.65,-0.44 0.04,-0.01 0.08,-0.01 0.12,-0.03 0.49,-0.08 0.98,-0.16 1.48,-0.24 0.22,-0.04 0.45,-0.08 0.67,-0.12 0.5,-0.08 1.01,-0.16 1.51,-0.25 2.33,-0.39 4.66,-0.78 7,-1.18 0.04,-0.01 0.07,-0.01 0.11,-0.02 0.68,-0.11 1.37,-0.23 2.05,-0.35 0.03,0 0.07,-0.01 0.11,-0.01 3.26,-0.56 6.51,-1.12 9.77,-1.68 0.3,-0.05 0.6,-0.1 0.9,-0.15l0.1 -0.02c1.4,-0.24 2.81,-0.49 4.22,-0.73 1.91,-0.33 3.83,-0.67 5.74,-1l0.73 -0.13c0.03,0 0.06,-0.01 0.08,-0.02 0.31,-0.05 0.62,-0.1 0.92,-0.16 1.11,-0.19 2.21,-0.38 3.31,-0.58 0.75,-0.13 1.5,-0.26 2.24,-0.39 3.6,-0.64 7.19,-1.27 10.78,-1.92 0.23,-0.04 0.47,-0.08 0.69,-0.12l3.56 -0.64 0.69 -0.12 0.31 -0.06 1.22 -0.22c0.2,-0.03 0.39,-0.07 0.59,-0.11 2.13,-0.38 4.25,-0.77 6.38,-1.15l1.65 -0.31c0.15,-0.02 0.31,-0.05 0.47,-0.08 3.43,-0.63 6.88,-1.26 10.31,-1.89 0.1,-0.02 0.21,-0.04 0.31,-0.06l1.71 -0.32 0.14 -0.02c0.09,-0.02 0.18,-0.04 0.27,-0.06 0.71,-0.13 1.42,-0.26 2.13,-0.39 0.64,-0.12 1.27,-0.23 1.91,-0.35 0.07,-0.02 0.14,-0.03 0.21,-0.04 1.37,-0.26 2.74,-0.51 4.1,-0.77 0.05,-0.01 0.1,-0.02 0.15,-0.03 3.24,-0.6 6.49,-1.22 9.73,-1.83l-0.07 -0.12 5.29 -0.87 1.37 -0.27 0.54 -0.1 0.09 -0.02 0.15 -0.04 1.31 -0.32 14.91 -3.68 0.09 -0.03 9.62 -2.44 0.22 -0.06c0.05,-0.01 0.1,-0.02 0.16,-0.03 0.07,-0.02 0.14,-0.03 0.21,-0.06l482.85 -122.87 2.59 -0.66 9.32 -2.37 0.15 -0.04 2.75 -0.7 14.98 -3.81 34.09 -8.67c1029.71,-326.12 2078.28,-1012.22 2551.23,-1852.64l338.17 -600.92c216.95,-385.51 277.97,-745.91 204.8,-1052.93 -36.21,-151.96 -105.29,-290.83 -204.61,-413.19 -0.66,-0.81 -1.32,-1.62 -1.98,-2.43 -0.08,-0.1 -0.16,-0.2 -0.24,-0.3 -0.16,-0.2 -0.33,-0.39 -0.49,-0.59 -0.39,-0.48 -0.79,-0.96 -1.18,-1.44 -0.08,-0.1 -0.16,-0.2 -0.25,-0.31 -2.38,-2.89 -4.77,-5.77 -7.18,-8.65 -249.45,-297.55 -675.67,-495.45 -1249.81,-541.36l2981.17 -24.43 -1259.65 2238.35 -713.02 1267 -961.12 1707.87 -12.06 0.1 -0.07 -0.1 -677.17 5.34 -8.32 0.07 0.11 -0.2 -175.67 1.59 -17.86 0.14 -9.15 0.1 -406.87 3.67 -587.04 4.82zm-395.45 -576.25c0.55,-0.11 1.1,-0.2 1.65,-0.31l-1.65 0.31zm-8.19 1.48c0.41,-0.08 0.81,-0.14 1.22,-0.22l-1.22 0.22zm555.22 -137.57c0.96,-0.29 1.92,-0.58 2.87,-0.87 -0.95,0.29 -1.91,0.58 -2.87,0.87zm-521.56 715.36l-48.37 0.4 48.37 -0.4zm3473.69 -4657.33c-2.38,-2.89 -4.77,-5.78 -7.18,-8.65 2.41,2.87 4.8,5.76 7.18,8.65z"/>
 </g>
</svg>
